<?xml version="1.0" encoding="UTF-8" standalone="no"?>
<svg
   xmlns:dc="http://purl.org/dc/elements/1.1/"
   xmlns:cc="http://creativecommons.org/ns#"
   xmlns:rdf="http://www.w3.org/1999/02/22-rdf-syntax-ns#"
   xmlns:svg="http://www.w3.org/2000/svg"
   xmlns="http://www.w3.org/2000/svg"
   version="1.1"
   id="svg2"
   xml:space="preserve"
   width="1248"
   height="384"
   viewBox="0 0 1248 384"><metadata
     id="metadata8"><rdf:RDF><cc:Work
         rdf:about=""><dc:format>image/svg+xml</dc:format><dc:type
           rdf:resource="http://purl.org/dc/dcmitype/StillImage" /></cc:Work></rdf:RDF></metadata><defs
     id="defs6"><clipPath
       clipPathUnits="userSpaceOnUse"
       id="clipPath40"><path
         d="M 0,0 H 936 V 288 H 0 Z"
         id="path38" /></clipPath><clipPath
       clipPathUnits="userSpaceOnUse"
       id="clipPath52"><path
         d="M 40.98,31.91 H 930.52 V 282.52 H 40.98 Z"
         id="path50" /></clipPath></defs><g
     id="g10"
     transform="matrix(1.3333333,0,0,-1.3333333,0,384)"><g
       id="g12"><path
         d="M 0,0 H 936 V 288 H 0 Z"
         style="fill:#ffffff;fill-opacity:1;fill-rule:nonzero;stroke:none"
         id="path14" /></g><g
       id="g16" /><g
       id="g18" /><g
       id="g20" /><g
       id="g22" /><g
       id="g24" /><g
       id="g26" /><g
       id="g28" /><g
       id="g30" /><g
       id="g32" /><g
       id="g34"><g
         id="g36"
         clip-path="url(#clipPath40)"><path
           d="M 0,0 H 936 V 288 H 0 Z"
           style="fill:#ffffff;fill-opacity:1;fill-rule:nonzero;stroke:#ffffff;stroke-width:1.07;stroke-linecap:round;stroke-linejoin:round;stroke-miterlimit:10;stroke-dasharray:none;stroke-opacity:1"
           id="path42" /></g></g><g
       id="g44" /><g
       id="g46"><g
         id="g48"
         clip-path="url(#clipPath52)"><path
           d="M 40.98,31.91 H 930.52 V 282.52 H 40.98 Z"
           style="fill:#ebebeb;fill-opacity:1;fill-rule:nonzero;stroke:none"
           id="path54" /><path
           d="M 40.98,71.78 H 930.52"
           style="fill:none;stroke:#ffffff;stroke-width:0.53;stroke-linecap:butt;stroke-linejoin:round;stroke-miterlimit:10;stroke-dasharray:none;stroke-opacity:1"
           id="path56" /><path
           d="M 40.98,128.74 H 930.52"
           style="fill:none;stroke:#ffffff;stroke-width:0.53;stroke-linecap:butt;stroke-linejoin:round;stroke-miterlimit:10;stroke-dasharray:none;stroke-opacity:1"
           id="path58" /><path
           d="M 40.98,185.69 H 930.52"
           style="fill:none;stroke:#ffffff;stroke-width:0.53;stroke-linecap:butt;stroke-linejoin:round;stroke-miterlimit:10;stroke-dasharray:none;stroke-opacity:1"
           id="path60" /><path
           d="M 40.98,242.65 H 930.52"
           style="fill:none;stroke:#ffffff;stroke-width:0.53;stroke-linecap:butt;stroke-linejoin:round;stroke-miterlimit:10;stroke-dasharray:none;stroke-opacity:1"
           id="path62" /><path
           d="M 169.8,31.91 V 282.52"
           style="fill:none;stroke:#ffffff;stroke-width:0.53;stroke-linecap:butt;stroke-linejoin:round;stroke-miterlimit:10;stroke-dasharray:none;stroke-opacity:1"
           id="path64" /><path
           d="M 390.74,31.91 V 282.52"
           style="fill:none;stroke:#ffffff;stroke-width:0.53;stroke-linecap:butt;stroke-linejoin:round;stroke-miterlimit:10;stroke-dasharray:none;stroke-opacity:1"
           id="path66" /><path
           d="M 611.69,31.91 V 282.52"
           style="fill:none;stroke:#ffffff;stroke-width:0.53;stroke-linecap:butt;stroke-linejoin:round;stroke-miterlimit:10;stroke-dasharray:none;stroke-opacity:1"
           id="path68" /><path
           d="M 832.64,31.91 V 282.52"
           style="fill:none;stroke:#ffffff;stroke-width:0.53;stroke-linecap:butt;stroke-linejoin:round;stroke-miterlimit:10;stroke-dasharray:none;stroke-opacity:1"
           id="path70" /><path
           d="M 40.98,43.3 H 930.52"
           style="fill:none;stroke:#ffffff;stroke-width:1.07;stroke-linecap:butt;stroke-linejoin:round;stroke-miterlimit:10;stroke-dasharray:none;stroke-opacity:1"
           id="path72" /><path
           d="M 40.98,100.26 H 930.52"
           style="fill:none;stroke:#ffffff;stroke-width:1.07;stroke-linecap:butt;stroke-linejoin:round;stroke-miterlimit:10;stroke-dasharray:none;stroke-opacity:1"
           id="path74" /><path
           d="M 40.98,157.22 H 930.52"
           style="fill:none;stroke:#ffffff;stroke-width:1.07;stroke-linecap:butt;stroke-linejoin:round;stroke-miterlimit:10;stroke-dasharray:none;stroke-opacity:1"
           id="path76" /><path
           d="M 40.98,214.17 H 930.52"
           style="fill:none;stroke:#ffffff;stroke-width:1.07;stroke-linecap:butt;stroke-linejoin:round;stroke-miterlimit:10;stroke-dasharray:none;stroke-opacity:1"
           id="path78" /><path
           d="M 40.98,271.13 H 930.52"
           style="fill:none;stroke:#ffffff;stroke-width:1.07;stroke-linecap:butt;stroke-linejoin:round;stroke-miterlimit:10;stroke-dasharray:none;stroke-opacity:1"
           id="path80" /><path
           d="M 59.32,31.91 V 282.52"
           style="fill:none;stroke:#ffffff;stroke-width:1.07;stroke-linecap:butt;stroke-linejoin:round;stroke-miterlimit:10;stroke-dasharray:none;stroke-opacity:1"
           id="path82" /><path
           d="M 280.27,31.91 V 282.52"
           style="fill:none;stroke:#ffffff;stroke-width:1.07;stroke-linecap:butt;stroke-linejoin:round;stroke-miterlimit:10;stroke-dasharray:none;stroke-opacity:1"
           id="path84" /><path
           d="M 501.22,31.91 V 282.52"
           style="fill:none;stroke:#ffffff;stroke-width:1.07;stroke-linecap:butt;stroke-linejoin:round;stroke-miterlimit:10;stroke-dasharray:none;stroke-opacity:1"
           id="path86" /><path
           d="M 722.17,31.91 V 282.52"
           style="fill:none;stroke:#ffffff;stroke-width:1.07;stroke-linecap:butt;stroke-linejoin:round;stroke-miterlimit:10;stroke-dasharray:none;stroke-opacity:1"
           id="path88" /><path
           d="m 40.98,43.3 h 18.34 v 3.74 0 3.73 0 3.74 0 3.73 0 3.74 0 3.73 0 3.74 h 0.01 v 3.73 h 0.01 v 3.74 0 3.73 h 0.01 v 3.74 h 0.01 v 3.73 h 0.01 v 3.74 0 3.73 0 3.74 0 3.73 h 0.01 v 3.73 h 0.05 v 3.74 h 0.01 v 3.73 h 0.28 V 118 h 0.02 v 3.73 h 0.04 v 3.74 h 0.04 v 3.73 h 1.28 v 3.74 h 0.22 v 3.73 h 0.18 v 3.74 h 0.04 v 3.73 0 3.74 h 0.08 v 3.73 h 0.39 v 3.74 h 0.05 v 3.73 h 0.39 v 3.74 h 0.15 v 3.73 h 0.09 v 3.74 h 3.05 v 3.73 h 0.34 v 3.74 h 1.5 v 3.73 h 2.71 v 3.74 h 0.43 v 3.73 h 0.58 v 3.74 h 1.15 v 3.73 h 0.22 v 3.74 h 0.1 v 3.73 h 1.68 v 3.74 h 4.26 v 3.73 h 2.44 v 3.74 h 0.9 v 3.73 h 4.92 v 3.74 h 3.43 v 3.73 h 3.12 v 3.74 h 18.89 v 3.73 h 1.46 v 3.74 h 0.91 v 3.73 h 4.46 v 3.74 h 3.04 v 3.73 h 31.57 v 3.73 h 10.71 v 3.74 h 4.78 v 3.73 h 20.44 v 3.74 h 91.65 v 3.73 H 1581.8 v 3.74 H 930.52 v 0"
           style="fill:none;stroke:#e41a1c;stroke-width:1.07;stroke-linecap:butt;stroke-linejoin:round;stroke-miterlimit:10;stroke-dasharray:none;stroke-opacity:1"
           id="path90" /><path
           d="m 40.98,43.3 h 18.59 v 4.85 h 0.31 V 53 h 0.31 v 4.84 h 0.87 v 4.85 h 0.11 v 4.85 h 0.23 v 4.85 h 0.23 v 4.84 h 0.06 v 4.85 h 0.01 v 4.85 h 0.37 v 4.85 h 0.36 v 4.84 h 0.88 v 4.85 h 0.19 v 4.85 h 0.53 v 4.85 h 1.59 v 4.84 h 0.04 v 4.85 h 0.65 v 4.85 h 0.88 v 4.84 h 0.88 v 4.85 h 0.08 v 4.85 h 0.5 v 4.85 h 0.04 v 4.84 h 1.67 v 4.85 h 0.34 v 4.85 h 0.7 v 4.85 h 1.21 v 4.84 h 3.8 v 4.85 h 0.25 v 4.85 h 0.24 v 4.85 h 0.67 v 4.84 h 4.63 v 4.85 h 10.01 v 4.85 h 3.76 v 4.85 h 0.81 v 4.84 h 2.34 v 4.85 h 2.01 v 4.85 h 5.43 v 4.85 h 1.55 v 4.84 h 2.38 v 4.85 h 33.15 v 4.85 h 29.14 v 4.84 h 70.17 v 4.85 h 50.08 v 4.85 h 27.45 v 4.85 h 1.9 v 4.84 H 527.3 v 4.85 h 166.23 v 4.85 h 236.99 v 0"
           style="fill:none;stroke:#b13749;stroke-width:1.07;stroke-linecap:butt;stroke-linejoin:round;stroke-miterlimit:10;stroke-dasharray:none;stroke-opacity:1"
           id="path92" /><path
           d="m 40.98,43.3 h 18.35 v 13.4 0 13.41 h 0.13 v 13.4 h 0.14 v 13.4 h 0.25 v 13.4 h 0.03 v 13.4 h 0.36 v 13.4 h 0.07 v 13.4 h 0.46 v 13.41 h 0.15 v 13.4 h 0.39 v 13.4 h 0.29 v 13.4 h 1.04 v 13.4 h 9.66 v 13.4 h 0.03 v 13.41 h 0.3 v 13.4 h 15.34 v 13.4 h 842.55 v 0"
           style="fill:none;stroke:#7f5477;stroke-width:1.07;stroke-linecap:butt;stroke-linejoin:round;stroke-miterlimit:10;stroke-dasharray:none;stroke-opacity:1"
           id="path94" /><path
           d="m 40.98,43.3 h 18.58 v 32.55 h 0.03 v 32.55 h 0.51 v 32.54 h 1.27 v 32.55 h 0.13 v 32.55 h 0.51 v 32.54 H 205.8 v 32.55 h 724.72 v 0"
           style="fill:none;stroke:#4c71a4;stroke-width:1.07;stroke-linecap:butt;stroke-linejoin:round;stroke-miterlimit:10;stroke-dasharray:none;stroke-opacity:1"
           id="path96" /><path
           d="M 40.98,43.3 H 60.5 v 20.71 h 0.44 v 20.72 h 0.08 v 20.71 h 0.44 v 20.71 h 0.57 v 20.71 h 2.58 v 20.71 h 1.37 v 20.71 h 1.77 v 20.71 h 1.74 v 20.72 h 0.4 v 20.71 h 22.35 v 20.71 h 838.28 v 0"
           style="fill:none;stroke:#3a86a5;stroke-width:1.07;stroke-linecap:butt;stroke-linejoin:round;stroke-miterlimit:10;stroke-dasharray:none;stroke-opacity:1"
           id="path98" /><path
           d="m 40.98,43.3 h 18.34 v 7.12 0 7.12 0 7.12 0 7.12 h 0.01 v 7.12 h 0.08 v 7.12 h 0.03 v 7.12 h 0.03 v 7.12 h 0.02 v 7.12 h 0.03 v 7.12 h 0.01 v 7.12 h 0.15 v 7.12 h 0.04 v 7.12 h 1.6 v 7.12 h 0.52 v 7.12 h 0.14 v 7.12 h 0.1 v 7.12 h 0.12 v 7.11 h 2.4 v 7.12 h 0.82 v 7.12 h 0.26 v 7.12 h 5.66 v 7.12 h 16.64 v 7.12 h 0.54 v 7.12 h 14.89 v 7.12 h 31.18 v 7.12 h 10.56 v 7.12 h 3.71 v 7.12 h 3.32 v 7.12 h 38.54 v 7.12 h 68.29 v 7.12 h 380.63 v 7.12 h 290.88 v 0"
           style="fill:none;stroke:#419485;stroke-width:1.07;stroke-linecap:butt;stroke-linejoin:round;stroke-miterlimit:10;stroke-dasharray:none;stroke-opacity:1"
           id="path100" /><path
           d="m 40.98,43.3 h 18.34 v 1.24 0 1.24 0 1.24 0 1.23 0 1.24 0 2.48 0 1.24 0 1.24 0 1.23 0 1.24 0 1.24 0 2.48 0 1.23 h 0.01 v 1.24 0 1.24 0 1.24 0 1.24 0 1.24 0 1.23 0 1.24 0 1.24 h 0.01 v 1.24 0 1.24 h 0.01 v 1.24 h 0.01 v 1.23 h 0.01 v 1.24 0 1.24 0 1.24 h 0.05 v 1.24 0 1.23 h 0.01 v 1.24 h 0.05 v 1.24 h 0.03 v 1.24 h 0.04 v 1.24 h 0.01 v 1.24 h 0.06 v 1.23 h 0.01 v 1.24 h 0.01 v 1.24 h 0.03 v 1.24 h 0.01 v 1.24 h 0.01 v 1.23 h 0.01 v 1.24 h 0.04 v 1.24 h 0.05 v 1.24 h 0.05 v 1.24 0 1.24 h 0.05 v 1.23 h 0.04 v 1.24 h 0.06 v 1.24 h 0.06 v 1.24 h 0.02 v 1.24 h 0.3 v 1.23 h 0.01 v 1.24 h 0.01 v 1.24 h 0.01 v 1.24 h 0.12 v 1.24 h 0.39 v 1.24 h 0.04 v 1.23 h 0.02 v 1.24 h 0.13 v 1.24 h 0.01 v 1.24 h 0.01 v 1.24 h 0.03 v 1.23 h 0.15 v 1.24 h 0.02 v 1.24 h 0.02 v 1.24 h 0.04 v 1.24 h 0.01 v 1.24 h 0.03 v 1.23 h 0.07 v 1.24 h 0.15 v 1.24 h 0.09 v 1.24 h 0.03 v 1.24 h 0.03 v 1.23 h 0.19 v 1.24 h 0.24 v 1.24 h 0.5 v 1.24 h 0.11 v 1.24 h 0.26 v 1.24 h 0.31 v 1.23 h 0.12 v 1.24 h 0.03 v 1.24 h 0.04 v 1.24 h 0.27 v 1.24 h 0.28 v 1.23 h 0.27 v 1.24 h 0.52 v 1.24 h 0.86 v 1.24 h 0.01 v 1.24 h 0.26 v 1.24 h 0.07 v 1.23 h 0.31 v 1.24 h 0.33 v 1.24 h 0.1 v 1.24 h 0.53 v 1.24 h 0.19 v 1.23 h 0.06 v 1.24 h 0.06 v 1.24 h 0.28 v 1.24 0 1.24 h 0.09 v 1.24 0 1.23 h 0.01 v 1.24 0 1.24 0 1.24 h 0.08 v 1.24 h 0.08 v 1.23 h 0.02 v 1.24 h 0.36 v 1.24 h 0.2 v 1.24 h 0.16 v 1.24 h 0.1 v 1.24 h 0.61 v 1.23 h 0.09 v 1.24 h 0.09 v 1.24 h 0.51 v 1.24 h 0.03 v 1.24 h 0.09 v 1.23 h 0.16 v 1.24 h 1.1 v 1.24 h 0.35 v 1.24 h 0.9 v 1.24 h 0.96 v 1.24 h 0.22 v 1.23 h 0.31 v 1.24 h 0.47 v 1.24 h 0.17 v 1.24 h 1.26 v 1.24 h 0.43 v 1.24 h 0.19 v 1.23 h 0.2 v 1.24 h 0.03 v 1.24 h 0.27 v 1.24 h 0.03 v 1.24 h 0.36 v 1.23 h 1.32 v 1.24 h 0.07 v 1.24 h 0.26 v 1.24 h 0.98 v 1.24 h 0.41 v 1.24 h 0.92 v 1.23 h 1.76 v 1.24 h 3.95 v 1.24 h 0.63 v 1.24 0 1.24 h 3.58 v 1.23 h 2.48 v 1.24 h 0.94 v 1.24 h 2.79 v 1.24 h 5.16 v 1.24 h 1.29 v 1.24 h 7.87 v 1.23 h 4.21 v 1.24 h 0.3 v 1.24 h 4.1 v 1.24 h 2 v 1.24 h 9.26 v 1.23 h 0.04 v 1.24 h 1.72 v 1.24 h 3.97 v 1.24 h 10.81 v 1.24 h 0.08 v 1.24 h 1.27 v 1.23 h 0.2 v 1.24 h 17.41 v 1.24 h 0.99 v 1.24 h 29.58 v 1.24 h 12.65 v 1.23 h 2.74 v 1.24 h 13.49 v 1.24 h 1.97 v 1.24 h 4.73 v 1.24 h 0.27 v 1.24 h 2.1 v 1.23 h 0.79 v 1.24 h 5.7 v 1.24 h 4.24 v 1.24 h 6.19 v 1.24 h 41.07 v 1.23 h 39.16 v 1.24 h 35.81 v 1.24 h 25.75 v 1.24 h 535.59 v 0"
           style="fill:none;stroke:#47a265;stroke-width:1.07;stroke-linecap:butt;stroke-linejoin:round;stroke-miterlimit:10;stroke-dasharray:none;stroke-opacity:1"
           id="path102" /><path
           d="m 40.98,43.3 h 18.36 v 17.53 h 0.01 v 17.52 h 0.11 v 17.53 h 1.33 v 17.52 h 2.91 v 17.53 h 12.66 v 17.52 h 25.67 v 17.53 h 30.82 v 17.52 h 43.39 v 17.53 h 33.54 v 17.52 h 2.09 v 17.53 h 66.75 v 17.52 h 1054.41 v 17.53 H 930.52 v 0"
           style="fill:none;stroke:#50aa4d;stroke-width:1.07;stroke-linecap:butt;stroke-linejoin:round;stroke-miterlimit:10;stroke-dasharray:none;stroke-opacity:1"
           id="path104" /><path
           d="m 40.98,43.3 h 18.86 v 25.32 h 1.53 v 25.31 h 4.92 v 25.31 h 2.72 v 25.32 h 5.67 v 25.31 h 21.29 v 25.32 h 12.1 v 25.31 h 127.15 v 25.32 h 15.01 v 25.31 h 680.29 v 0"
           style="fill:none;stroke:#658e67;stroke-width:1.07;stroke-linecap:butt;stroke-linejoin:round;stroke-miterlimit:10;stroke-dasharray:none;stroke-opacity:1"
           id="path106" /><path
           d="m 40.98,43.3 h 18.34 v 1.52 0 1.52 0 1.52 0 1.52 0 1.52 0 1.52 0 1.51 0 1.52 0 1.52 0 1.52 0 4.56 0 1.52 0 1.51 0 1.52 0 1.52 0 1.52 0 1.52 0 1.52 0 1.52 0 1.52 h 0.01 v 1.52 0 1.51 0 1.52 0 1.52 0 1.52 0 1.52 0 1.52 0 1.52 0 1.52 0 1.52 h 0.01 v 1.51 0 1.52 0 1.52 0 1.52 h 0.01 v 1.52 0 1.52 0 1.52 0 1.52 0 1.51 0 1.52 h 0.01 v 1.52 0 1.52 0 1.52 h 0.01 v 1.52 0 1.52 0 1.52 h 0.01 v 1.52 0 1.51 h 0.01 v 1.52 0 1.52 0 3.04 h 0.01 v 1.52 0 1.52 h 0.01 v 1.52 h 0.05 v 1.52 0 1.51 h 0.01 v 1.52 0 1.52 h 0.02 v 1.52 0 1.52 0 1.52 0 1.52 h 0.01 v 1.52 0 1.51 h 0.01 v 1.52 h 0.01 v 1.52 0 1.52 h 0.05 v 1.52 0 1.52 h 0.01 v 1.52 h 0.06 v 1.52 h 0.01 v 1.52 h 0.05 v 1.51 h 0.04 v 1.52 h 0.01 v 1.52 h 0.07 v 1.52 h 0.08 v 1.52 h 0.09 v 1.52 h 0.06 v 1.52 h 0.03 v 1.52 h 0.24 v 1.52 h 0.16 v 1.51 h 0.02 v 1.52 h 0.37 v 1.52 h 0.34 v 1.52 h 0.04 v 1.52 h 0.02 V 180 h 0.06 v 1.52 h 0.1 v 1.52 h 0.01 v 1.51 h 0.23 v 1.52 h 0.01 v 1.52 h 0.09 v 1.52 h 0.15 v 1.52 h 0.82 v 1.52 h 0.64 v 1.52 h 0.08 v 1.52 h 0.01 v 1.52 h 0.31 v 1.51 h 1.46 v 1.52 h 1.25 v 1.52 h 1.52 v 1.52 h 0.08 v 1.52 h 1.06 v 1.52 h 1.3 v 1.52 h 1.17 v 1.52 h 0.3 v 1.52 h 0.66 v 1.51 h 1.72 v 1.52 h 0.18 v 1.52 h 0.03 v 1.52 h 0.23 v 1.52 h 1.6 v 1.52 h 3.02 v 1.52 h 0.13 v 1.52 h 3.39 v 1.51 h 0.77 v 1.52 h 1.85 v 1.52 h 7.42 v 1.52 h 0.13 v 1.52 h 7.99 v 1.52 h 2.48 v 1.52 h 10.83 v 1.52 h 0.85 v 1.52 h 2.15 v 1.51 h 7.76 v 1.52 h 4.73 v 1.52 h 6.79 v 1.52 h 5.19 v 1.52 h 10.11 v 1.52 h 15.78 v 1.52 h 19.87 v 1.52 h 1.73 v 1.52 h 18.95 v 1.51 h 27.69 v 1.52 h 3.16 v 1.52 h 13.58 v 1.52 h 7.38 v 1.52 h 141.5 v 1.52 h 18.79 v 1.52 h 40.32 v 1.52 h 131.26 v 1.51 h 7.52 v 1.52 h 185.58 v 1.52 H 899 v 1.52 h 704.22 v 1.52 h 1348.61 v 1.52 H 930.52 v 0"
           style="fill:none;stroke:#7b7281;stroke-width:1.07;stroke-linecap:butt;stroke-linejoin:round;stroke-miterlimit:10;stroke-dasharray:none;stroke-opacity:1"
           id="path108" /><path
           d="m 40.98,43.3 h 18.34 v 3.8 h 0.17 v 3.8 0 3.79 h 0.04 v 3.8 0 3.8 h 0.02 v 3.79 h 0.01 v 3.8 h 0.03 v 3.8 h 0.02 v 3.8 h 0.11 v 3.79 h 0.02 v 3.8 h 0.27 v 3.8 0 3.79 h 0.07 v 3.8 h 0.13 v 3.8 h 0.02 v 3.8 h 0.07 v 3.79 h 0.04 v 3.8 h 0.27 v 3.8 h 0.27 v 3.79 h 0.18 v 3.8 h 0.14 v 3.8 h 0.08 v 3.8 h 0.34 v 3.79 h 0.17 v 3.8 h 0.65 v 3.8 h 0.23 v 3.79 h 0.43 v 3.8 h 0.02 v 3.8 h 0.34 v 3.8 h 0.18 v 3.79 h 0.03 v 3.8 h 0.09 v 3.8 h 0.09 v 3.79 H 64 v 3.8 h 0.13 v 3.8 h 0.63 v 3.8 h 0.96 v 3.79 h 0.2 v 3.8 H 66 v 3.8 h 1.61 v 3.79 h 0.09 v 3.8 h 0.9 v 3.8 h 1.83 v 3.8 h 1.82 v 3.79 h 0.64 v 3.8 h 1.33 v 3.8 h 0.2 v 3.79 h 0.73 v 3.8 h 4.04 v 3.8 h 2 v 3.8 h 0.22 v 3.79 h 6.65 v 3.8 h 15.1 v 3.8 h 0.62 v 3.79 h 40.61 v 3.8 h 5.68 v 3.8 h 34.74 v 3.79 h 71.63 v 3.8 h 300.28 v 3.8 h 373.8 v 0"
           style="fill:none;stroke:#91569b;stroke-width:1.07;stroke-linecap:butt;stroke-linejoin:round;stroke-miterlimit:10;stroke-dasharray:none;stroke-opacity:1"
           id="path110" /><path
           d="m 40.98,43.3 h 18.49 v 9.49 h 0.22 v 9.5 h 0.11 v 9.49 h 0.58 v 9.49 h 0.41 v 9.5 h 0.1 v 9.49 h 0.09 v 9.49 h 0.44 v 9.49 h 0.04 v 9.5 h 1.37 v 9.49 h 3 v 9.49 h 4.65 v 9.5 h 1.16 v 9.49 h 0.83 v 9.49 h 2.13 v 9.49 h 8.79 v 9.5 h 2.47 v 9.49 h 13.77 v 9.49 h 13.75 v 9.5 h 10.65 v 9.49 h 41.77 v 9.49 h 173.96 v 9.49 h 254.31 v 9.5 h 15.58 v 9.49 h 320.87 v 0"
           style="fill:none;stroke:#ad5881;stroke-width:1.07;stroke-linecap:butt;stroke-linejoin:round;stroke-miterlimit:10;stroke-dasharray:none;stroke-opacity:1"
           id="path112" /><path
           d="m 40.98,43.3 h 18.34 v 17.99 0 5.99 0 6 h 0.06 v 5.99 h 0.01 v 6 h 0.11 v 6 h 0.02 v 5.99 h 0.08 v 6 0 5.99 h 1.48 v 6 h 0.01 v 5.99 h 0.31 v 6 h 0.25 v 5.99 h 1.92 v 6 h 2.34 v 5.99 h 0.12 v 6 h 0.92 v 6 h 2.49 v 5.99 h 0.35 v 6 h 4.98 v 5.99 H 82 v 6 h 2.63 v 5.99 h 5.29 v 6 h 0.85 v 5.99 h 2.7 v 6 h 24.33 v 5.99 h 14.49 v 6 h 75.18 v 6 h 35.07 v 5.99 h 14.58 v 6 h 13.18 v 5.99 h 18.75 v 6 h 114.8 v 5.99 h 3.48 v 6 h 47.25 v 5.99 h 447.51 v 6 h 28.43 v 0"
           style="fill:none;stroke:#cb6651;stroke-width:1.07;stroke-linecap:butt;stroke-linejoin:round;stroke-miterlimit:10;stroke-dasharray:none;stroke-opacity:1"
           id="path114" /><path
           d="m 40.98,43.3 h 18.34 v 3.4 0 3.4 0 3.4 0 3.4 0 3.4 h 0.02 v 3.4 h 0.52 v 3.4 h 0.78 v 3.41 h 0.54 v 3.4 h 0.6 v 3.4 h 0.11 v 3.4 h 0.14 v 3.4 h 0.11 v 3.4 h 0.25 v 3.4 h 0.7 v 3.4 h 0.93 v 3.4 h 1.6 v 3.4 h 1.11 v 3.4 h 0.93 v 3.4 h 0.13 v 3.4 h 1.53 v 3.4 h 0.44 v 3.4 h 0.49 v 3.4 h 0.08 v 3.4 h 1.42 v 3.4 h 0.76 v 3.4 h 0.06 v 3.4 h 4.13 v 3.4 h 0.57 v 3.4 h 0.01 v 3.4 h 2.92 v 3.4 h 1.39 v 3.41 h 0.36 v 3.4 h 0.49 v 3.4 h 0.98 v 3.4 h 3.07 v 3.4 h 1.35 v 3.4 h 2.56 v 3.4 h 2.88 v 3.4 h 2.09 v 3.4 h 5.85 v 3.4 h 0.13 v 3.4 h 2.57 v 3.4 h 1.96 v 3.4 h 1.93 v 3.4 h 3.59 v 3.4 h 1.84 v 3.4 h 3.55 v 3.4 h 10.4 v 3.4 H 129 v 3.4 h 8.47 v 3.4 h 3.69 v 3.4 h 11.5 v 3.4 h 4.82 v 3.4 h 4.26 v 3.4 h 14.04 v 3.4 h 3.18 v 3.41 h 19.37 v 3.4 h 0.45 v 3.4 h 12.35 v 3.4 h 49 v 3.4 H 366.4 v 3.4 h 46.57 v 3.4 h 146.59 v 3.4 h 66.56 v 3.4 h 30.91 v 3.4 h 139.04 v 3.4 h 134.45 v 0"
           style="fill:none;stroke:#e97421;stroke-width:1.07;stroke-linecap:butt;stroke-linejoin:round;stroke-miterlimit:10;stroke-dasharray:none;stroke-opacity:1"
           id="path116" /><path
           d="m 40.98,43.3 h 18.34 v 14.24 h 0.32 v 14.24 h 0.54 v 14.24 h 0.71 v 14.24 h 0.49 v 14.24 h 12.31 v 14.24 h 1.05 v 14.24 h 2.23 v 14.24 h 4.15 v 14.23 h 1.46 v 14.24 h 7.7 v 14.24 h 4 v 14.24 h 23.61 v 14.24 h 273.36 v 14.24 h 275.34 v 14.24 h 661.92 v 14.24 H 930.52 v 0"
           style="fill:none;stroke:#ff8904;stroke-width:1.07;stroke-linecap:butt;stroke-linejoin:round;stroke-miterlimit:10;stroke-dasharray:none;stroke-opacity:1"
           id="path118" /><path
           d="m 40.98,43.3 h 18.4 v 3.51 h 0.04 v 3.5 h 0.03 v 3.51 h 0.02 v 3.5 h 0.15 v 3.51 h 0.69 v 3.5 h 0.15 v 3.51 h 0.07 v 3.5 h 0.22 v 3.51 h 0.16 v 3.5 h 0.13 v 3.51 h 0.27 v 3.5 h 0.24 v 3.51 h 0.19 v 3.5 h 0.19 v 3.51 h 0.05 v 3.5 h 0.93 v 3.51 h 0.16 v 3.5 h 0.17 v 3.51 h 0.42 v 3.5 h 0.18 v 3.51 h 0.02 v 3.5 h 0.13 v 3.51 h 0.08 v 3.5 h 0.89 v 3.51 h 0.65 v 3.5 h 0.3 v 3.51 h 0.03 v 3.5 h 0.02 v 3.51 h 0.07 v 3.5 h 0.05 v 3.51 h 0.3 v 3.5 h 0.9 v 3.51 h 0.24 v 3.5 h 0.39 v 3.51 h 2.4 v 3.5 h 2.19 v 3.51 h 4.7 v 3.5 h 0.14 V 180 h 6.2 v 3.5 h 3.75 v 3.51 h 0.69 v 3.5 h 0.42 v 3.51 h 1.87 v 3.5 h 2.12 v 3.51 h 5.18 v 3.5 h 10.44 v 3.51 h 3.03 v 3.5 h 24.95 v 3.51 h 0.27 v 3.5 h 7.01 v 3.51 h 0.13 v 3.5 h 6.92 v 3.51 h 45.25 v 3.5 h 2.98 v 3.51 h 6.08 v 3.5 h 5.05 v 3.51 h 42.24 v 3.5 h 23.12 v 3.51 h 60.26 v 3.5 h 24.5 v 3.51 h 70.52 v 3.5 h 18.23 v 3.51 h 649.25 v 3.5 h 123.71 v 3.51 H 930.52 v 0"
           style="fill:none;stroke:#ffaf13;stroke-width:1.07;stroke-linecap:butt;stroke-linejoin:round;stroke-miterlimit:10;stroke-dasharray:none;stroke-opacity:1"
           id="path120" /><path
           d="m 40.98,43.3 h 18.59 v 4.85 h 0.15 V 53 h 0.16 v 4.84 h 0.1 v 4.85 h 0.37 v 4.85 h 0.13 v 4.85 h 0.33 v 4.84 h 0.04 v 4.85 h 0.19 v 4.85 h 0.06 v 4.85 h 0.08 v 4.84 h 0.01 v 4.85 h 0.07 v 4.85 h 0.14 v 4.85 h 0.02 v 4.84 h 0.2 v 4.85 h 0.09 v 4.85 h 0.02 v 4.84 h 0.52 v 4.85 h 0.52 v 4.85 h 0.44 v 4.85 h 0.25 v 4.84 h 0.04 v 4.85 h 0.14 v 4.85 h 0.32 v 4.85 h 0.74 v 4.84 h 1.2 v 4.85 h 2.03 v 4.85 h 0.01 v 4.85 h 0.58 v 4.84 h 1.79 v 4.85 h 1.94 v 4.85 h 2.67 v 4.85 h 3.72 v 4.84 h 0.01 v 4.85 h 5.67 v 4.85 h 1.62 v 4.85 h 3.68 v 4.84 h 8.96 v 4.85 h 7.41 v 4.85 h 4.79 v 4.84 h 44.84 v 4.85 h 76.41 v 4.85 h 63.29 v 4.85 H 660 v 4.84 h 46.41 v 4.85 h 3770.01 v 4.85 H 930.52 v 0"
           style="fill:none;stroke:#ffd422;stroke-width:1.07;stroke-linecap:butt;stroke-linejoin:round;stroke-miterlimit:10;stroke-dasharray:none;stroke-opacity:1"
           id="path122" /><path
           d="m 40.98,43.3 h 18.79 v 20.71 h 1.51 v 20.72 h 0.22 v 20.71 h 0.22 v 20.71 h 0.64 v 20.71 h 0.52 v 20.71 h 0.63 v 20.71 h 2.88 v 20.71 h 16.87 v 20.72 h 4.2 v 20.71 h 14.91 v 20.71 h 828.15 v 0"
           style="fill:none;stroke:#fff930;stroke-width:1.07;stroke-linecap:butt;stroke-linejoin:round;stroke-miterlimit:10;stroke-dasharray:none;stroke-opacity:1"
           id="path124" /><path
           d="m 40.98,43.3 h 22.79 v 227.83 h 866.75 v 0"
           style="fill:none;stroke:#e8d430;stroke-width:1.07;stroke-linecap:butt;stroke-linejoin:round;stroke-miterlimit:10;stroke-dasharray:none;stroke-opacity:1"
           id="path126" /><path
           d="m 40.98,43.3 h 18.34 v 25.86 0 2.25 0 1.87 0 1.12 0 0.38 0 0.37 0 0.38 0 0.37 0 0.38 0 0.37 0 0.38 0 0.37 0 0.38 0 0.37 0 0.38 h 0.01 v 0.37 0 0.37 0 0.38 0 0.37 0 0.38 0 0.37 0 0.38 0 0.37 0 0.38 0 0.37 0 0.38 0 0.37 0 0.38 0 0.37 0 0.38 0 0.37 h 0.01 v 0.38 0 0.37 0 0.37 h 0.01 v 0.38 0 0.37 0 0.38 h 0.01 v 0.37 0 0.38 h 0.01 v 0.37 0 0.38 0 0.37 0 0.38 h 0.01 v 0.37 h 0.01 v 0.38 0 0.37 0 0.38 h 0.01 v 0.37 0 0.38 0 0.37 h 0.02 v 0.38 0 0.37 0 0.37 h 0.01 v 0.38 0 0.37 0 0.38 h 0.01 v 0.37 0 0.38 h 0.01 v 0.37 0 0.38 h 0.01 v 0.37 0 0.38 h 0.02 v 0.37 0 0.38 0 0.37 h 0.02 v 0.38 h 0.01 v 0.37 0 0.38 h 0.01 v 0.37 0 0.37 h 0.01 v 0.38 0 0.37 h 0.01 v 0.38 h 0.01 v 0.37 h 0.04 v 0.38 h 0.03 v 0.37 0 0.38 h 0.05 v 0.37 0 0.38 h 0.01 v 0.37 h 0.03 v 0.38 0 0.37 h 0.01 v 0.38 0 0.37 h 0.01 v 0.38 0 0.37 h 0.01 v 0.37 0 0.38 0 0.37 h 0.01 v 0.38 h 0.01 V 107 h 0.01 v 0.38 h 0.01 v 0.37 h 0.04 v 0.38 h 0.03 v 0.37 0 0.38 h 0.03 v 0.37 h 0.01 v 0.38 h 0.05 v 0.37 0 0.38 h 0.01 v 0.37 0 0.38 h 0.03 v 0.37 h 0.01 v 0.38 h 0.03 v 0.37 0 0.37 h 0.02 V 113 h 0.03 v 0.37 h 0.01 v 0.38 h 0.02 v 0.37 h 0.01 v 0.38 h 0.13 v 0.37 0 0.38 h 0.01 v 0.37 h 0.01 V 116 h 0.01 v 0.37 h 0.02 v 0.38 h 0.05 v 0.37 h 0.02 v 0.38 h 0.02 v 0.37 h 0.01 v 0.38 h 0.01 v 0.37 h 0.01 v 0.37 0 0.38 h 0.03 v 0.37 0 0.38 0 0.37 h 0.13 v 0.38 h 0.01 v 0.37 h 0.01 v 0.38 h 0.03 v 0.37 h 0.04 v 0.38 h 0.04 v 0.37 h 0.03 v 0.38 h 0.06 v 0.37 h 0.08 v 0.38 h 0.04 v 0.37 h 0.02 v 0.38 h 0.01 v 0.37 0 0.37 h 0.01 v 0.38 h 0.01 v 0.37 h 0.03 v 0.38 h 0.02 v 0.37 h 0.07 v 0.38 h 0.05 v 0.37 h 0.09 v 0.38 0 0.37 h 0.04 v 0.38 h 0.03 v 0.37 h 0.01 v 0.38 h 0.04 v 0.37 h 0.01 v 0.38 h 0.03 v 0.37 h 0.02 v 0.38 h 0.03 v 0.37 0 0.37 h 0.01 v 0.38 h 0.01 v 0.37 h 0.01 v 0.38 h 0.01 v 0.37 h 0.02 v 0.38 h 0.01 v 0.37 0 0.38 h 0.01 v 0.37 h 0.02 v 0.38 h 0.01 v 0.37 h 0.01 v 0.38 h 0.05 v 0.37 0 0.38 h 0.07 v 0.37 h 0.01 v 0.38 0 0.37 h 0.01 v 0.38 h 0.01 v 0.37 h 0.06 v 0.37 h 0.08 v 0.38 h 0.02 v 0.37 h 0.02 v 0.38 h 0.06 v 0.37 H 62 v 0.38 h 0.03 v 0.37 h 0.06 v 0.38 0 0.37 h 0.03 v 0.38 h 0.03 v 0.37 h 0.03 v 0.38 h 0.21 v 0.37 h 0.06 v 0.38 h 0.01 v 0.37 h 0.05 v 0.38 h 0.04 v 0.37 0 0.37 h 0.01 v 0.38 h 0.07 v 0.37 h 0.12 v 0.38 h 0.08 v 0.37 h 0.04 v 0.38 0 0.37 h 0.02 v 0.38 h 0.08 v 0.37 h 0.02 v 0.38 h 0.15 v 0.37 h 0.02 v 0.38 h 0.08 v 0.37 h 0.14 v 0.38 h 0.02 v 0.37 h 0.03 v 0.38 h 0.09 v 0.37 0 0.37 h 0.02 v 0.38 h 0.04 v 0.37 h 0.06 v 0.38 h 0.03 v 0.37 0 0.38 h 0.01 v 0.37 h 0.03 v 0.38 h 0.02 v 0.37 h 0.08 v 0.38 h 0.01 v 0.37 h 0.05 v 0.38 h 0.08 v 0.37 h 0.11 v 0.38 h 0.2 v 0.37 h 0.38 v 0.38 h 0.01 v 0.37 h 0.07 v 0.38 h 0.09 v 0.37 h 0.01 v 0.37 h 0.1 v 0.38 h 0.13 v 0.37 h 0.15 v 0.38 h 0.28 v 0.37 h 0.06 v 0.38 h 0.17 v 0.37 h 0.01 v 0.38 h 0.06 v 0.37 h 0.05 v 0.38 h 0.04 v 0.37 h 0.02 v 0.38 h 0.09 v 0.37 h 0.16 v 0.38 h 0.05 v 0.37 h 0.04 v 0.38 h 0.01 v 0.37 h 0.03 v 0.37 h 0.46 v 0.38 h 0.01 v 0.37 h 0.03 v 0.38 h 0.15 v 0.37 h 0.03 v 0.38 h 0.01 v 0.37 h 0.1 v 0.38 h 0.04 v 0.37 h 0.13 v 0.38 h 0.08 v 0.37 h 0.45 v 0.38 h 0.08 v 0.37 h 0.09 v 0.38 h 0.08 v 0.37 h 0.01 v 0.38 h 0.02 v 0.37 0 0.37 h 0.05 v 0.38 0 0.37 h 0.04 v 0.38 h 0.06 v 0.37 h 0.13 v 0.38 h 0.05 v 0.37 0 0.38 h 0.21 v 0.37 h 0.11 v 0.38 h 0.05 v 0.37 h 0.12 v 0.38 h 0.01 v 0.37 h 0.08 v 0.38 h 0.23 v 0.37 h 0.1 v 0.38 h 0.01 v 0.37 h 0.13 v 0.37 h 0.4 v 0.38 h 0.03 v 0.37 h 0.02 v 0.38 h 0.07 v 0.37 h 0.13 v 0.38 h 0.12 v 0.37 h 0.13 v 0.38 h 0.03 v 0.37 h 0.04 v 0.38 h 0.3 v 0.37 h 0.43 v 0.38 h 0.32 v 0.37 h 0.21 v 0.38 h 0.11 v 0.37 h 0.4 v 0.38 h 0.15 v 0.37 h 0.17 v 0.38 h 0.07 v 0.37 h 0.04 v 0.37 h 0.09 v 0.38 h 0.08 v 0.37 h 0.2 v 0.38 h 0.06 v 0.37 h 0.14 v 0.38 h 0.42 v 0.37 h 0.08 v 0.38 h 0.1 v 0.37 h 0.13 v 0.38 h 0.07 v 0.37 h 0.21 v 0.38 h 0.12 v 0.37 h 0.05 v 0.38 h 0.43 v 0.37 h 0.02 v 0.38 h 0.03 v 0.37 h 0.25 v 0.37 h 0.14 v 0.38 h 0.02 v 0.37 h 0.49 v 0.38 h 0.14 v 0.37 h 0.02 v 0.38 h 0.02 v 0.37 h 0.12 v 0.38 h 0.09 v 0.37 h 0.3 v 0.38 h 0.02 v 0.37 h 0.21 v 0.38 h 0.09 v 0.37 h 0.34 v 0.38 h 0.16 v 0.37 h 0.07 v 0.38 h 0.14 v 0.37 h 0.29 v 0.37 h 0.56 v 0.38 h 0.05 v 0.37 h 0.03 v 0.38 h 0.2 v 0.37 h 0.29 v 0.38 h 0.57 v 0.37 h 0.05 v 0.38 h 0.08 v 0.37 h 0.01 v 0.38 h 0.68 v 0.37 h 0.08 v 0.38 h 0.17 v 0.37 h 0.17 v 0.38 h 0.21 v 0.37 h 0.21 v 0.38 h 0.14 v 0.37 h 0.06 v 0.38 h 0.1 v 0.37 h 0.13 v 0.37 h 0.1 v 0.38 h 0.06 v 0.37 h 0.62 v 0.38 h 0.43 v 0.37 h 0.53 v 0.38 h 0.04 v 0.37 h 0.37 v 0.38 h 0.01 v 0.37 h 0.65 v 0.38 h 0.11 v 0.37 h 0.42 v 0.38 h 0.08 v 0.37 H 85 v 0.38 h 0.05 v 0.37 h 0.47 v 0.38 h 0.16 v 0.37 h 0.21 v 0.37 h 0.04 v 0.38 h 0.06 v 0.37 h 0.22 v 0.38 h 0.03 v 0.37 h 0.15 v 0.38 h 0.68 v 0.37 h 0.03 v 0.38 h 0.68 v 0.37 h 0.16 v 0.38 h 0.12 v 0.37 h 0.17 v 0.38 h 0.18 v 0.37 h 0.07 v 0.38 h 0.08 v 0.37 h 0.71 v 0.38 h 0.61 v 0.37 h 0.31 v 0.37 h 1.02 v 0.38 h 0.55 v 0.37 h 0.63 v 0.38 h 0.08 v 0.37 h 0.62 v 0.38 h 0.2 v 0.37 h 0.2 v 0.38 h 0.42 v 0.37 h 0.15 v 0.38 h 0.37 v 0.37 h 0.09 v 0.38 h 0.03 v 0.37 h 4.28 v 0.38 h 0.36 v 0.37 h 0.08 v 0.38 h 0.95 v 0.37 h 0.36 v 0.38 h 0.6 v 0.37 h 1.46 v 0.37 h 0.79 v 0.38 h 0.81 v 0.37 h 0.39 v 0.38 h 0.65 v 0.37 h 0.25 v 0.38 h 0.89 v 0.37 h 1.49 v 0.38 h 0.03 v 0.37 h 0.16 v 0.38 h 1.21 v 0.37 h 0.77 v 0.38 h 0.77 v 0.37 h 0.03 v 0.38 h 0.11 v 0.37 h 0.12 v 0.38 h 2.46 v 0.37 h 0.6 v 0.37 h 0.45 v 0.38 h 0.58 v 0.37 h 0.04 v 0.38 h 0.44 v 0.37 h 0.61 v 0.38 h 0.34 v 0.37 h 0.94 v 0.38 h 0.19 v 0.37 h 2.97 v 0.38 h 0.94 v 0.37 h 1.03 v 0.38 h 2.91 v 0.37 h 1.31 v 0.38 h 0.91 v 0.37 h 0.67 v 0.38 h 0.36 v 0.37 h 1.28 v 0.37 h 0.69 v 0.38 h 2.55 v 0.37 h 1.07 v 0.38 h 1.77 v 0.37 h 0.2 v 0.38 h 0.21 v 0.37 h 1.28 v 0.38 h 0.38 v 0.37 h 0.22 v 0.38 h 0.17 v 0.37 h 0.05 v 0.38 h 1 v 0.37 h 2.3 v 0.38 h 1.23 v 0.37 h 2.84 v 0.38 h 3.62 v 0.37 h 2.39 v 0.37 h 8.19 v 0.38 h 0.66 v 0.37 h 0.05 v 0.38 h 4.28 v 0.37 h 0.27 v 0.38 h 2.24 v 0.37 h 1.49 v 0.38 h 5.26 v 0.37 h 2.59 v 0.38 h 1.7 v 0.37 h 0.06 v 0.38 h 1.04 v 0.37 h 0.5 v 0.38 h 0.61 v 0.37 h 3.99 v 0.38 h 2.6 v 0.37 h 1.03 v 0.38 h 0.23 v 0.37 h 3.21 v 0.37 h 0.01 v 0.38 h 1.6 v 0.37 h 6.14 v 0.38 h 5.47 v 0.37 h 3.36 v 0.38 h 2.85 v 0.37 h 9.15 v 0.38 h 4.4 v 0.37 h 2.79 v 0.38 h 1.55 v 0.37 h 2.39 v 0.38 h 0.23 v 0.37 h 1.36 v 0.38 h 2.46 v 0.37 h 8.22 v 0.38 h 16.34 v 0.37 h 4.7 v 0.37 h 9.29 v 0.38 h 21.36 v 0.37 h 1.1 v 0.38 h 1.05 v 0.37 h 6.11 v 0.38 h 1.9 v 0.37 h 8.73 v 0.38 h 16.42 v 0.37 h 0.32 v 0.38 h 20.8 v 0.37 h 0.93 v 0.38 h 8.84 v 0.37 h 1.34 v 0.38 h 4.7 v 0.37 h 8.47 v 0.38 h 11.78 v 0.37 h 0.2 v 0.37 h 29.5 v 0.38 h 31.53 v 0.37 h 11.2 v 0.38 h 19.76 v 0.37 h 30.24 v 0.38 h 32.68 v 0.37 h 22.57 v 0.38 h 49.79 v 0.37 h 13.48 v 0.38 h 30.72 v 0.37 h 6.6 v 0.38 h 99.67 v 0.37 h 13.04 v 0.38 h 31.95 v 0.37 h 12.6 v 0.38 h 32.87 v 0.37 h 141.49 v 0.38 h 166.93 v 0.37 h 10.29 v 0.37 h 1062.2 v 0.38 H 930.52 v 0"
           style="fill:none;stroke:#cea32d;stroke-width:1.07;stroke-linecap:butt;stroke-linejoin:round;stroke-miterlimit:10;stroke-dasharray:none;stroke-opacity:1"
           id="path128" /><path
           d="m 40.98,43.3 h 18.51 v 45.57 h 0.53 v 45.56 H 65.8 V 180 h 10.79 v 45.56 h 290.62 v 45.57 h 563.31 v 0"
           style="fill:none;stroke:#b47229;stroke-width:1.07;stroke-linecap:butt;stroke-linejoin:round;stroke-miterlimit:10;stroke-dasharray:none;stroke-opacity:1"
           id="path130" /><path
           d="m 40.98,43.3 h 18.34 v 5.56 0 5.56 h 0.01 v 5.55 0 5.56 0 5.56 h 0.12 v 5.55 h 0.02 v 5.56 h 0.13 v 5.56 h 0.38 v 5.55 h 0.23 v 5.56 h 0.22 v 5.56 h 0.33 v 5.55 h 0.27 v 5.56 h 0.06 v 5.56 h 0.08 v 5.55 h 0.06 v 5.56 h 0.1 v 5.56 h 0.11 v 5.55 h 0.26 v 5.56 0 5.56 h 0.27 v 5.55 h 0.91 v 5.56 h 0.46 v 5.56 h 0.1 v 5.55 h 0.25 v 5.56 h 0.4 v 5.56 h 0.44 v 5.55 h 3.34 v 5.56 h 2.44 v 5.56 h 4.48 V 210 h 0.32 v 5.56 h 0.32 v 5.56 h 0.54 v 5.56 h 1 v 5.55 h 6.92 v 5.56 h 1.03 v 5.56 h 0.24 v 5.55 h 0.49 v 5.56 h 53.02 v 5.56 h 1070.99 v 5.55 h 2114.63 v 5.56 H 930.52 v 0"
           style="fill:none;stroke:#b05b3a;stroke-width:1.07;stroke-linecap:butt;stroke-linejoin:round;stroke-miterlimit:10;stroke-dasharray:none;stroke-opacity:1"
           id="path132" /><path
           d="m 40.98,43.3 h 18.34 v 5.06 h 0.41 v 5.07 h 0.57 v 5.06 h 0.79 v 5.06 h 0.34 v 5.07 h 0.02 v 5.06 h 0.03 v 5.06 h 0.19 v 5.06 h 0.02 v 5.07 h 1.46 v 5.06 h 0.29 v 5.06 h 0.41 v 5.07 h 0.06 v 5.06 h 0.08 v 5.06 h 0.93 v 5.06 h 0.4 v 5.07 h 0.09 v 5.06 h 0.01 v 5.06 h 0.66 v 5.07 h 0.04 v 5.06 h 0.1 v 5.06 h 1.33 v 5.06 h 0.47 v 5.07 h 0.02 v 5.06 h 0.8 v 5.06 h 1.7 v 5.07 h 1.73 V 180 h 0.55 v 5.06 h 0.21 v 5.06 h 0.58 v 5.07 h 1.54 v 5.06 h 9.76 v 5.06 h 6.4 v 5.07 h 0.85 v 5.06 h 1.48 v 5.06 h 2.96 v 5.06 h 5.22 v 5.07 h 8.15 v 5.06 h 8.35 v 5.06 h 2.59 v 5.07 H 122 v 5.06 h 1.34 v 5.06 h 54.4 V 261 h 103.11 v 5.07 h 29.74 v 5.06 h 619.93 v 0"
           style="fill:none;stroke:#c76766;stroke-width:1.07;stroke-linecap:butt;stroke-linejoin:round;stroke-miterlimit:10;stroke-dasharray:none;stroke-opacity:1"
           id="path134" /><path
           d="m 40.98,43.3 h 18.34 v 28.48 h 0.11 v 28.48 h 11.33 v 28.48 h 3.56 v 28.48 h 9.51 v 28.47 h 52.78 v 28.48 h 424.12 v 28.48 h 1153.9 v 28.48 H 930.52 v 0"
           style="fill:none;stroke:#df7492;stroke-width:1.07;stroke-linecap:butt;stroke-linejoin:round;stroke-miterlimit:10;stroke-dasharray:none;stroke-opacity:1"
           id="path136" /><path
           d="m 40.98,43.3 h 18.34 v 22.78 0 22.79 h 0.09 v 22.78 h 0.02 v 22.78 h 0.06 v 22.79 H 61.7 V 180 h 51.91 v 22.78 h 2.9 v 22.78 h 35.82 v 22.79 h 355.52 v 22.78 h 422.67 v 0"
           style="fill:none;stroke:#f781bf;stroke-width:1.07;stroke-linecap:butt;stroke-linejoin:round;stroke-miterlimit:10;stroke-dasharray:none;stroke-opacity:1"
           id="path138" /><path
           d="M 261.07,31.91 V 282.52"
           style="fill:none;stroke:#000000;stroke-width:1.07;stroke-linecap:butt;stroke-linejoin:round;stroke-miterlimit:10;stroke-dasharray:1.07, 3.2;stroke-dashoffset:0;stroke-opacity:1"
           id="path140" /><path
           d="M 462.83,31.91 V 282.52"
           style="fill:none;stroke:#000000;stroke-width:1.07;stroke-linecap:butt;stroke-linejoin:round;stroke-miterlimit:10;stroke-dasharray:1.07, 3.2;stroke-dashoffset:0;stroke-opacity:1"
           id="path142" /><path
           d="M 664.58,31.91 V 282.52"
           style="fill:none;stroke:#000000;stroke-width:1.07;stroke-linecap:butt;stroke-linejoin:round;stroke-miterlimit:10;stroke-dasharray:1.07, 3.2;stroke-dashoffset:0;stroke-opacity:1"
           id="path144" /><path
           d="M 866.34,31.91 V 282.52"
           style="fill:none;stroke:#000000;stroke-width:1.07;stroke-linecap:butt;stroke-linejoin:round;stroke-miterlimit:10;stroke-dasharray:1.07, 3.2;stroke-dashoffset:0;stroke-opacity:1"
           id="path146" /></g></g><g
       id="g148" /><g
       id="g150" /><g
       id="g152" /><g
       id="g154" /><g
       id="g156" /><g
       id="g158" /><g
       id="g160" /><g
       id="g162" /><g
       id="g164" /><g
       id="g166" /><g
       id="g168" /><g
       id="g170" /><g
       id="g172" /><g
       id="g174" /><g
       id="g176" /><g
       id="g178"><text
         transform="matrix(1,0,0,-1,18.54,40.07)"
         style="font-variant:normal;font-weight:normal;font-size:9px;font-family:Helvetica;-inkscape-font-specification:Helvetica;writing-mode:lr-tb;fill:#4d4d4d;fill-opacity:1;fill-rule:nonzero;stroke:none"
         id="text182"><tspan
           x="0 5.0040002 7.506 12.51"
           y="0"
           id="tspan180">0.00</tspan></text><text
         transform="matrix(1,0,0,-1,18.54,97.03)"
         style="font-variant:normal;font-weight:normal;font-size:9px;font-family:Helvetica;-inkscape-font-specification:Helvetica;writing-mode:lr-tb;fill:#4d4d4d;fill-opacity:1;fill-rule:nonzero;stroke:none"
         id="text186"><tspan
           x="0 5.0040002 7.506 12.51"
           y="0"
           id="tspan184">0.25</tspan></text><text
         transform="matrix(1,0,0,-1,18.54,153.98)"
         style="font-variant:normal;font-weight:normal;font-size:9px;font-family:Helvetica;-inkscape-font-specification:Helvetica;writing-mode:lr-tb;fill:#4d4d4d;fill-opacity:1;fill-rule:nonzero;stroke:none"
         id="text190"><tspan
           x="0 5.0040002 7.506 12.51"
           y="0"
           id="tspan188">0.50</tspan></text><text
         transform="matrix(1,0,0,-1,18.54,210.94)"
         style="font-variant:normal;font-weight:normal;font-size:9px;font-family:Helvetica;-inkscape-font-specification:Helvetica;writing-mode:lr-tb;fill:#4d4d4d;fill-opacity:1;fill-rule:nonzero;stroke:none"
         id="text194"><tspan
           x="0 5.0040002 7.506 12.51"
           y="0"
           id="tspan192">0.75</tspan></text><text
         transform="matrix(1,0,0,-1,18.54,267.9)"
         style="font-variant:normal;font-weight:normal;font-size:9px;font-family:Helvetica;-inkscape-font-specification:Helvetica;writing-mode:lr-tb;fill:#4d4d4d;fill-opacity:1;fill-rule:nonzero;stroke:none"
         id="text198"><tspan
           x="0 5.0040002 7.506 12.51"
           y="0"
           id="tspan196">1.00</tspan></text></g><g
       id="g200" /><g
       id="g202"><path
         d="m 38.24,43.3 h 2.74"
         style="fill:none;stroke:#333333;stroke-width:1.07;stroke-linecap:butt;stroke-linejoin:round;stroke-miterlimit:10;stroke-dasharray:none;stroke-opacity:1"
         id="path204" /><path
         d="m 38.24,100.26 h 2.74"
         style="fill:none;stroke:#333333;stroke-width:1.07;stroke-linecap:butt;stroke-linejoin:round;stroke-miterlimit:10;stroke-dasharray:none;stroke-opacity:1"
         id="path206" /><path
         d="m 38.24,157.22 h 2.74"
         style="fill:none;stroke:#333333;stroke-width:1.07;stroke-linecap:butt;stroke-linejoin:round;stroke-miterlimit:10;stroke-dasharray:none;stroke-opacity:1"
         id="path208" /><path
         d="m 38.24,214.17 h 2.74"
         style="fill:none;stroke:#333333;stroke-width:1.07;stroke-linecap:butt;stroke-linejoin:round;stroke-miterlimit:10;stroke-dasharray:none;stroke-opacity:1"
         id="path210" /><path
         d="m 38.24,271.13 h 2.74"
         style="fill:none;stroke:#333333;stroke-width:1.07;stroke-linecap:butt;stroke-linejoin:round;stroke-miterlimit:10;stroke-dasharray:none;stroke-opacity:1"
         id="path212" /></g><g
       id="g214" /><g
       id="g216" /><g
       id="g218" /><g
       id="g220" /><g
       id="g222" /><g
       id="g224" /><g
       id="g226" /><g
       id="g228" /><g
       id="g230" /><g
       id="g232"><path
         d="m 59.32,29.17 v 2.74"
         style="fill:none;stroke:#333333;stroke-width:1.07;stroke-linecap:butt;stroke-linejoin:round;stroke-miterlimit:10;stroke-dasharray:none;stroke-opacity:1"
         id="path234" /><path
         d="m 280.27,29.17 v 2.74"
         style="fill:none;stroke:#333333;stroke-width:1.07;stroke-linecap:butt;stroke-linejoin:round;stroke-miterlimit:10;stroke-dasharray:none;stroke-opacity:1"
         id="path236" /><path
         d="m 501.22,29.17 v 2.74"
         style="fill:none;stroke:#333333;stroke-width:1.07;stroke-linecap:butt;stroke-linejoin:round;stroke-miterlimit:10;stroke-dasharray:none;stroke-opacity:1"
         id="path238" /><path
         d="m 722.17,29.17 v 2.74"
         style="fill:none;stroke:#333333;stroke-width:1.07;stroke-linecap:butt;stroke-linejoin:round;stroke-miterlimit:10;stroke-dasharray:none;stroke-opacity:1"
         id="path240" /></g><g
       id="g242" /><g
       id="g244"><text
         transform="matrix(1,0,0,-1,56.82,20.52)"
         style="font-variant:normal;font-weight:normal;font-size:9px;font-family:Helvetica;-inkscape-font-specification:Helvetica;writing-mode:lr-tb;fill:#4d4d4d;fill-opacity:1;fill-rule:nonzero;stroke:none"
         id="text248"><tspan
           x="0"
           y="0"
           id="tspan246">0</tspan></text><text
         transform="matrix(1,0,0,-1,272.76,20.52)"
         style="font-variant:normal;font-weight:normal;font-size:9px;font-family:Helvetica;-inkscape-font-specification:Helvetica;writing-mode:lr-tb;fill:#4d4d4d;fill-opacity:1;fill-rule:nonzero;stroke:none"
         id="text252"><tspan
           x="0 5.0040002 10.008"
           y="0"
           id="tspan250">100</tspan></text><text
         transform="matrix(1,0,0,-1,493.71,20.52)"
         style="font-variant:normal;font-weight:normal;font-size:9px;font-family:Helvetica;-inkscape-font-specification:Helvetica;writing-mode:lr-tb;fill:#4d4d4d;fill-opacity:1;fill-rule:nonzero;stroke:none"
         id="text256"><tspan
           x="0 5.0040002 10.008"
           y="0"
           id="tspan254">200</tspan></text><text
         transform="matrix(1,0,0,-1,714.66,20.52)"
         style="font-variant:normal;font-weight:normal;font-size:9px;font-family:Helvetica;-inkscape-font-specification:Helvetica;writing-mode:lr-tb;fill:#4d4d4d;fill-opacity:1;fill-rule:nonzero;stroke:none"
         id="text260"><tspan
           x="0 5.0040002 10.008"
           y="0"
           id="tspan258">300</tspan></text></g><g
       id="g262" /><g
       id="g264" /><g
       id="g266" /><g
       id="g268" /><g
       id="g270" /><g
       id="g272"><text
         transform="matrix(1,0,0,-1,305.85,7.9)"
         style="font-variant:normal;font-weight:normal;font-size:11px;font-family:Helvetica;-inkscape-font-specification:Helvetica;writing-mode:lr-tb;fill:#000000;fill-opacity:1;fill-rule:nonzero;stroke:none"
         id="text276"><tspan
           x="0 9.1630001 15.279 21.395 23.837 29.952999 36.069 39.126999 45.848 48.290001 57.452999 63.569 66.626999 74.569 77.011002 80.069 82.796997 88.913002 92.575996 98.692001 104.808 110.308 116.424 119.482 125.598 131.714 134.772 142.604 148.72 154.836 160.952 164.00999 171.347 175.175 177.617 183.117 185.55901 188.00101 194.117 200.233 206.349 212.465 218.58099 221.63901 228.976 234.201 240.317 246.433 249.491 254.991 258.04901 264.16501 270.28101 273.944 277.00201 284.944 290.73001 295.95499 302.07101 304.513 310.629 316.745 322.86099 326.52399 329.582 333.245 339.36099 345.147 350.647 356.147"
           y="0"
           id="tspan274">Median Time Difference between Priviledged Events per Developer (days)</tspan></text></g><g
       id="g278" /><g
       id="g280"><text
         transform="matrix(0,1,1,0,13.38,100.9)"
         style="font-variant:normal;font-weight:normal;font-size:11px;font-family:Helvetica;-inkscape-font-specification:Helvetica;writing-mode:lr-tb;fill:#000000;fill-opacity:1;fill-rule:nonzero;stroke:none"
         id="text284"><tspan
           x="0 7.9419999 14.058 23.111 29.226999 31.669001 37.785 40.842999 43.285 48.509998 54.625999 57.683998 65.625999 68.068001 73.568001 76.625999 80.454002 82.896004 88.792 94.907997 97.966003 100.408 106.524"
           y="0"
           id="tspan282">Cumulative Distribution</tspan></text></g><g
       id="g286" /><g
       id="g288" /><g
       id="g290" /><g
       id="g292" /><g
       id="g294" /><g
       id="g296" /><g
       id="g298" /><g
       id="g300" /><g
       id="g302" /><g
       id="g304" /><g
       id="g306" /><g
       id="g308" /></g></svg>
