<?xml version="1.0" encoding="UTF-8" standalone="no"?>
<svg
   xmlns:dc="http://purl.org/dc/elements/1.1/"
   xmlns:cc="http://creativecommons.org/ns#"
   xmlns:rdf="http://www.w3.org/1999/02/22-rdf-syntax-ns#"
   xmlns:svg="http://www.w3.org/2000/svg"
   xmlns="http://www.w3.org/2000/svg"
   version="1.1"
   id="svg2"
   xml:space="preserve"
   width="1248"
   height="384"
   viewBox="0 0 1248 384"><metadata
     id="metadata8"><rdf:RDF><cc:Work
         rdf:about=""><dc:format>image/svg+xml</dc:format><dc:type
           rdf:resource="http://purl.org/dc/dcmitype/StillImage" /></cc:Work></rdf:RDF></metadata><defs
     id="defs6"><clipPath
       clipPathUnits="userSpaceOnUse"
       id="clipPath40"><path
         d="M 0,0 H 936 V 288 H 0 Z"
         id="path38" /></clipPath><clipPath
       clipPathUnits="userSpaceOnUse"
       id="clipPath52"><path
         d="M 40.98,31.91 H 930.52 V 282.52 H 40.98 Z"
         id="path50" /></clipPath></defs><g
     id="g10"
     transform="matrix(1.3333333,0,0,-1.3333333,0,384)"><g
       id="g12"><path
         d="M 0,0 H 936 V 288 H 0 Z"
         style="fill:#ffffff;fill-opacity:1;fill-rule:nonzero;stroke:none"
         id="path14" /></g><g
       id="g16" /><g
       id="g18" /><g
       id="g20" /><g
       id="g22" /><g
       id="g24" /><g
       id="g26" /><g
       id="g28" /><g
       id="g30" /><g
       id="g32" /><g
       id="g34"><g
         id="g36"
         clip-path="url(#clipPath40)"><path
           d="M 0,0 H 936 V 288 H 0 Z"
           style="fill:#ffffff;fill-opacity:1;fill-rule:nonzero;stroke:#ffffff;stroke-width:1.07;stroke-linecap:round;stroke-linejoin:round;stroke-miterlimit:10;stroke-dasharray:none;stroke-opacity:1"
           id="path42" /></g></g><g
       id="g44" /><g
       id="g46"><g
         id="g48"
         clip-path="url(#clipPath52)"><path
           d="M 40.98,31.91 H 930.52 V 282.52 H 40.98 Z"
           style="fill:#ebebeb;fill-opacity:1;fill-rule:nonzero;stroke:none"
           id="path54" /><path
           d="M 40.98,71.78 H 930.52"
           style="fill:none;stroke:#ffffff;stroke-width:0.53;stroke-linecap:butt;stroke-linejoin:round;stroke-miterlimit:10;stroke-dasharray:none;stroke-opacity:1"
           id="path56" /><path
           d="M 40.98,128.74 H 930.52"
           style="fill:none;stroke:#ffffff;stroke-width:0.53;stroke-linecap:butt;stroke-linejoin:round;stroke-miterlimit:10;stroke-dasharray:none;stroke-opacity:1"
           id="path58" /><path
           d="M 40.98,185.69 H 930.52"
           style="fill:none;stroke:#ffffff;stroke-width:0.53;stroke-linecap:butt;stroke-linejoin:round;stroke-miterlimit:10;stroke-dasharray:none;stroke-opacity:1"
           id="path60" /><path
           d="M 40.98,242.65 H 930.52"
           style="fill:none;stroke:#ffffff;stroke-width:0.53;stroke-linecap:butt;stroke-linejoin:round;stroke-miterlimit:10;stroke-dasharray:none;stroke-opacity:1"
           id="path62" /><path
           d="M 169.8,31.91 V 282.52"
           style="fill:none;stroke:#ffffff;stroke-width:0.53;stroke-linecap:butt;stroke-linejoin:round;stroke-miterlimit:10;stroke-dasharray:none;stroke-opacity:1"
           id="path64" /><path
           d="M 390.74,31.91 V 282.52"
           style="fill:none;stroke:#ffffff;stroke-width:0.53;stroke-linecap:butt;stroke-linejoin:round;stroke-miterlimit:10;stroke-dasharray:none;stroke-opacity:1"
           id="path66" /><path
           d="M 611.69,31.91 V 282.52"
           style="fill:none;stroke:#ffffff;stroke-width:0.53;stroke-linecap:butt;stroke-linejoin:round;stroke-miterlimit:10;stroke-dasharray:none;stroke-opacity:1"
           id="path68" /><path
           d="M 832.64,31.91 V 282.52"
           style="fill:none;stroke:#ffffff;stroke-width:0.53;stroke-linecap:butt;stroke-linejoin:round;stroke-miterlimit:10;stroke-dasharray:none;stroke-opacity:1"
           id="path70" /><path
           d="M 40.98,43.3 H 930.52"
           style="fill:none;stroke:#ffffff;stroke-width:1.07;stroke-linecap:butt;stroke-linejoin:round;stroke-miterlimit:10;stroke-dasharray:none;stroke-opacity:1"
           id="path72" /><path
           d="M 40.98,100.26 H 930.52"
           style="fill:none;stroke:#ffffff;stroke-width:1.07;stroke-linecap:butt;stroke-linejoin:round;stroke-miterlimit:10;stroke-dasharray:none;stroke-opacity:1"
           id="path74" /><path
           d="M 40.98,157.22 H 930.52"
           style="fill:none;stroke:#ffffff;stroke-width:1.07;stroke-linecap:butt;stroke-linejoin:round;stroke-miterlimit:10;stroke-dasharray:none;stroke-opacity:1"
           id="path76" /><path
           d="M 40.98,214.17 H 930.52"
           style="fill:none;stroke:#ffffff;stroke-width:1.07;stroke-linecap:butt;stroke-linejoin:round;stroke-miterlimit:10;stroke-dasharray:none;stroke-opacity:1"
           id="path78" /><path
           d="M 40.98,271.13 H 930.52"
           style="fill:none;stroke:#ffffff;stroke-width:1.07;stroke-linecap:butt;stroke-linejoin:round;stroke-miterlimit:10;stroke-dasharray:none;stroke-opacity:1"
           id="path80" /><path
           d="M 59.32,31.91 V 282.52"
           style="fill:none;stroke:#ffffff;stroke-width:1.07;stroke-linecap:butt;stroke-linejoin:round;stroke-miterlimit:10;stroke-dasharray:none;stroke-opacity:1"
           id="path82" /><path
           d="M 280.27,31.91 V 282.52"
           style="fill:none;stroke:#ffffff;stroke-width:1.07;stroke-linecap:butt;stroke-linejoin:round;stroke-miterlimit:10;stroke-dasharray:none;stroke-opacity:1"
           id="path84" /><path
           d="M 501.22,31.91 V 282.52"
           style="fill:none;stroke:#ffffff;stroke-width:1.07;stroke-linecap:butt;stroke-linejoin:round;stroke-miterlimit:10;stroke-dasharray:none;stroke-opacity:1"
           id="path86" /><path
           d="M 722.17,31.91 V 282.52"
           style="fill:none;stroke:#ffffff;stroke-width:1.07;stroke-linecap:butt;stroke-linejoin:round;stroke-miterlimit:10;stroke-dasharray:none;stroke-opacity:1"
           id="path88" /><path
           d="m 40.98,43.3 h 18.34 v 2.35 0 2.35 0 4.7 0 2.35 0 2.34 0 2.35 0 2.35 0 2.35 0 2.35 0 2.35 0 2.35 0 2.35 0 2.34 0 2.35 0 2.35 0 2.35 0 2.35 0 2.35 0 2.35 0 2.35 0 2.34 0 2.35 h 0.01 v 2.35 0 2.35 0 2.35 0 2.35 0 2.35 0 2.35 0 2.34 0 2.35 0 2.35 0 2.35 0 2.35 0 2.35 0 2.35 0 2.35 h 0.01 v 2.34 0 2.35 h 0.01 v 2.35 h 0.02 v 2.35 0 2.35 h 0.01 v 2.35 h 0.01 v 2.35 0 2.35 0 2.34 0 2.35 0 2.35 0 2.35 h 0.01 v 2.35 0 2.35 h 0.01 v 2.35 0 2.34 0 2.35 h 0.01 v 2.35 0 2.35 0 2.35 h 0.03 v 2.35 h 0.01 v 2.35 0 2.35 h 0.01 v 2.34 0 2.35 h 0.01 v 2.35 h 0.01 v 2.35 h 0.06 v 2.35 h 0.02 v 2.35 h 0.01 v 2.35 h 0.02 v 2.35 h 0.02 v 2.34 h 0.02 v 2.35 h 0.07 v 2.35 h 0.04 v 2.35 h 0.05 v 2.35 0 2.35 h 0.14 v 2.35 h 0.43 v 2.35 h 0.07 v 2.34 h 0.01 v 2.35 h 0.11 v 2.35 h 0.01 v 2.35 H 61 v 2.35 h 0.42 v 2.35 h 1.31 v 2.35 h 0.93 v 2.35 h 0.73 v 2.34 h 0.93 v 2.35 h 0.33 v 2.35 h 0.78 v 2.35 h 0.27 v 2.35 h 0.19 v 2.35 h 2.96 v 2.35 h 8.09 v 2.35 h 4.11 v 2.34 h 1.47 v 2.35 h 5.96 v 2.35 h 58.43 v 2.35 h 1758.82 v 2.35 H 930.52 v 0"
           style="fill:none;stroke:#e41a1c;stroke-width:1.07;stroke-linecap:butt;stroke-linejoin:round;stroke-miterlimit:10;stroke-dasharray:none;stroke-opacity:1"
           id="path90" /><path
           d="m 40.98,43.3 h 18.34 v 3.12 h 0.01 v 3.12 0 3.12 h 0.01 v 3.13 0 3.12 0 3.12 0 3.12 0 3.12 0 3.12 0 3.12 0 3.12 h 0.03 v 3.12 0 3.12 0 3.12 h 0.01 v 3.13 h 0.01 v 3.12 0 3.12 h 0.02 v 3.12 0 3.12 h 0.02 v 3.12 0 3.12 0 3.12 h 0.14 v 3.12 h 0.01 v 3.12 h 0.01 v 3.13 0 3.12 h 0.13 v 3.12 h 0.05 v 3.12 h 0.13 v 3.12 h 0.03 v 3.12 h 0.1 v 3.12 h 0.06 v 3.12 h 0.04 v 3.12 h 0.24 v 3.12 h 0.18 v 3.12 h 0.31 v 3.13 h 0.26 v 3.12 h 0.05 v 3.12 h 0.02 v 3.12 h 0.05 v 3.12 h 0.11 v 3.12 h 0.25 v 3.12 h 0.01 v 3.12 h 0.13 v 3.12 h 1.62 v 3.12 h 0.21 v 3.12 h 0.49 v 3.13 h 0.15 v 3.12 h 0.35 v 3.12 h 1.75 v 3.12 h 1.08 v 3.12 h 0.29 v 3.12 h 0.08 v 3.12 h 0.29 v 3.12 h 2.19 v 3.12 h 2.24 v 3.12 h 1 v 3.12 h 1.78 v 3.13 h 3.22 v 3.12 h 2.88 v 3.12 h 4.17 v 3.12 h 4.04 v 3.12 h 83.21 v 3.12 h 25.5 v 3.12 h 15.71 v 3.12 h 17.97 v 3.12 h 10.99 v 3.12 h 50.08 v 3.12 h 29.35 v 3.13 h 17.26 v 3.12 h 118.44 v 3.12 h 116.2 v 3.12 h 119.25 v 3.12 h 236.99 v 0"
           style="fill:none;stroke:#b13749;stroke-width:1.07;stroke-linecap:butt;stroke-linejoin:round;stroke-miterlimit:10;stroke-dasharray:none;stroke-opacity:1"
           id="path92" /><path
           d="m 40.98,43.3 h 18.34 v 6.51 0 13.02 h 0.01 v 6.51 0 6.51 0 6.51 0 6.51 0 6.51 0 6.51 h 0.01 v 6.51 h 0.02 v 6.5 h 0.02 v 6.51 h 0.01 v 6.51 h 0.02 v 6.51 h 0.07 v 6.51 h 0.03 v 6.51 h 0.03 v 6.51 0 6.51 h 0.17 v 6.51 h 0.04 v 6.51 h 0.13 V 180 h 0.09 v 6.51 h 0.34 v 6.51 h 0.75 v 6.51 h 0.54 v 6.51 h 8.22 v 6.51 h 1.56 v 6.5 h 3.43 v 6.51 h 20.9 v 6.51 h 21.51 v 6.51 h 27.91 v 6.51 h 0.4 v 6.51 h 24.24 v 6.51 h 8.7 v 6.51 h 19.59 v 6.51 h 732.46 v 0"
           style="fill:none;stroke:#7f5477;stroke-width:1.07;stroke-linecap:butt;stroke-linejoin:round;stroke-miterlimit:10;stroke-dasharray:none;stroke-opacity:1"
           id="path94" /><path
           d="m 40.98,43.3 h 18.35 v 28.48 0 28.48 h 0.01 v 28.48 h 0.14 v 28.48 h 0.11 v 28.47 h 1.91 v 28.48 h 0.36 v 28.48 h 42.04 v 28.48 h 826.62 v 0"
           style="fill:none;stroke:#4c71a4;stroke-width:1.07;stroke-linecap:butt;stroke-linejoin:round;stroke-miterlimit:10;stroke-dasharray:none;stroke-opacity:1"
           id="path96" /><path
           d="m 40.98,43.3 h 18.34 v 17.53 h 0.17 v 17.52 h 0.09 v 17.53 h 0.01 v 17.52 h 1.46 v 17.53 0 17.52 h 0.41 v 17.53 h 3.85 v 17.52 h 0.67 v 17.53 h 1.21 v 17.52 h 1 v 17.53 h 24.05 v 17.52 h 172.89 v 17.53 h 665.39 v 0"
           style="fill:none;stroke:#3a86a5;stroke-width:1.07;stroke-linecap:butt;stroke-linejoin:round;stroke-miterlimit:10;stroke-dasharray:none;stroke-opacity:1"
           id="path98" /><path
           d="m 40.98,43.3 h 18.34 v 3.12 0 3.12 0 3.12 0 3.13 0 3.12 0 3.12 h 0.01 v 3.12 h 0.01 v 3.12 0 3.12 h 0.01 v 3.12 0 3.12 h 0.01 v 3.12 h 0.01 v 3.12 h 0.02 v 3.12 0 3.13 h 0.03 v 3.12 0 3.12 h 0.01 v 3.12 h 0.05 v 3.12 h 0.01 v 3.12 h 0.03 v 3.12 h 0.04 v 3.12 h 0.07 v 3.12 0 3.12 h 0.01 v 3.13 h 0.09 v 3.12 h 0.01 v 3.12 h 0.11 v 3.12 h 0.11 v 3.12 h 0.23 v 3.12 h 0.23 v 3.12 h 0.5 v 3.12 h 0.18 v 3.12 h 0.12 v 3.12 h 0.27 v 3.12 h 0.03 v 3.13 h 0.23 v 3.12 h 0.39 v 3.12 h 0.31 v 3.12 h 0.48 v 3.12 h 0.54 v 3.12 h 0.2 v 3.12 h 2.04 v 3.12 h 0.2 v 3.12 h 0.29 v 3.12 h 1.55 v 3.12 h 0.4 v 3.13 h 2.93 v 3.12 h 5.69 v 3.12 h 0.24 v 3.12 h 3.46 v 3.12 h 0.67 v 3.12 h 2.39 v 3.12 h 0.16 v 3.12 h 1.38 v 3.12 h 1.94 v 3.12 h 5.24 v 3.12 h 7.8 v 3.13 h 7.74 v 3.12 h 23.39 v 3.12 h 10.04 v 3.12 h 9.96 v 3.12 h 23.51 v 3.12 h 6.96 v 3.12 h 9.07 v 3.12 h 11.93 v 3.12 h 20.34 v 3.12 h 60.4 v 3.12 h 330.77 v 3.13 h 41.53 v 3.12 H 835.4 v 3.12 h 159.97 v 3.12 h 90.69 v 3.12 H 930.52 v 0"
           style="fill:none;stroke:#419485;stroke-width:1.07;stroke-linecap:butt;stroke-linejoin:round;stroke-miterlimit:10;stroke-dasharray:none;stroke-opacity:1"
           id="path100" /><path
           d="m 40.98,43.3 h 18.34 v 0.61 0 1.23 0 0.61 0 0.61 0 1.23 0 0.61 0 0.61 0 0.62 0 0.61 0 0.61 0 1.23 0 1.22 0 0.61 0 0.62 0 0.61 0 0.61 0 1.23 0 0.61 0 0.61 0 0.61 0 0.62 h 0.01 v 0.61 0 0.61 0 0.61 0 0.62 0 0.61 0 0.61 0 0.61 0 0.61 0 0.62 0 0.61 0 0.61 0 0.61 0 0.62 0 0.61 0 0.61 0 0.61 0 0.62 0 0.61 0 0.61 0 0.61 0 0.62 0 0.61 0 0.61 0 0.61 0 0.62 0 0.61 0 0.61 0 0.61 0 0.62 0 0.61 0 0.61 h 0.01 v 0.61 0 0.62 0 0.61 0 0.61 0 0.61 0 0.62 0 0.61 0 0.61 0 0.61 h 0.01 v 0.62 0 0.61 0 0.61 h 0.01 v 0.61 0 0.62 0 0.61 h 0.01 v 0.61 0 0.61 0 0.61 0 0.62 h 0.01 v 0.61 0 0.61 0 0.61 h 0.01 v 0.62 0 0.61 0 0.61 0 0.61 h 0.01 v 0.62 0 0.61 0 0.61 0 0.61 h 0.01 v 0.62 0 0.61 h 0.01 v 0.61 0 0.61 h 0.01 v 0.62 0 0.61 h 0.01 v 0.61 h 0.01 v 0.61 h 0.04 v 0.62 0 0.61 h 0.02 v 0.61 0 0.61 h 0.01 v 0.62 0 0.61 h 0.01 v 0.61 h 0.02 v 0.61 h 0.01 V 107 h 0.02 v 0.61 h 0.01 v 0.61 h 0.02 v 0.61 h 0.02 v 0.62 0 0.61 0 0.61 h 0.01 v 0.61 h 0.04 v 0.62 h 0.02 v 0.61 h 0.03 v 0.61 0 0.61 h 0.01 v 0.61 h 0.02 v 0.62 h 0.03 v 0.61 h 0.06 v 0.61 h 0.06 v 0.61 h 0.02 v 0.62 h 0.03 v 0.61 h 0.05 v 0.61 h 0.06 v 0.61 h 0.02 v 0.62 h 0.1 v 0.61 h 0.16 v 0.61 h 0.02 v 0.61 h 0.02 v 0.62 h 0.01 v 0.61 h 0.03 v 0.61 0 0.61 h 0.13 v 0.62 h 0.1 v 0.61 h 0.05 v 0.61 h 0.01 v 0.61 h 0.16 v 0.62 h 0.05 v 0.61 h 0.01 v 0.61 h 0.04 v 0.61 H 61 v 0.62 h 0.05 v 0.61 h 0.06 v 0.61 h 0.08 v 0.61 h 0.01 v 0.62 h 0.01 v 0.61 0 0.61 h 0.09 v 0.61 h 0.05 v 0.62 h 0.02 v 0.61 h 0.02 v 0.61 h 0.11 v 0.61 h 0.05 v 0.62 h 0.01 v 0.61 h 0.04 v 0.61 h 0.11 v 0.61 h 0.03 v 0.61 h 0.01 v 0.62 0 0.61 h 0.19 v 0.61 h 0.02 v 0.61 h 0.64 v 0.62 h 0.12 v 0.61 h 0.35 v 0.61 h 0.26 v 0.61 h 0.03 v 0.62 h 0.06 v 0.61 h 0.13 v 0.61 0 0.61 h 0.04 v 0.62 h 0.05 v 0.61 h 0.07 v 0.61 h 0.03 v 0.61 h 0.17 v 0.62 H 64 v 0.61 h 0.1 v 0.61 h 0.03 v 0.61 h 0.16 v 0.62 h 0.12 v 0.61 h 0.3 v 0.61 h 0.58 v 0.61 h 0.01 v 0.62 h 0.21 v 0.61 h 0.28 v 0.61 h 0.01 v 0.61 h 0.07 v 0.62 h 0.06 v 0.61 h 0.03 v 0.61 H 66 v 0.61 h 0.03 v 0.62 h 0.02 v 0.61 h 0.35 v 0.61 h 0.03 v 0.61 h 0.97 v 0.62 h 0.58 v 0.61 h 0.11 v 0.61 h 0.04 v 0.61 h 0.12 v 0.61 h 0.12 v 0.62 h 0.55 v 0.61 h 0.07 v 0.61 h 0.4 v 0.61 h 0.09 v 0.62 h 0.25 v 0.61 h 0.12 v 0.61 h 0.55 v 0.61 h 0.09 v 0.62 h 1.13 v 0.61 h 0.06 v 0.61 h 0.09 v 0.61 h 0.14 v 0.62 h 0.36 v 0.61 h 0.05 v 0.61 h 0.04 v 0.61 h 0.07 v 0.62 h 0.42 v 0.61 h 0.43 v 0.61 h 0.95 v 0.61 h 0.14 v 0.62 h 0.16 v 0.61 h 0.2 v 0.61 h 0.84 v 0.61 h 0.39 v 0.62 h 0.44 v 0.61 h 0.23 v 0.61 h 1.12 v 0.61 h 0.01 v 0.62 h 0.2 v 0.61 h 1.34 v 0.61 h 0.08 v 0.61 h 0.09 v 0.62 h 3.28 v 0.61 H 83.6 V 186 h 0.04 v 0.61 h 0.25 v 0.62 h 0.78 v 0.61 h 0.45 v 0.61 h 2.43 v 0.61 h 0.67 v 0.61 h 0.35 v 0.62 h 0.58 v 0.61 h 0.35 v 0.61 h 1.22 v 0.61 h 1.32 v 0.62 h 0.43 v 0.61 h 0.06 v 0.61 h 1.81 v 0.61 h 0.32 v 0.62 h 0.43 v 0.61 h 1.52 v 0.61 h 2.14 v 0.61 h 0.23 v 0.62 h 0.63 v 0.61 h 0.46 v 0.61 h 1.15 v 0.61 h 1.3 v 0.62 h 1.37 v 0.61 h 0.52 v 0.61 h 0.05 v 0.61 h 0.01 v 0.62 h 1.13 v 0.61 h 0.13 v 0.61 h 0.04 v 0.61 h 0.19 v 0.62 h 1.23 v 0.61 h 0.85 v 0.61 h 4.38 v 0.61 h 2.12 v 0.62 h 4.22 v 0.61 h 4.98 v 0.61 h 0.76 v 0.61 h 0.02 v 0.62 h 0.32 v 0.61 h 0.95 v 0.61 h 1.95 v 0.61 h 2.3 v 0.62 h 2.31 v 0.61 h 0.09 v 0.61 h 0.03 v 0.61 h 0.8 v 0.61 h 1.08 v 0.62 h 2.17 v 0.61 h 0.47 v 0.61 h 1.76 v 0.61 h 1.37 v 0.62 h 3.23 v 0.61 h 6.53 v 0.61 h 0.13 v 0.61 h 4.38 v 0.62 h 0.17 v 0.61 h 2.07 v 0.61 h 2.29 v 0.61 h 3.21 v 0.62 h 0.54 v 0.61 h 0.59 v 0.61 h 1.7 v 0.61 h 2.66 v 0.62 h 3.74 v 0.61 h 4.07 v 0.61 h 0.74 v 0.61 h 0.25 v 0.62 h 4.32 v 0.61 h 4.6 v 0.61 h 0.09 v 0.61 h 1.81 v 0.62 h 3.64 v 0.61 h 4.74 v 0.61 h 1.97 v 0.61 h 5.25 v 0.62 h 4.9 v 0.61 h 8.21 v 0.61 h 2.51 v 0.61 h 1.73 V 235 h 2.89 v 0.61 h 1.39 v 0.61 h 3.46 v 0.61 h 0.1 v 0.62 h 6.09 v 0.61 h 2.1 v 0.61 h 0.79 v 0.61 h 6.02 v 0.61 h 9.18 v 0.62 h 1.23 v 0.61 h 1.83 v 0.61 h 6.58 v 0.61 h 1.26 v 0.62 h 1.88 v 0.61 h 3.97 v 0.61 h 2.68 v 0.61 h 4.67 v 0.62 h 3.24 v 0.61 h 2.37 v 0.61 h 3.4 v 0.61 h 10.29 v 0.62 H 298 v 0.61 h 0.2 v 0.61 h 3.58 v 0.61 h 0.48 v 0.62 h 0.22 v 0.61 h 1.62 v 0.61 h 0.37 v 0.61 h 16.42 v 0.62 h 5.95 v 0.61 h 1.84 v 0.61 h 4.69 v 0.61 h 7.42 v 0.62 h 3.45 v 0.61 h 20.47 v 0.61 h 4.47 v 0.61 h 6.56 v 0.62 h 2.32 v 0.61 h 14.58 v 0.61 h 10.31 v 0.61 h 5.4 v 0.62 h 2.48 v 0.61 h 18.11 v 0.61 h 5.08 v 0.61 h 30.7 v 0.62 h 7.23 v 0.61 h 20.64 v 0.61 h 9.86 v 0.61 h 18.96 V 265 h 5.62 v 0.62 h 51.94 v 0.61 h 18.15 v 0.61 h 45.05 v 0.61 h 55.23 v 0.62 h 17.91 v 0.61 h 240.12 v 0.61 h 248.64 v 0.61 h 232.06 v 0.62 h 233.52 v 0.61 H 930.52 v 0"
           style="fill:none;stroke:#47a265;stroke-width:1.07;stroke-linecap:butt;stroke-linejoin:round;stroke-miterlimit:10;stroke-dasharray:none;stroke-opacity:1"
           id="path102" /><path
           d="m 40.98,43.3 h 18.35 v 17.53 0 17.52 0 17.53 h 0.01 v 17.52 h 0.01 v 17.53 0 17.52 h 1.47 v 17.53 h 1.65 v 17.52 h 18.89 v 17.53 h 1.45 v 17.52 h 19.22 v 17.53 h 74.21 v 17.52 h 1156.79 v 17.53 H 930.52 v 0"
           style="fill:none;stroke:#50aa4d;stroke-width:1.07;stroke-linecap:butt;stroke-linejoin:round;stroke-miterlimit:10;stroke-dasharray:none;stroke-opacity:1"
           id="path104" /><path
           d="m 40.98,43.3 h 18.34 v 13.4 0 13.41 0 13.4 0 13.4 0 13.4 h 0.01 v 13.4 0 13.4 0 13.4 h 0.44 v 13.41 h 0.55 v 13.4 h 1.53 v 13.4 h 4.31 v 13.4 h 6.93 v 13.4 h 1.59 v 13.4 h 21.29 v 13.41 h 139.25 v 13.4 h 15.01 v 13.4 h 680.29 v 0"
           style="fill:none;stroke:#658e67;stroke-width:1.07;stroke-linecap:butt;stroke-linejoin:round;stroke-miterlimit:10;stroke-dasharray:none;stroke-opacity:1"
           id="path106" /><path
           d="m 40.98,43.3 h 18.34 v 1.37 0 0.78 0 0.39 0 0.2 0 0.2 0 0.39 0 0.19 0 0.39 0 0.2 0 0.19 0 0.2 0 0.2 0 0.19 0 0.2 0 0.19 0 0.2 0 0.58 0 0.2 0 0.2 0 0.19 0 0.2 0 0.19 0 0.2 0 0.19 0 0.2 0 0.19 0 0.2 0 0.2 0 0.19 0 0.2 0 0.19 0 0.2 0 0.19 0 0.39 0 0.2 0 0.2 0 0.19 0 0.39 0 0.2 0 0.19 0 0.2 0 0.19 0 0.2 0 0.2 0 0.19 h 0.01 v 0.2 0 0.19 0 0.2 0 0.19 0 0.2 0 0.19 0 0.2 0 0.2 0 0.19 0 0.2 0 0.19 0 0.2 0 0.19 0 0.2 0 0.19 0 0.2 0 0.2 0 0.19 0 0.2 0 0.19 0 0.2 0 0.19 0 0.2 0 0.19 0 0.2 0 0.2 0 0.19 0 0.39 0 0.2 0 0.19 0 0.2 0 0.19 0 0.2 0 0.2 0 0.19 0 0.2 0 0.19 0 0.2 0 0.19 0 0.2 0 0.19 0 0.2 0 0.2 h 0.01 v 0.19 0 0.2 0 0.19 0 0.2 0 0.19 0 0.2 0 0.19 0 0.2 0 0.2 0 0.39 0 0.19 0 0.2 0 0.19 0 0.2 0 0.19 0 0.2 0 0.2 0 0.19 0 0.2 0 0.19 0 0.2 0 0.19 0 0.2 0 0.19 0 0.2 0 0.2 0 0.19 0 0.2 0 0.19 0 0.2 0 0.19 0 0.2 0 0.39 0 0.2 0 0.19 0 0.2 0 0.19 0 0.2 0 0.19 h 0.01 v 0.2 0 0.19 0 0.2 0 0.2 0 0.39 0 0.19 0 0.2 0 0.19 0 0.2 h 0.01 v 0.19 0 0.2 0 0.2 0 0.19 0 0.2 0 0.19 0 0.2 0 0.19 0 0.2 0 0.19 0 0.2 h 0.01 v 0.2 0 0.19 0 0.2 0 0.19 0 0.2 0 0.19 0 0.2 0 0.2 0 0.19 0 0.2 0 0.19 h 0.01 v 0.2 0 0.19 0 0.2 0 0.19 0 0.2 0 0.2 0 0.19 0 0.2 h 0.01 v 0.19 0 0.2 h 0.01 v 0.19 0 0.2 0 0.19 0 0.2 0 0.2 0 0.19 h 0.01 v 0.2 0 0.19 h 0.01 v 0.2 0 0.19 h 0.01 v 0.2 0 0.19 h 0.01 v 0.2 0 0.2 0 0.19 h 0.01 v 0.2 0 0.19 0 0.2 h 0.01 v 0.19 0 0.2 0 0.19 h 0.01 v 0.2 0 0.2 0 0.19 0 0.2 h 0.01 v 0.19 0 0.2 0 0.19 0 0.2 h 0.01 v 0.19 0 0.2 0 0.2 0 0.19 h 0.03 v 0.2 0 0.19 h 0.01 v 0.2 0 0.19 0 0.2 h 0.02 v 0.19 h 0.02 v 0.2 0 0.2 h 0.01 v 0.19 h 0.01 v 0.2 h 0.01 v 0.19 0 0.2 h 0.01 v 0.19 h 0.02 v 0.2 h 0.01 v 0.19 h 0.01 v 0.2 0 0.2 h 0.06 v 0.19 h 0.03 v 0.2 h 0.03 v 0.19 h 0.03 v 0.2 h 0.01 v 0.19 h 0.02 v 0.2 h 0.02 v 0.19 h 0.08 v 0.2 h 0.01 v 0.2 0 0.19 h 0.14 V 92 h 0.09 v 0.19 h 0.07 v 0.2 h 0.08 v 0.19 h 0.01 v 0.2 h 0.01 v 0.19 h 0.03 v 0.2 h 0.01 v 0.2 h 0.03 v 0.19 h 0.08 v 0.2 h 0.09 v 0.19 h 0.07 v 0.2 h 0.03 v 0.19 h 0.06 v 0.2 h 0.06 v 0.19 h 0.07 v 0.2 h 0.01 v 0.2 h 0.1 v 0.19 H 61 v 0.2 h 0.08 v 0.19 0 0.2 h 0.03 v 0.19 0 0.2 h 0.05 v 0.19 h 0.01 v 0.2 h 0.01 v 0.2 h 0.03 v 0.19 0 0.2 h 0.03 v 0.19 h 0.02 v 0.2 0 0.19 h 0.03 v 0.2 h 0.03 v 0.19 h 0.02 v 0.2 h 0.02 v 0.2 h 0.04 v 0.19 h 0.01 v 0.2 h 0.03 v 0.19 h 0.02 v 0.2 h 0.04 v 0.19 h 0.01 v 0.2 h 0.1 v 0.19 h 0.08 v 0.2 0 0.2 h 0.02 v 0.19 h 0.01 v 0.2 0 0.19 h 0.02 v 0.2 h 0.03 v 0.19 0 0.2 h 0.1 v 0.19 h 0.02 v 0.2 h 0.01 v 0.2 h 0.03 v 0.19 h 0.26 v 0.2 h 0.15 v 0.19 h 0.11 v 0.2 h 0.02 v 0.19 h 0.02 v 0.2 h 0.16 v 0.19 h 0.12 v 0.2 h 0.09 v 0.2 h 0.28 v 0.19 h 0.06 v 0.2 h 0.14 v 0.19 h 0.01 v 0.2 h 0.15 v 0.19 h 0.06 v 0.2 h 0.09 v 0.19 h 0.02 v 0.2 h 0.07 v 0.2 h 0.03 v 0.19 h 0.01 v 0.2 h 0.04 v 0.19 0 0.2 h 0.09 v 0.19 h 0.04 v 0.2 h 0.04 v 0.19 h 0.11 v 0.2 h 0.02 v 0.2 h 0.63 v 0.19 h 0.15 v 0.2 h 0.04 v 0.19 h 0.08 v 0.2 h 0.11 v 0.19 h 0.29 v 0.2 h 0.05 v 0.19 h 0.07 v 0.2 h 0.22 v 0.2 h 0.11 v 0.19 h 0.04 v 0.2 h 0.01 v 0.19 h 0.04 v 0.2 0 0.19 h 0.09 v 0.2 h 0.08 v 0.19 h 0.05 v 0.2 h 0.06 v 0.2 h 0.09 v 0.19 h 0.03 v 0.2 h 0.02 v 0.19 h 0.23 v 0.2 h 0.1 v 0.19 h 0.04 v 0.2 h 0.3 v 0.19 h 0.08 v 0.2 h 0.25 v 0.2 h 0.02 v 0.19 h 0.37 v 0.2 h 0.04 v 0.19 h 0.01 v 0.2 h 0.05 v 0.19 0 0.2 h 0.1 v 0.19 h 0.09 v 0.2 0 0.2 h 0.04 v 0.19 0 0.2 h 0.28 v 0.19 h 0.17 v 0.2 h 0.04 v 0.19 h 0.26 v 0.2 h 0.02 v 0.19 h 0.1 v 0.2 h 0.04 v 0.2 h 0.01 v 0.19 h 0.45 v 0.2 h 0.14 v 0.19 h 0.03 v 0.2 h 0.02 v 0.19 h 0.28 v 0.2 h 0.22 v 0.19 h 0.06 v 0.2 h 0.01 v 0.2 0 0.19 h 0.03 v 0.2 h 0.01 v 0.19 h 0.07 v 0.2 h 0.09 v 0.19 0 0.2 h 0.01 v 0.19 h 0.02 v 0.2 h 0.3 v 0.2 h 0.08 v 0.19 h 0.49 v 0.2 h 0.07 v 0.19 h 0.05 v 0.2 h 0.08 v 0.19 h 0.01 v 0.2 h 0.45 v 0.19 h 0.12 v 0.2 h 0.04 v 0.2 h 0.03 v 0.19 h 0.06 v 0.2 h 0.02 v 0.19 h 0.09 v 0.2 h 0.02 v 0.19 h 0.04 v 0.2 h 0.09 v 0.19 h 0.35 v 0.2 h 0.01 v 0.2 h 0.04 v 0.19 h 0.4 v 0.2 h 0.69 v 0.19 h 0.25 v 0.2 h 0.06 v 0.19 h 0.16 v 0.2 h 0.05 v 0.19 h 0.15 v 0.2 0 0.2 h 0.1 v 0.19 0 0.2 H 75 v 0.19 h 0.16 v 0.2 h 0.15 v 0.19 h 0.3 v 0.2 h 0.35 v 0.19 h 0.26 v 0.2 h 0.34 v 0.2 h 0.08 V 127 h 0.12 v 0.2 H 77 v 0.19 h 0.05 v 0.2 h 0.01 v 0.19 h 0.1 v 0.2 h 0.01 v 0.19 h 0.11 v 0.2 h 0.19 v 0.2 h 0.16 v 0.19 h 0.28 v 0.2 h 0.36 v 0.19 h 0.33 v 0.2 h 0.16 v 0.19 h 0.33 v 0.2 h 0.13 v 0.2 h 0.01 v 0.19 h 0.12 v 0.2 h 0.08 v 0.19 h 0.02 v 0.2 h 0.02 v 0.19 h 0.01 v 0.2 h 0.04 v 0.19 h 0.13 v 0.2 h 1.12 v 0.2 h 0.01 v 0.19 h 0.59 v 0.2 h 0.03 v 0.19 h 0.03 v 0.2 h 0.07 v 0.19 h 0.03 v 0.2 h 0.01 v 0.19 h 0.04 v 0.2 h 0.03 v 0.2 h 0.11 v 0.19 h 0.15 v 0.2 h 0.32 v 0.19 h 0.2 v 0.2 h 0.12 v 0.19 h 0.02 v 0.2 h 0.22 v 0.19 h 0.02 v 0.2 h 0.14 v 0.2 h 0.22 v 0.19 h 0.02 v 0.2 h 0.23 v 0.19 h 0.01 v 0.2 h 0.05 v 0.19 0 0.2 h 0.09 v 0.19 h 0.11 v 0.2 h 0.4 v 0.2 h 0.09 v 0.19 h 0.4 v 0.2 h 0.1 v 0.19 h 0.16 v 0.2 0 0.19 h 0.17 v 0.2 h 0.4 v 0.19 h 0.09 v 0.2 h 0.11 v 0.2 h 0.03 v 0.19 h 0.36 v 0.2 h 0.07 v 0.19 h 0.21 v 0.2 h 0.02 v 0.19 h 0.12 v 0.2 h 0.05 v 0.19 h 1.11 v 0.2 h 0.49 v 0.2 h 0.02 v 0.19 h 0.14 v 0.2 h 0.03 v 0.19 h 0.08 v 0.2 h 0.38 v 0.19 h 0.05 v 0.2 h 0.05 v 0.19 h 0.09 v 0.2 h 0.76 v 0.2 h 0.06 v 0.19 h 0.07 v 0.2 h 0.17 v 0.19 h 0.09 v 0.2 h 0.33 v 0.19 h 0.05 v 0.2 h 0.01 v 0.19 h 0.13 v 0.2 h 0.01 v 0.2 h 0.12 v 0.19 h 0.24 v 0.2 h 0.29 v 0.19 h 0.27 v 0.2 h 0.01 v 0.19 h 0.42 v 0.2 h 0.21 v 0.19 h 0.08 v 0.2 h 0.01 v 0.2 h 0.24 v 0.19 h 0.05 v 0.2 0 0.19 h 0.2 v 0.2 h 0.36 v 0.19 h 0.05 v 0.2 h 0.3 v 0.19 h 0.09 v 0.2 h 0.99 v 0.2 h 0.11 v 0.19 h 0.08 v 0.2 h 0.03 v 0.19 h 0.17 v 0.2 H 95 v 0.19 h 0.12 v 0.2 h 0.91 v 0.19 h 0.1 v 0.2 h 0.23 v 0.2 h 0.17 v 0.19 h 0.27 v 0.2 h 0.07 v 0.19 h 0.17 v 0.2 h 0.08 v 0.19 h 0.14 v 0.2 h 0.6 v 0.19 h 0.19 v 0.2 h 0.03 v 0.2 h 0.1 v 0.19 h 0.41 v 0.2 h 0.49 v 0.19 h 0.07 v 0.2 h 0.15 v 0.19 h 0.08 v 0.2 h 0.81 v 0.19 h 2.58 v 0.2 h 0.57 v 0.2 h 0.22 v 0.19 0 0.2 h 0.05 v 0.19 h 0.01 v 0.2 h 0.07 v 0.19 h 0.38 v 0.2 h 0.38 v 0.19 h 0.31 v 0.2 h 0.65 v 0.2 h 0.02 v 0.19 h 0.01 v 0.2 h 0.04 v 0.19 h 0.07 v 0.2 h 0.16 v 0.19 h 0.14 v 0.2 h 0.16 v 0.19 0 0.2 h 0.16 v 0.2 h 0.11 v 0.19 h 0.74 v 0.2 h 0.32 v 0.19 h 0.4 v 0.2 h 0.2 v 0.19 h 0.5 v 0.2 h 0.22 v 0.19 h 0.12 v 0.2 h 0.02 v 0.2 h 0.35 v 0.19 h 0.74 v 0.2 0 0.19 h 0.17 v 0.2 h 0.08 v 0.19 h 0.08 v 0.2 h 0.98 v 0.19 h 0.03 v 0.2 h 0.12 v 0.2 h 0.17 v 0.19 h 0.06 v 0.2 h 0.3 v 0.19 h 0.04 v 0.2 h 0.16 v 0.19 h 0.2 v 0.2 h 0.01 v 0.19 h 0.32 v 0.2 h 0.74 v 0.2 h 1.12 v 0.19 h 1.84 v 0.2 h 0.01 v 0.19 h 0.06 v 0.2 h 0.33 v 0.19 h 0.64 v 0.2 h 0.24 v 0.19 h 0.16 v 0.2 h 0.16 v 0.2 h 0.44 v 0.19 h 0.39 v 0.2 h 0.09 v 0.19 h 0.03 v 0.2 h 0.13 v 0.19 h 0.02 v 0.2 h 0.83 v 0.19 h 0.26 v 0.2 h 0.39 v 0.2 h 0.23 v 0.19 h 0.5 v 0.2 h 0.28 v 0.19 h 0.01 v 0.2 h 0.07 v 0.19 h 1.53 v 0.2 h 0.08 v 0.19 h 0.34 v 0.2 h 0.39 v 0.2 h 0.61 v 0.19 h 0.09 v 0.2 h 0.08 v 0.19 h 0.06 v 0.2 h 0.07 v 0.19 h 0.68 v 0.2 h 0.29 v 0.19 h 0.38 v 0.2 h 0.35 v 0.2 h 0.24 v 0.19 h 0.54 v 0.2 h 0.53 v 0.19 h 0.31 v 0.2 h 0.27 v 0.19 h 0.42 v 0.2 h 0.63 v 0.19 h 0.05 v 0.2 h 0.34 v 0.2 h 0.19 v 0.19 h 0.06 v 0.2 h 0.12 V 171 h 0.09 v 0.2 0 0.19 h 0.17 v 0.2 h 0.02 v 0.19 h 0.54 v 0.2 h 0.06 v 0.2 h 0.34 v 0.19 h 0.29 v 0.2 h 0.31 v 0.19 h 0.06 v 0.2 h 1.62 v 0.19 h 0.57 v 0.2 h 0.01 v 0.19 h 0.02 v 0.2 h 0.16 v 0.2 h 0.34 v 0.19 h 0.23 v 0.2 h 0.84 v 0.19 h 0.36 v 0.2 h 0.04 v 0.19 h 0.08 v 0.2 h 0.59 v 0.19 h 0.11 v 0.2 h 1.44 v 0.2 h 0.45 v 0.19 h 0.31 v 0.2 h 0.26 v 0.19 h 0.82 v 0.2 h 1.29 v 0.19 h 0.17 v 0.2 h 1.16 v 0.19 h 0.11 v 0.2 h 0.04 v 0.2 h 0.1 v 0.19 h 1.46 v 0.2 h 0.04 v 0.19 h 0.08 v 0.2 h 0.46 v 0.19 h 0.48 v 0.2 h 0.22 v 0.19 h 0.81 v 0.2 h 0.35 v 0.2 h 0.35 v 0.19 h 0.82 v 0.2 h 0.21 v 0.19 h 1.47 v 0.2 h 0.4 v 0.19 h 1.53 v 0.2 h 1.24 v 0.2 h 0.4 v 0.19 h 0.16 v 0.2 h 0.76 v 0.19 h 0.02 v 0.2 h 1.61 v 0.19 h 0.17 v 0.2 h 0.02 v 0.19 h 0.24 v 0.2 h 0.29 v 0.2 h 1.91 v 0.19 h 0.21 v 0.2 h 0.23 v 0.19 h 1.7 v 0.2 h 0.19 v 0.19 h 0.09 v 0.2 h 0.92 v 0.19 h 0.77 v 0.2 h 0.13 v 0.2 h 0.01 v 0.19 h 0.05 v 0.2 h 0.25 v 0.19 h 1.07 v 0.2 h 0.28 v 0.19 h 0.35 v 0.2 h 0.14 v 0.19 h 2.13 v 0.2 h 0.37 v 0.2 h 0.11 v 0.19 h 0.04 v 0.2 h 1.78 v 0.19 h 0.01 v 0.2 h 0.41 v 0.19 h 0.29 v 0.2 h 1.1 v 0.19 h 0.32 v 0.2 h 0.04 v 0.2 h 0.08 v 0.19 h 0.2 v 0.2 h 1.82 v 0.19 h 0.02 v 0.2 h 0.91 v 0.19 h 0.36 v 0.2 h 0.54 v 0.19 h 0.22 v 0.2 h 1.58 v 0.2 h 1.04 v 0.19 h 0.58 v 0.2 h 0.55 v 0.19 h 0.02 v 0.2 h 0.11 v 0.19 h 1.67 v 0.2 h 0.1 v 0.19 h 1.18 v 0.2 h 2.34 v 0.2 h 0.44 v 0.19 h 0.17 v 0.2 h 1.33 v 0.19 h 0.63 v 0.2 h 1.46 v 0.19 h 0.6 v 0.2 h 2.11 v 0.19 h 0.06 v 0.2 h 0.13 v 0.2 h 0.54 v 0.19 h 0.71 v 0.2 h 0.58 v 0.19 h 1.15 v 0.2 h 0.21 v 0.19 h 1.21 v 0.2 h 0.42 v 0.19 h 0.89 v 0.2 h 0.35 v 0.2 h 0.01 v 0.19 h 0.08 v 0.2 h 0.41 v 0.19 h 1.15 v 0.2 h 0.05 v 0.19 h 1.2 v 0.2 h 0.68 v 0.19 h 0.22 v 0.2 h 1.39 v 0.2 h 1.52 v 0.19 h 0.33 v 0.2 h 1.86 v 0.19 h 0.37 v 0.2 h 1.18 v 0.19 h 0.43 v 0.2 0 0.19 h 0.02 v 0.2 h 0.85 v 0.2 h 1.79 v 0.19 h 0.45 v 0.2 h 1.01 v 0.19 h 0.14 v 0.2 h 0.61 v 0.19 h 0.41 v 0.2 h 1.11 v 0.19 h 0.38 v 0.2 h 0.11 v 0.2 h 0.16 v 0.19 h 0.11 v 0.2 h 0.07 v 0.19 h 0.15 v 0.2 h 0.03 v 0.19 h 0.56 v 0.2 h 0.74 v 0.19 h 0.93 v 0.2 h 0.14 v 0.2 H 219 v 0.19 h 1.12 v 0.2 h 0.47 v 0.19 h 0.24 v 0.2 h 0.65 v 0.19 h 0.49 v 0.2 h 0.36 v 0.19 h 0.91 v 0.2 h 0.66 v 0.2 h 0.39 v 0.19 h 0.75 v 0.2 h 0.41 v 0.19 h 1.59 v 0.2 h 0.2 v 0.19 h 0.55 v 0.2 h 0.51 v 0.19 h 0.16 v 0.2 h 0.91 v 0.2 h 0.65 v 0.19 h 0.47 v 0.2 h 1.24 v 0.19 0 0.2 h 0.22 v 0.19 h 0.14 v 0.2 h 1.5 v 0.19 h 0.12 v 0.2 h 0.52 v 0.2 h 0.84 v 0.19 h 0.38 v 0.2 h 2.59 v 0.19 h 1.95 v 0.2 h 0.37 v 0.19 h 0.12 v 0.2 h 0.61 v 0.19 h 0.39 v 0.2 h 0.48 v 0.2 h 1.85 v 0.19 h 0.12 v 0.2 h 0.75 v 0.19 h 0.54 v 0.2 h 0.04 v 0.19 h 1.32 v 0.2 h 0.17 v 0.19 h 0.12 v 0.2 h 0.01 v 0.2 h 1.47 v 0.19 h 0.47 v 0.2 h 0.38 v 0.19 h 2.11 v 0.2 h 0.25 v 0.19 h 1.13 v 0.2 h 1 v 0.19 h 0.14 v 0.2 h 1.65 v 0.2 h 0.59 v 0.19 h 0.01 v 0.2 h 1.66 v 0.19 h 1.16 v 0.2 h 2.49 v 0.19 h 1.64 v 0.2 h 0.06 v 0.19 h 0.36 v 0.2 h 1.27 v 0.2 h 0.63 v 0.19 h 0.1 v 0.2 h 0.33 v 0.19 h 1.32 v 0.2 h 1.78 V 215 h 0.24 v 0.2 h 0.6 v 0.19 h 1.44 v 0.2 h 1.2 v 0.2 h 0.63 v 0.19 h 2.09 v 0.2 h 0.31 v 0.19 h 0.54 v 0.2 h 0.24 v 0.19 h 1.42 v 0.2 h 0.2 v 0.19 h 3.44 v 0.2 h 6.53 v 0.2 h 2.79 v 0.19 h 1.94 v 0.2 h 0.85 v 0.19 h 0.02 v 0.2 h 1.05 v 0.19 h 1.42 v 0.2 h 0.76 v 0.19 h 0.01 v 0.2 h 1.23 v 0.2 h 0.21 v 0.19 h 1.72 v 0.2 h 0.42 v 0.19 h 1.71 v 0.2 h 0.32 v 0.19 h 0.73 v 0.2 h 3.62 v 0.19 h 1.09 v 0.2 h 0.22 v 0.2 h 5.72 v 0.19 h 1.3 v 0.2 h 0.57 v 0.19 h 1.98 v 0.2 h 0.27 v 0.19 h 1.55 v 0.2 h 3.5 v 0.19 h 0.56 v 0.2 h 0.69 v 0.2 h 0.31 v 0.19 h 0.29 v 0.2 h 0.3 v 0.19 h 2.88 v 0.2 h 2.84 v 0.19 h 0.75 v 0.2 h 1.93 v 0.19 h 3.09 v 0.2 h 0.25 v 0.2 h 0.6 v 0.19 h 2.42 v 0.2 h 3.96 v 0.19 h 1.06 v 0.2 h 1.91 v 0.19 h 0.78 v 0.2 h 0.6 v 0.19 h 0.38 v 0.2 h 0.34 v 0.2 h 0.23 v 0.19 h 0.19 v 0.2 h 0.96 v 0.19 h 0.08 v 0.2 h 0.25 v 0.19 h 0.98 v 0.2 h 1.82 v 0.19 h 0.12 v 0.2 h 0.41 v 0.2 h 3.86 v 0.19 h 0.29 v 0.2 h 0.34 v 0.19 h 0.47 v 0.2 h 2.47 v 0.19 h 1.37 v 0.2 h 1.59 v 0.19 h 3.94 v 0.2 h 1.13 v 0.2 h 0.24 v 0.19 h 4.64 v 0.2 h 1.36 v 0.19 h 1.7 v 0.2 h 0.46 v 0.19 h 1.5 v 0.2 h 0.87 v 0.19 h 0.1 v 0.2 h 1.88 v 0.2 h 0.31 v 0.19 h 0.13 v 0.2 h 1.83 v 0.19 h 0.05 v 0.2 h 3.4 v 0.19 h 1.01 v 0.2 h 3.26 v 0.2 h 0.13 v 0.19 h 1.58 v 0.2 h 0.59 v 0.19 h 2.83 v 0.2 h 1.45 v 0.19 h 0.57 v 0.2 h 1.99 v 0.19 h 3.11 v 0.2 h 0.12 v 0.2 h 0.55 v 0.19 h 0.49 v 0.2 h 1.84 v 0.19 h 9.97 v 0.2 h 0.01 v 0.19 h 1.27 v 0.2 h 3.48 v 0.19 h 0.13 v 0.2 h 5.16 v 0.2 h 2.04 v 0.19 h 3.45 v 0.2 h 3.78 v 0.19 h 0.69 v 0.2 h 1.62 v 0.19 h 0.1 v 0.2 h 0.73 v 0.19 h 3.99 v 0.2 h 2.7 v 0.2 h 0.83 v 0.19 h 0.62 v 0.2 h 0.46 v 0.19 h 4.57 v 0.2 h 0.97 v 0.19 h 1.43 v 0.2 h 0.52 v 0.19 h 3.7 v 0.2 h 1.85 v 0.2 h 0.47 v 0.19 h 0.86 v 0.2 H 463 v 0.19 h 0.28 v 0.2 h 0.48 v 0.19 H 468 v 0.2 h 0.61 v 0.19 h 0.4 v 0.2 h 1.37 v 0.2 h 0.8 v 0.19 h 1.05 v 0.2 h 0.86 v 0.19 h 0.98 v 0.2 h 0.27 v 0.19 h 0.31 v 0.2 h 4.7 v 0.19 h 5.49 v 0.2 h 1.53 v 0.2 h 1.67 v 0.19 h 2.81 v 0.2 h 7.99 v 0.19 h 6.54 v 0.2 h 1.24 v 0.19 h 1.1 v 0.2 h 4.02 v 0.19 h 3.78 v 0.2 h 0.08 v 0.2 h 3.1 v 0.19 h 2.79 v 0.2 h 2.86 v 0.19 h 1.2 v 0.2 h 2.97 v 0.19 h 7.71 v 0.2 h 1.17 v 0.19 h 0.29 v 0.2 h 1.88 v 0.2 h 2.09 v 0.19 h 2.01 v 0.2 h 8.79 v 0.19 h 2.93 v 0.2 h 2.5 v 0.19 h 2.96 v 0.2 h 1.06 v 0.19 h 0.63 v 0.2 h 2.58 v 0.2 h 9.07 v 0.19 h 2.6 v 0.2 h 5.92 v 0.19 h 0.35 v 0.2 h 9.64 v 0.19 h 3.38 v 0.2 h 4.01 v 0.19 h 0.15 v 0.2 h 4.34 v 0.2 h 0.61 v 0.19 h 2.07 v 0.2 h 8.87 v 0.19 h 4.59 v 0.2 h 0.83 v 0.19 h 4.78 v 0.2 h 6.47 v 0.19 h 4.5 v 0.2 h 1.41 v 0.2 h 0.76 v 0.19 h 3.07 v 0.2 0 0.19 h 4.55 v 0.2 h 5.82 v 0.19 h 0.54 v 0.2 h 2.61 v 0.19 h 0.01 v 0.2 h 6.08 v 0.2 h 2.61 v 0.19 h 2.16 v 0.2 h 17.91 v 0.19 h 7.33 v 0.2 h 3.54 v 0.19 h 0.1 v 0.2 h 6.1 v 0.19 h 4.65 v 0.2 h 0.25 v 0.2 h 2.19 v 0.19 h 0.49 v 0.2 h 8.31 v 0.19 h 0.29 v 0.2 h 4.13 v 0.19 h 4.3 v 0.2 h 6.81 v 0.19 h 5.94 v 0.2 h 0.39 v 0.2 h 0.4 v 0.19 h 1.86 v 0.2 h 3.86 v 0.19 h 1.18 v 0.2 h 8.53 v 0.19 h 18.63 v 0.2 h 1.25 V 259 h 12.37 v 0.2 h 18.43 v 0.2 h 0.74 v 0.19 h 7.1 v 0.2 h 2.59 v 0.19 h 13.62 v 0.2 h 0.45 v 0.19 h 26.81 v 0.2 h 3.26 v 0.19 h 2.18 v 0.2 h 3.29 v 0.2 h 6.22 v 0.19 h 42.26 v 0.2 h 13.02 v 0.19 h 4.13 v 0.2 H 932 v 0.19 h 1.13 v 0.2 h 9.12 v 0.19 h 9.59 v 0.2 h 8.68 v 0.2 h 15.17 v 0.19 h 23.19 v 0.2 h 1.62 v 0.19 h 14.87 v 0.2 h 12.65 v 0.19 h 3.39 v 0.2 h 0.59 v 0.19 h 1.35 v 0.2 h 4.32 v 0.2 h 23.13 v 0.19 h 28.12 v 0.2 h 22.25 v 0.19 h 8.54 v 0.2 h 65.11 v 0.19 h 8.72 v 0.2 h 36.84 v 0.19 h 9.73 v 0.2 h 28.05 v 0.2 h 6.74 v 0.19 h 1.66 v 0.2 h 11.45 v 0.19 h 21.21 v 0.2 h 14.15 v 0.19 h 10.88 v 0.2 h 33.19 v 0.19 h 31.16 v 0.2 h 7.93 v 0.2 h 68.54 v 0.19 h 88.72 v 0.2 h 36.12 v 0.19 h 97.06 v 0.2 h 3.94 v 0.19 h 13.44 v 0.2 h 176.97 v 0.19 h 155.07 v 0.2 h 138.98 v 0.2 h 681.08 v 0.19 h 63.18 v 0.2 h 311.35 v 0.19 h 205.92 v 0.2 h 504.39 v 0.19 h 284.13 v 0.2 H 930.52 v 0"
           style="fill:none;stroke:#7b7281;stroke-width:1.07;stroke-linecap:butt;stroke-linejoin:round;stroke-miterlimit:10;stroke-dasharray:none;stroke-opacity:1"
           id="path108" /><path
           d="m 40.98,43.3 h 18.34 v 4.17 0 4.17 0 2.78 0 1.38 0 5.56 0 8.34 0 4.16 0 1.39 0 1.39 0 1.39 0 1.39 0 1.39 0 1.39 0 1.39 h 0.01 v 1.39 0 1.39 0 1.39 0 1.39 0 1.38 0 1.39 0 1.39 h 0.01 v 1.39 0 1.39 0 1.39 0 1.39 0 1.39 0 1.39 0 1.39 h 0.01 v 1.39 0 1.39 h 0.01 v 1.38 0 1.39 h 0.01 v 1.39 h 0.01 v 1.39 0 1.39 h 0.01 v 1.39 h 0.01 v 1.39 0 1.39 h 0.01 v 1.39 0 1.39 h 0.03 v 1.39 h 0.03 v 1.39 0 1.39 h 0.02 v 1.38 h 0.01 v 1.39 0 1.39 h 0.01 v 1.39 h 0.01 v 1.39 0 1.39 h 0.01 v 1.39 0 1.39 h 0.01 v 1.39 h 0.01 v 1.39 h 0.01 v 1.39 h 0.05 v 1.39 h 0.03 v 1.38 h 0.02 v 1.39 h 0.03 v 1.39 0 1.39 h 0.02 v 1.39 h 0.02 v 1.39 h 0.07 v 1.39 h 0.08 v 1.39 h 0.03 v 1.39 h 0.04 v 1.39 h 0.11 v 1.39 h 0.22 v 1.39 h 0.06 v 1.38 h 0.01 v 1.39 h 0.14 v 1.39 h 0.02 v 1.39 h 0.12 v 1.39 h 0.33 v 1.39 h 0.22 v 1.39 h 0.06 v 1.39 h 0.07 v 1.39 h 0.08 v 1.39 h 0.39 v 1.39 h 0.3 v 1.39 h 0.18 v 1.39 h 0.78 v 1.38 h 0.34 v 1.39 h 0.29 v 1.39 h 0.14 v 1.39 h 0.58 v 1.39 h 0.34 v 1.39 h 0.03 V 185 h 0.06 v 1.39 h 1.22 v 1.39 h 0.23 v 1.39 h 0.2 v 1.39 h 0.95 v 1.39 h 1.62 v 1.38 h 0.23 v 1.39 h 1.16 v 1.39 h 0.16 v 1.39 h 1.29 v 1.39 h 0.74 v 1.39 h 1.58 v 1.39 h 0.9 v 1.39 h 1.6 v 1.39 h 0.17 v 1.39 h 0.12 v 1.39 h 0.07 v 1.39 h 0.18 V 210 h 0.09 v 1.39 h 0.08 v 1.39 h 0.49 v 1.39 h 1.11 v 1.39 h 0.47 v 1.39 h 2.39 v 1.39 h 1.14 v 1.39 h 0.71 v 1.39 h 3.19 v 1.39 h 0.62 v 1.39 h 0.04 v 1.39 h 1.36 v 1.39 h 5.43 v 1.38 h 1.13 v 1.39 h 29.97 v 1.39 h 1.79 v 1.39 h 8.43 v 1.39 h 29.57 v 1.39 h 16.9 v 1.39 h 7.41 v 1.39 h 15.9 v 1.39 h 6.55 v 1.39 h 4.24 v 1.39 h 0.19 v 1.39 h 5.55 v 1.38 h 11.77 v 1.39 h 2.39 v 1.39 h 6.7 v 1.39 h 3.95 v 1.39 h 59.87 v 1.39 h 2.57 v 1.39 h 15.16 v 1.39 h 33.81 v 1.39 h 3.33 v 1.39 h 30.53 v 1.39 h 54.05 v 1.39 h 46.04 v 2.77 h 0.25 v 1.39 h 404.3 v 1.39 h 152.32 v 1.39 h 1096.56 v 1.39 h 120.42 v 1.39 h 608.49 v 1.39 H 930.52 v 0"
           style="fill:none;stroke:#91569b;stroke-width:1.07;stroke-linecap:butt;stroke-linejoin:round;stroke-miterlimit:10;stroke-dasharray:none;stroke-opacity:1"
           id="path110" /><path
           d="m 40.98,43.3 h 18.34 v 3.3 h 0.01 v 3.31 0 3.3 0 3.3 h 0.01 v 3.3 h 0.02 v 3.3 h 0.02 v 3.3 h 0.02 v 3.31 h 0.02 v 3.3 h 0.02 v 3.3 h 0.01 v 3.3 h 0.07 v 3.3 0 3.31 h 0.05 v 3.3 h 0.16 v 3.3 h 0.64 v 3.3 h 0.11 v 3.3 h 0.08 v 3.31 h 0.2 v 3.3 h 0.05 v 3.3 h 0.12 v 3.3 0 3.3 h 0.05 v 3.3 h 0.12 v 3.31 h 1.71 v 3.3 h 1.11 v 3.3 h 1.07 v 3.3 h 0.45 v 3.3 h 0.23 v 3.31 h 0.01 v 3.3 H 66 v 3.3 h 0.53 v 3.3 h 0.21 v 3.3 h 0.28 v 3.3 h 0.61 v 3.31 h 0.63 v 3.3 h 0.56 v 3.3 h 0.04 v 3.3 h 2.05 v 3.3 h 1.62 v 3.31 h 0.33 v 3.3 h 1.28 v 3.3 h 2.22 v 3.3 h 0.4 v 3.3 H 77 v 3.3 h 0.16 v 3.31 h 2.2 v 3.3 h 0.08 v 3.3 h 2.52 v 3.3 h 3.9 v 3.3 h 0.4 v 3.31 h 3.33 v 3.3 h 3.13 v 3.3 h 1.64 v 3.3 h 0.4 v 3.3 h 3.95 v 3.31 h 0.66 v 3.3 h 4.07 v 3.3 h 1.94 v 3.3 h 7.47 v 3.3 h 1.62 v 3.3 h 0.2 v 3.31 h 19.75 v 3.3 h 5.8 v 3.3 h 63.54 v 3.3 h 32.34 v 3.3 h 335.23 v 3.31 h 22.74 v 3.3 h 15.58 v 3.3 h 320.87 v 0"
           style="fill:none;stroke:#ad5881;stroke-width:1.07;stroke-linecap:butt;stroke-linejoin:round;stroke-miterlimit:10;stroke-dasharray:none;stroke-opacity:1"
           id="path112" /><path
           d="m 40.98,43.3 h 18.34 v 11.99 0 0.39 0 0.39 0 0.38 0 0.39 0 0.39 0 0.38 0 0.39 0 0.39 0 0.38 0 0.39 0 0.39 0 0.38 h 0.01 v 0.39 0 0.39 0 0.38 0 0.39 0 0.39 0 0.39 0 0.38 0 0.39 0 0.39 0 0.38 0 0.39 0 0.39 0 0.38 h 0.01 v 0.39 0 0.39 0 0.38 0 0.39 0 0.39 0 0.38 0 0.39 0 0.39 0 0.38 0 0.39 h 0.01 v 0.39 0 0.38 0 0.39 0 0.39 0 0.39 0 0.38 h 0.01 v 0.39 0 0.39 0 0.38 h 0.01 v 0.39 0 0.39 0 0.38 0 0.39 h 0.01 v 0.39 h 0.01 v 0.38 0 0.39 0 0.39 h 0.01 v 0.38 0 0.39 0 0.39 0 0.38 0 0.39 h 0.01 v 0.39 0 0.38 0 0.39 h 0.01 v 0.39 h 0.01 v 0.38 h 0.01 v 0.39 0 0.39 0 0.39 h 0.01 v 0.38 0 0.39 h 0.03 v 0.39 h 0.01 v 0.38 h 0.03 v 0.39 h 0.02 v 0.39 h 0.04 v 0.38 0 0.39 0 0.39 h 0.07 v 0.38 h 0.03 v 0.39 h 0.01 v 0.39 h 0.09 v 0.38 h 0.03 v 0.39 h 0.15 v 0.39 h 0.03 v 0.38 H 60 v 0.39 h 0.02 v 0.39 h 0.07 v 0.38 h 0.08 v 0.39 h 0.07 v 0.39 h 0.07 v 0.38 h 0.01 v 0.39 h 0.04 v 0.39 h 0.02 v 0.39 h 0.01 v 0.38 h 0.01 v 0.39 h 0.02 v 0.39 h 0.03 v 0.38 0 0.39 0 0.39 h 0.01 v 0.38 h 0.01 v 0.39 h 0.06 v 0.39 h 0.06 v 0.38 h 0.19 v 0.39 h 0.2 v 0.39 h 0.15 v 0.38 h 0.09 v 0.39 h 0.1 v 0.39 h 0.03 v 0.38 h 0.05 v 0.39 h 0.01 v 0.39 h 0.17 v 0.38 h 0.12 v 0.39 h 0.02 v 0.39 0 0.38 h 0.03 V 99 h 0.06 v 0.39 h 0.2 v 0.39 h 0.09 v 0.38 h 0.05 v 0.39 h 0.17 v 0.39 h 0.09 v 0.38 h 0.17 v 0.39 h 0.05 v 0.39 h 0.01 v 0.38 h 0.44 v 0.39 h 0.05 v 0.39 h 0.32 v 0.38 h 0.02 v 0.39 h 0.12 v 0.39 h 0.07 v 0.38 h 0.05 v 0.39 h 0.03 v 0.39 h 0.19 v 0.38 h 0.24 v 0.39 h 1.11 v 0.39 0 0.38 h 0.01 v 0.39 h 0.74 v 0.39 h 0.07 v 0.38 h 0.23 v 0.39 h 0.64 v 0.39 h 0.75 v 0.39 h 0.34 v 0.38 h 0.02 v 0.39 h 0.1 v 0.39 h 0.19 v 0.38 h 0.21 v 0.39 h 0.06 v 0.39 h 0.69 v 0.38 h 0.12 v 0.39 h 0.04 v 0.39 h 0.42 v 0.38 h 0.06 v 0.39 h 0.48 v 0.39 h 0.77 v 0.38 0 0.39 h 0.08 v 0.39 h 0.59 v 0.38 h 0.08 v 0.39 h 0.25 v 0.39 h 0.05 v 0.38 h 0.18 v 0.39 h 0.04 v 0.39 h 0.4 v 0.39 h 0.09 v 0.38 h 0.71 v 0.39 h 0.34 v 0.39 h 0.79 v 0.38 h 0.13 v 0.39 h 0.07 v 0.39 h 0.58 v 0.38 h 0.89 v 0.39 h 0.35 v 0.39 h 0.01 v 0.38 h 0.12 v 0.39 h 0.1 v 0.39 0 0.38 h 0.26 v 0.39 h 1.36 v 0.39 h 0.28 v 0.38 h 0.26 v 0.39 h 0.14 v 0.39 h 1.49 v 0.38 h 0.71 v 0.39 H 82 v 0.39 h 1.5 v 0.38 h 0.14 v 0.39 h 0.03 v 0.39 h 0.27 v 0.39 h 1.22 v 0.38 h 0.57 v 0.39 h 0.06 v 0.39 h 0.17 v 0.38 h 1.84 v 0.39 h 0.04 v 0.39 h 1.66 v 0.38 h 0.21 v 0.39 h 0.23 v 0.39 h 0.24 v 0.38 h 0.1 v 0.39 h 0.23 v 0.39 h 1.22 v 0.38 h 0.86 v 0.39 h 0.38 v 0.39 h 1.13 v 0.38 h 0.36 v 0.39 h 0.04 v 0.39 h 0.21 v 0.38 h 0.63 v 0.39 h 1.08 v 0.39 h 0.41 v 0.38 h 0.4 v 0.39 h 0.17 v 0.39 h 0.47 v 0.39 h 0.87 v 0.38 h 0.09 v 0.39 h 0.14 v 0.39 h 0.26 v 0.38 h 0.81 v 0.39 h 0.07 v 0.39 h 0.08 V 140 h 0.63 v 0.39 h 0.36 v 0.39 h 0.05 v 0.38 h 1.27 v 0.39 h 0.56 v 0.39 h 0.7 v 0.38 h 0.07 v 0.39 h 0.5 v 0.39 h 0.26 v 0.38 h 0.08 v 0.39 h 0.93 v 0.39 h 0.07 v 0.38 h 0.3 v 0.39 h 0.45 v 0.39 h 1.41 v 0.38 h 0.34 v 0.39 h 1.09 v 0.39 h 0.03 v 0.39 h 0.79 v 0.38 h 0.95 v 0.39 h 0.14 v 0.39 h 1.16 v 0.38 h 1.66 v 0.39 h 2.14 v 0.39 h 1.15 v 0.38 h 0.04 v 0.39 h 0.81 v 0.39 h 0.5 v 0.38 h 0.73 v 0.39 h 0.17 v 0.39 h 1.22 v 0.38 h 0.3 v 0.39 h 0.11 v 0.39 h 0.1 v 0.38 h 0.21 v 0.39 h 0.19 v 0.39 h 1.14 v 0.38 h 0.14 v 0.39 h 0.03 v 0.39 h 0.11 v 0.39 h 0.07 v 0.38 h 0.18 v 0.39 h 0.18 v 0.39 h 0.37 v 0.38 h 0.13 v 0.39 h 1.19 v 0.39 h 0.12 v 0.38 h 0.33 v 0.39 h 0.18 v 0.39 h 0.08 v 0.38 h 1.19 v 0.39 h 0.15 v 0.39 h 0.08 v 0.38 h 0.92 v 0.39 h 0.37 v 0.39 h 1.44 v 0.38 h 0.51 v 0.39 h 0.38 v 0.39 h 0.93 v 0.38 h 2.2 v 0.39 h 0.42 v 0.39 h 0.02 v 0.38 h 0.58 v 0.39 h 0.81 v 0.39 h 0.19 v 0.39 h 0.04 v 0.38 h 0.56 v 0.39 h 1.36 v 0.39 h 0.67 v 0.38 h 2.17 v 0.39 h 0.43 v 0.39 h 0.49 v 0.38 h 1.27 v 0.39 h 0.17 v 0.39 h 0.79 v 0.38 h 0.57 v 0.39 h 0.52 v 0.39 h 0.16 v 0.38 h 0.37 v 0.39 h 0.14 v 0.39 h 0.57 v 0.38 h 0.94 v 0.39 h 7.09 v 0.39 h 0.27 v 0.38 h 0.87 v 0.39 h 0.33 v 0.39 h 0.18 v 0.38 h 0.19 v 0.39 h 0.11 v 0.39 h 0.38 v 0.39 h 0.36 v 0.38 h 2.13 v 0.39 h 0.3 v 0.39 h 2.04 v 0.38 h 0.45 v 0.39 h 1 v 0.39 h 0.47 v 0.38 h 1.87 v 0.39 h 0.46 v 0.39 h 0.54 v 0.38 h 1.74 v 0.39 h 0.73 v 0.39 h 0.23 v 0.38 h 0.58 v 0.39 h 0.01 v 0.39 h 1.76 V 181 h 1.28 v 0.39 h 4.09 v 0.39 h 2.35 v 0.38 h 2.7 v 0.39 h 0.27 v 0.39 h 0.71 v 0.38 h 1.2 v 0.39 h 0.6 v 0.39 h 0.02 v 0.39 h 0.58 v 0.38 h 1.11 v 0.39 h 0.02 v 0.39 h 2.14 v 0.38 h 1.3 v 0.39 h 0.15 v 0.39 h 1.96 v 0.38 h 0.13 v 0.39 h 0.35 v 0.39 h 1.26 v 0.38 h 0.02 v 0.39 h 1.08 v 0.39 h 0.06 v 0.38 h 2.85 v 0.39 h 0.26 v 0.39 h 0.77 v 0.38 h 1.97 v 0.39 h 3.3 v 0.39 h 3.65 v 0.38 h 0.64 v 0.39 h 0.36 v 0.39 h 0.74 v 0.38 h 4.42 v 0.39 h 0.47 v 0.39 h 0.69 v 0.39 h 0.11 v 0.38 h 0.44 v 0.39 H 216 v 0.39 h 0.23 v 0.38 h 0.29 v 0.39 h 2.8 v 0.39 h 2.14 v 0.38 h 1.32 v 0.39 h 3.18 v 0.39 h 0.84 v 0.38 h 0.79 v 0.39 h 3.38 v 0.39 h 5.22 v 0.38 h 0.05 v 0.39 h 1.8 v 0.39 h 0.36 v 0.38 h 0.81 v 0.39 h 3.26 v 0.39 h 0.44 v 0.38 h 0.97 v 0.39 h 1.83 v 0.39 h 1.04 v 0.39 h 2.44 v 0.38 h 0.64 v 0.39 h 2.76 v 0.39 h 1.35 v 0.38 h 0.99 v 0.39 h 3.16 v 0.39 h 2.03 v 0.38 h 0.09 v 0.39 h 0.2 v 0.39 h 1.6 v 0.38 h 1.17 v 0.39 h 4.85 v 0.39 h 3.26 v 0.38 h 0.62 v 0.39 h 0.84 v 0.39 H 280 v 0.38 h 1.39 v 0.39 h 7.88 v 0.39 h 1.85 v 0.38 h 0.86 v 0.39 h 8.29 v 0.39 h 1.23 v 0.38 h 3.11 v 0.39 h 1.41 v 0.39 h 0.6 v 0.39 h 2.14 v 0.38 h 0.52 v 0.39 h 5.26 v 0.39 h 0.84 v 0.38 h 3.05 v 0.39 h 6.08 v 0.39 h 3.29 v 0.38 h 3.1 v 0.39 h 0.23 v 0.39 h 2.65 v 0.38 h 1.68 v 0.39 h 2.15 v 0.39 h 2.44 v 0.38 h 1.73 v 0.39 h 0.05 v 0.39 h 0.41 v 0.38 h 3.19 v 0.39 h 0.71 v 0.39 h 1.54 v 0.38 h 1.29 v 0.39 h 0.75 v 0.39 h 1.14 v 0.38 h 0.31 v 0.39 h 2.47 v 0.39 h 4.51 v 0.39 h 9.71 v 0.38 h 1.22 v 0.39 h 1.22 v 0.39 h 0.52 v 0.38 h 4.48 v 0.39 h 4.26 v 0.39 h 0.05 v 0.38 h 0.66 v 0.39 h 2.4 v 0.39 h 3.66 v 0.38 h 3.03 v 0.39 h 1.91 v 0.39 h 0.59 v 0.38 h 2.78 v 0.39 h 2.74 v 0.39 h 6.92 v 0.38 h 1.8 v 0.39 h 0.05 v 0.39 h 1.97 v 0.38 h 3.57 v 0.39 h 2.69 v 0.39 h 2.39 v 0.38 h 0.77 v 0.39 h 2.13 v 0.39 h 10.86 v 0.39 h 0.07 v 0.38 h 7.18 v 0.39 h 4.03 v 0.39 h 2.81 v 0.38 h 1.2 v 0.39 h 2.42 V 234 h 2.23 v 0.38 h 4.67 v 0.39 h 2.93 v 0.39 h 3.55 v 0.38 h 2.06 v 0.39 h 0.33 v 0.39 h 2.36 v 0.38 h 0.13 v 0.39 h 2.82 v 0.39 h 2.28 v 0.38 h 2.85 v 0.39 h 3.36 v 0.39 h 18.63 v 0.38 h 10.78 v 0.39 h 0.2 v 0.39 h 4.83 v 0.38 h 1.85 v 0.39 h 2.3 v 0.39 h 2.33 v 0.39 h 2.9 v 0.38 h 1.31 v 0.39 h 11.22 v 0.39 h 1.27 v 0.38 h 4.93 v 0.39 h 0.42 v 0.39 h 2.17 v 0.38 h 3.22 v 0.39 h 6.62 v 0.39 h 1.12 v 0.38 h 4.24 v 0.39 h 0.03 v 0.39 h 0.05 v 0.38 h 2.22 v 0.39 h 9.29 v 0.39 h 12.01 v 0.38 h 1.06 v 0.39 h 3.67 v 0.39 h 15.92 v 0.38 h 9.4 v 0.39 h 3.83 v 0.39 h 8.67 v 0.39 h 0.6 v 0.38 h 5.1 v 0.39 h 11.04 v 0.39 h 2.79 v 0.38 h 5.34 v 0.39 h 0.68 v 0.39 h 5.23 v 0.38 h 0.76 v 0.39 h 9.29 v 0.39 h 1.09 v 0.38 h 11.54 v 0.39 h 13.21 v 0.39 H 702 v 0.38 h 6.56 v 0.39 h 28.52 v 0.39 h 0.7 v 0.38 h 10.66 v 0.39 h 6.93 v 0.39 h 12.94 v 0.38 h 6.2 v 0.39 h 3.54 v 0.39 h 10.57 v 0.38 h 9.7 v 0.39 h 43.59 v 0.39 h 6.51 v 0.39 h 22.08 v 0.38 h 6.66 v 0.39 h 26.36 v 0.39 h 3.24 v 0.38 h 25.5 v 0.39 h 8.79 v 0.39 h 6.66 v 0.38 h 5.89 v 0.39 h 4.48 v 0.39 h 20.48 v 0.38 h 4.47 v 0.39 h 6.7 v 0.39 h 12.86 v 0.38 h 6.66 v 0.39 h 13.45 v 0.39 h 80.93 v 0.38 h 39.44 v 0.39 h 39.24 v 0.39 h 13.76 v 0.38 h 29.72 v 0.39 h 13.14 v 0.39 h 35.49 v 0.38 h 13.09 v 0.39 h 11.88 v 0.39 h 0.25 v 0.39 h 64.15 v 0.38 h 68.8 v 0.39 h 997.92 v 0.39 h 240.27 v 0.38 h 512.19 v 0.39 H 930.52 v 0"
           style="fill:none;stroke:#cb6651;stroke-width:1.07;stroke-linecap:butt;stroke-linejoin:round;stroke-miterlimit:10;stroke-dasharray:none;stroke-opacity:1"
           id="path114" /><path
           d="m 40.98,43.3 h 18.34 v 1.69 0 1.69 0 1.68 0 1.69 0 1.69 h 0.01 v 1.69 0 1.69 0 1.68 0 1.69 0 1.69 0 1.69 h 0.01 v 1.68 0 1.69 0 1.69 0 1.69 h 0.02 v 1.68 0 1.69 h 0.01 v 1.69 h 0.01 v 1.69 h 0.02 v 1.68 h 0.02 v 1.69 0 1.69 0 1.69 0 1.68 h 0.03 v 1.69 h 0.04 v 1.69 h 0.01 v 1.69 0 1.69 h 0.01 v 1.68 0 1.69 h 0.02 v 1.69 0 1.69 h 0.02 v 1.68 h 0.02 v 1.69 h 0.1 v 1.69 h 0.04 v 1.69 h 0.19 v 1.68 0 1.69 h 0.06 v 1.69 h 0.02 v 1.69 h 0.06 v 1.68 h 0.04 v 1.69 h 0.13 v 1.69 h 0.02 v 1.69 h 0.05 v 1.68 h 0.09 v 1.69 h 0.03 v 1.69 h 0.31 v 1.69 h 0.01 v 1.68 h 0.1 v 1.69 h 0.05 v 1.69 h 0.05 v 1.69 h 0.12 v 1.69 h 0.01 v 1.68 h 0.06 v 1.69 h 0.12 v 1.69 h 0.01 v 1.69 h 0.1 v 1.68 h 0.08 v 1.69 h 0.08 v 1.69 h 0.01 v 1.69 h 0.07 v 1.68 h 0.16 v 1.69 h 0.03 v 1.69 h 0.01 v 1.69 0 1.68 h 0.03 v 1.69 h 0.04 v 1.69 h 0.17 v 1.69 h 0.03 v 1.68 h 0.1 v 1.69 h 0.08 v 1.69 h 0.15 v 1.69 h 0.27 v 1.69 h 0.28 v 1.68 h 0.63 v 1.69 h 0.01 v 1.69 h 0.24 v 1.69 h 0.04 v 1.68 h 0.07 v 1.69 h 0.89 V 180 h 0.13 v 1.69 h 0.69 v 1.68 h 0.08 v 1.69 h 0.15 v 1.69 h 0.11 v 1.69 h 0.01 v 1.68 h 0.23 v 1.69 h 0.43 v 1.69 h 1.1 v 1.69 h 0.05 v 1.68 h 0.3 v 1.69 h 0.85 v 1.69 h 0.81 v 1.69 h 0.08 v 1.68 h 0.05 v 1.69 h 0.39 V 207 h 0.11 v 1.69 h 0.13 v 1.69 h 0.05 v 1.68 h 0.02 v 1.69 h 0.15 v 1.69 h 0.58 v 1.69 h 0.93 v 1.68 h 0.09 v 1.69 h 0.27 v 1.69 h 0.96 v 1.69 h 1.09 v 1.68 h 0.44 v 1.69 h 2.99 v 1.69 h 0.02 v 1.69 h 0.18 v 1.68 h 1.35 V 234 h 0.12 v 1.69 h 0.45 v 1.69 h 6.12 v 1.68 h 3.67 v 1.69 h 0.57 v 1.69 h 3.85 v 1.69 h 0.33 v 1.69 h 3.35 v 1.68 h 0.34 v 1.69 h 3.53 v 1.69 h 3.68 v 1.69 h 2.37 v 1.68 h 6.8 v 1.69 h 8.03 v 1.69 h 12.98 v 1.69 h 60.51 V 261 h 16.63 v 1.69 h 64.94 v 1.69 h 14.2 v 1.69 h 68.63 v 1.68 h 31.9 v 1.69 h 492.74 v 1.69 h 45.15 v 0"
           style="fill:none;stroke:#e97421;stroke-width:1.07;stroke-linecap:butt;stroke-linejoin:round;stroke-miterlimit:10;stroke-dasharray:none;stroke-opacity:1"
           id="path116" /><path
           d="m 40.98,43.3 h 18.34 v 3 h 0.01 v 3 0 3 0 2.99 0 3 h 0.01 v 3 0 3 h 0.02 v 2.99 0 3 h 0.04 v 3 h 0.04 v 3 h 0.01 v 2.99 0 3 h 0.02 v 3 h 0.08 v 3 h 0.05 v 3 h 0.33 v 2.99 h 0.04 v 3 h 0.09 v 3 h 0.46 v 3 h 0.08 v 2.99 h 0.15 v 3 h 0.42 v 3 h 0.27 v 3 h 0.03 v 3 h 0.09 v 2.99 h 0.16 v 3 h 0.31 v 3 h 0.16 v 3 h 0.34 v 2.99 h 1.27 v 3 h 0.48 v 3 h 0.06 v 3 h 1.36 v 2.99 h 1.58 v 3 h 2.11 v 3 h 0.05 v 3 h 0.65 v 3 h 0.7 v 2.99 h 1.82 v 3 h 0.99 v 3 h 1.21 v 3 h 0.15 v 2.99 h 5.71 v 3 h 0.67 v 3 h 1.34 v 3 h 3.24 v 3 h 0.28 v 2.99 h 6.01 v 3 h 2.14 v 3 h 7.4 v 3 h 3.84 v 2.99 h 0.46 v 3 h 10.82 v 3 h 6.32 v 3 h 0.06 v 2.99 h 2.04 v 3 h 0.38 v 3 h 2.29 v 3 h 12.47 v 3 h 7.31 v 2.99 h 5.9 v 3 h 2.28 v 3 h 3.75 v 3 h 5.12 v 2.99 h 0.91 v 3 h 7.35 v 3 h 7.73 v 3 h 26.03 v 3 h 6.82 v 2.99 h 7.27 v 3 h 21.37 v 3 h 60.35 v 3 h 43.44 v 2.99 h 982.45 v 3 h 246.71 v 3 h -644.7 v 0"
           style="fill:none;stroke:#ff8904;stroke-width:1.07;stroke-linecap:butt;stroke-linejoin:round;stroke-miterlimit:10;stroke-dasharray:none;stroke-opacity:1"
           id="path118" /><path
           d="m 40.98,43.3 h 18.34 v 1.65 0 1.65 0 1.65 0 1.66 0 1.65 0 1.65 0 1.65 0 1.65 0 1.65 0 1.65 0 1.65 0 1.65 0 1.65 0 1.65 0 1.66 0 1.65 0 1.65 0 1.65 0 1.65 h 0.01 v 1.65 0 1.65 0 1.65 0 1.65 0 1.65 0 1.66 0 1.65 0 1.65 0 1.65 0 1.65 h 0.01 v 1.65 0 1.65 0 1.65 0 1.65 0 1.65 h 0.01 v 1.65 0 1.66 0 1.65 h 0.01 v 1.65 0 1.65 h 0.01 v 1.65 0 1.65 0 1.65 h 0.02 v 1.65 0 1.65 h 0.01 v 1.65 0 1.65 0 1.66 h 0.02 v 1.65 0 1.65 h 0.01 v 1.65 0 1.65 h 0.03 v 1.65 0 1.65 h 0.03 v 1.65 h 0.01 v 1.65 h 0.02 v 1.65 h 0.05 v 1.65 h 0.02 v 1.66 0 1.65 h 0.01 v 1.65 h 0.01 v 1.65 h 0.01 v 1.65 h 0.07 v 1.65 h 0.09 v 1.65 h 0.03 v 1.65 h 0.02 v 1.65 h 0.27 v 1.65 0 1.65 h 0.13 v 1.66 h 0.02 v 1.65 h 0.12 v 1.65 h 0.03 v 1.65 h 0.05 v 1.65 h 0.31 v 1.65 h 0.05 v 1.65 h 0.15 v 1.65 h 0.1 v 1.65 h 0.21 v 1.65 h 0.06 v 1.65 h 0.07 v 1.66 h 0.1 v 1.65 h 0.03 v 1.65 h 0.11 v 1.65 h 0.44 v 1.65 h 0.6 v 1.65 h 0.83 v 1.65 h 0.14 v 1.65 h 1.82 v 1.65 h 0.38 v 1.65 h 0.23 v 1.65 h 0.08 v 1.66 h 0.16 v 1.65 h 0.96 v 1.65 h 0.2 v 1.65 h 0.03 v 1.65 h 0.01 v 1.65 h 0.46 v 1.65 h 0.11 v 1.65 h 0.01 v 1.65 h 0.02 v 1.65 h 1.34 v 1.66 h 0.53 v 1.65 h 0.23 v 1.65 h 0.11 V 215 h 0.09 v 1.65 h 0.9 v 1.65 h 3.23 v 1.65 0 1.65 h 0.21 v 1.65 h 2.89 v 1.65 h 1.29 v 1.65 h 2 v 1.66 h 7.04 v 1.65 h 1.7 v 1.65 h 2.02 v 1.65 h 6.53 v 1.65 h 3.45 v 1.65 h 15.48 v 1.65 h 1.97 v 1.65 h 6.89 v 1.65 h 3.5 v 1.65 h 11.51 v 1.65 h 2.37 v 1.66 h 0.29 v 1.65 h 2.96 v 1.65 h 4.42 v 1.65 h 14.16 v 1.65 h 39.4 v 1.65 h 95.24 v 1.65 h 59.93 v 1.65 h 92.58 v 1.65 h 23.49 v 1.65 h 16.39 v 1.65 h 26.15 v 1.66 h 148.23 v 1.65 h 126.63 v 1.65 h 37.15 v 1.65 h 661.07 v 1.65 H 930.52 v 0"
           style="fill:none;stroke:#ffaf13;stroke-width:1.07;stroke-linecap:butt;stroke-linejoin:round;stroke-miterlimit:10;stroke-dasharray:none;stroke-opacity:1"
           id="path120" /><path
           d="m 40.98,43.3 h 18.34 v 1.88 0 1.89 0 1.88 0 1.88 h 0.01 v 1.89 0 1.88 0 1.88 0 1.88 0 1.89 0 1.88 0 1.88 h 0.01 v 1.89 0 1.88 0 1.88 h 0.01 v 1.89 0 1.88 0 1.88 h 0.02 v 1.88 h 0.01 v 1.89 0 1.88 h 0.02 v 1.88 0 1.89 h 0.01 v 1.88 0 1.88 h 0.02 v 1.88 h 0.01 v 1.89 h 0.02 v 1.88 0 1.88 h 0.04 v 1.89 h 0.01 v 1.88 h 0.04 v 1.88 0 1.88 h 0.02 v 1.89 0 1.88 h 0.15 v 1.88 h 0.12 v 1.89 h 0.04 v 1.88 h 0.04 v 1.88 h 0.06 v 1.88 h 0.21 v 1.89 h 0.45 v 1.88 h 0.27 v 1.88 h 0.13 v 1.89 h 0.06 v 1.88 h 0.02 v 1.88 h 0.02 v 1.88 h 0.2 v 1.89 h 0.06 v 1.88 0 1.88 h 0.05 v 1.89 h 0.41 v 1.88 h 1.47 v 1.88 h 0.3 v 1.88 0 1.89 h 0.04 v 1.88 h 0.13 v 1.88 h 0.9 v 1.89 h 0.61 v 1.88 h 0.47 v 1.88 h 0.28 v 1.88 h 1.88 v 1.89 h 0.09 v 1.88 h 0.35 v 1.88 h 1.93 v 1.89 h 0.67 v 1.88 h 0.44 v 1.88 h 1.11 v 1.88 h 0.39 v 1.89 h 1.45 v 1.88 h 0.55 v 1.88 h 1.69 v 1.89 h 0.63 v 1.88 h 2.01 v 1.88 h 2.8 v 1.88 h 1.27 v 1.89 h 2.97 v 1.88 h 3.6 v 1.88 h 0.23 v 1.89 h 0.85 v 1.88 H 91 v 1.88 h 0.55 v 1.88 h 2.7 v 1.89 h 2.74 v 1.88 h 5.8 v 1.88 h 1.3 v 1.89 h 1.61 v 1.88 h 0.29 v 1.88 h 1.57 v 1.88 h 3.22 v 1.89 h 2.54 v 1.88 h 3.09 v 1.88 h 2.57 v 1.89 h 2.39 v 1.88 h 11.05 v 1.88 h 17.02 v 1.88 h 5.08 v 1.89 h 11.58 v 1.88 h 2.96 v 1.88 h 11.89 v 1.89 h 6.08 v 1.88 h 4.52 v 1.88 h 0.99 v 1.88 h 13.54 v 1.89 h 8.73 v 1.88 h 1.4 V 241 h 4.77 v 1.89 h 3.35 v 1.88 h 4.51 v 1.88 h 34.3 v 1.88 h 12.68 v 1.89 h 64.2 v 1.88 h 65.67 v 1.88 h 19.36 v 1.89 h 10.79 v 1.88 h 71.83 v 1.88 h 15.21 v 1.88 h 8.62 v 1.89 h 82.38 v 1.88 H 660 v 1.88 h 16.08 v 1.89 h 3800.34 v 1.88 H 930.52 v 0"
           style="fill:none;stroke:#ffd422;stroke-width:1.07;stroke-linecap:butt;stroke-linejoin:round;stroke-miterlimit:10;stroke-dasharray:none;stroke-opacity:1"
           id="path122" /><path
           d="m 40.98,43.3 h 18.34 v 15.19 h 0.13 v 15.19 h 0.77 v 15.19 h 0.22 v 15.19 h 0.67 v 15.18 h 0.33 v 15.19 h 0.12 v 15.19 h 1.82 v 15.19 H 63.7 V 180 h 0.17 v 15.19 h 1.24 v 15.19 h 14.71 v 15.18 h 3.44 v 15.19 h 19.11 v 15.19 h 1.44 v 15.19 h 826.71 v 0"
           style="fill:none;stroke:#fff930;stroke-width:1.07;stroke-linecap:butt;stroke-linejoin:round;stroke-miterlimit:10;stroke-dasharray:none;stroke-opacity:1"
           id="path124" /><path
           d="m 40.98,43.3 h 18.35 v 113.92 h 4.4 v 113.91 h 866.79 v 0"
           style="fill:none;stroke:#e8d430;stroke-width:1.07;stroke-linecap:butt;stroke-linejoin:round;stroke-miterlimit:10;stroke-dasharray:none;stroke-opacity:1"
           id="path126" /><path
           d="m 40.98,43.3 h 18.34 v 7.64 0 0.41 0 0.68 0 0.55 0 0.27 0 0.14 0 0.27 0 0.41 0 0.27 0 0.28 0 0.13 0 0.14 0 0.14 0 0.13 0 0.14 0 0.27 0 0.14 0 0.13 0 0.28 0 0.13 0 0.14 0 0.14 0 0.27 0 0.14 0 0.27 0 0.13 0 0.14 0 0.14 0 0.27 0 0.14 0 0.13 0 0.14 0 0.14 0 0.13 0 0.14 0 0.14 0 0.13 0 0.27 0 0.14 0 0.14 0 0.41 0 0.13 0 0.14 0 0.14 0 0.13 0 0.14 0 0.13 0 0.14 0 0.14 0 0.13 0 0.14 0 0.14 0 0.13 0 0.14 0 0.14 0 0.13 0 0.14 0 0.14 h 0.01 v 0.13 0 0.14 0 0.13 0 0.14 0 0.14 0 0.13 0 0.14 0 0.14 0 0.27 0 0.14 0 0.13 0 0.14 0 0.14 0 0.13 0 0.14 0 0.13 0 0.14 0 0.14 0 0.27 0 0.14 0 0.13 0 0.14 0 0.14 0 0.13 0 0.14 0 0.14 0 0.13 0 0.27 0 0.14 0 0.14 0 0.13 0 0.14 0 0.14 0 0.13 0 0.28 0 0.13 0 0.14 0 0.14 0 0.13 0 0.14 0 0.13 0 0.14 0 0.14 0 0.13 0 0.14 0 0.14 0 0.13 0 0.14 0 0.14 0 0.13 0 0.14 0 0.14 0 0.13 0 0.14 0 0.13 0 0.28 0 0.13 h 0.01 v 0.28 0 0.13 0 0.14 0 0.14 0 0.13 0 0.14 0 0.14 0 0.13 0 0.14 0 0.13 0 0.14 0 0.14 0 0.13 0 0.14 0 0.14 0 0.13 0 0.14 0 0.14 h 0.01 v 0.13 0 0.14 0 0.14 0 0.13 0 0.14 0 0.13 0 0.14 0 0.14 0 0.13 0 0.14 0 0.14 0 0.13 0 0.14 0 0.14 0 0.13 0 0.14 0 0.14 h 0.01 v 0.13 0 0.27 0 0.14 0 0.14 0 0.13 0 0.14 0 0.14 0 0.13 h 0.01 v 0.14 0 0.14 0 0.13 0 0.14 0 0.14 0 0.13 0 0.14 0 0.13 0 0.14 h 0.01 v 0.14 0 0.13 0 0.14 0 0.14 0 0.13 0 0.14 0 0.14 h 0.01 v 0.27 0 0.13 0 0.14 0 0.14 0 0.13 h 0.01 v 0.14 0 0.14 0 0.13 0 0.14 0 0.14 0 0.13 0 0.14 h 0.01 v 0.14 0 0.13 0 0.14 0 0.13 0 0.14 h 0.01 v 0.14 0 0.13 0 0.14 0 0.14 h 0.01 v 0.13 0 0.14 0 0.14 0 0.13 h 0.01 v 0.14 h 0.01 v 0.14 0 0.13 h 0.01 v 0.14 0 0.13 0 0.14 0 0.14 0 0.13 h 0.01 v 0.14 0 0.14 0 0.13 0 0.14 h 0.01 v 0.14 0 0.13 h 0.04 v 0.14 0 0.14 0 0.13 0 0.14 h 0.01 v 0.13 0 0.14 0 0.14 h 0.01 v 0.13 0 0.14 h 0.01 v 0.14 0 0.13 0 0.14 h 0.01 v 0.14 h 0.02 V 86 h 0.01 v 0.14 0 0.14 0 0.13 h 0.02 v 0.14 h 0.01 v 0.13 h 0.02 v 0.14 0 0.14 0 0.13 0 0.14 h 0.01 v 0.14 h 0.01 v 0.13 h 0.01 v 0.14 h 0.01 v 0.14 0 0.13 0 0.14 h 0.01 v 0.14 0 0.13 h 0.02 v 0.14 h 0.01 v 0.13 0 0.14 h 0.01 v 0.14 0 0.13 0 0.14 h 0.01 v 0.14 0 0.13 h 0.01 v 0.14 h 0.01 v 0.14 h 0.02 v 0.13 h 0.06 v 0.14 h 0.01 v 0.14 h 0.01 v 0.13 h 0.02 v 0.14 0 0.13 h 0.01 v 0.14 h 0.05 v 0.14 h 0.04 v 0.13 0 0.14 h 0.01 v 0.14 h 0.03 v 0.13 h 0.05 v 0.14 h 0.01 v 0.14 h 0.01 v 0.13 h 0.01 v 0.14 h 0.01 v 0.14 0 0.13 0 0.14 h 0.01 v 0.13 h 0.06 v 0.14 h 0.03 v 0.14 h 0.01 v 0.13 h 0.02 v 0.14 h 0.02 v 0.14 0 0.13 0 0.14 h 0.01 v 0.14 h 0.02 v 0.13 h 0.01 v 0.14 0 0.14 h 0.02 v 0.13 0 0.14 0 0.13 h 0.04 v 0.14 h 0.02 v 0.14 0 0.13 h 0.01 v 0.14 h 0.01 v 0.14 h 0.01 v 0.13 0 0.14 h 0.01 v 0.14 h 0.01 v 0.13 h 0.06 v 0.14 h 0.02 v 0.14 h 0.04 v 0.13 h 0.01 v 0.14 h 0.03 v 0.13 h 0.02 v 0.14 h 0.01 v 0.14 h 0.04 v 0.13 0 0.14 0 0.14 h 0.01 v 0.13 h 0.03 v 0.14 h 0.03 v 0.14 0 0.13 h 0.05 v 0.14 h 0.08 v 0.13 h 0.01 v 0.14 h 0.02 v 0.14 h 0.02 v 0.13 h 0.02 v 0.14 h 0.01 v 0.14 h 0.01 v 0.13 h 0.01 v 0.14 0 0.14 h 0.03 v 0.13 H 61 v 0.14 h 0.01 v 0.14 h 0.01 v 0.13 h 0.01 v 0.14 h 0.02 v 0.13 0 0.14 h 0.01 v 0.14 h 0.02 v 0.13 0 0.14 h 0.02 v 0.14 h 0.01 v 0.13 0 0.14 h 0.01 v 0.14 h 0.01 v 0.13 h 0.01 v 0.14 h 0.01 v 0.14 0 0.13 h 0.01 v 0.14 h 0.02 v 0.13 h 0.02 v 0.14 0 0.14 0 0.13 h 0.01 v 0.14 h 0.01 v 0.14 0 0.13 0 0.14 0 0.14 h 0.01 v 0.13 0 0.14 h 0.02 v 0.14 h 0.01 v 0.13 h 0.02 v 0.14 h 0.02 v 0.13 0 0.14 h 0.03 v 0.14 h 0.01 v 0.13 h 0.01 v 0.14 0 0.14 h 0.03 v 0.13 h 0.01 v 0.14 0 0.14 h 0.01 v 0.13 0 0.14 h 0.03 v 0.14 0 0.13 h 0.01 v 0.14 h 0.01 v 0.13 h 0.01 v 0.14 h 0.01 v 0.14 h 0.02 v 0.13 h 0.01 v 0.14 0 0.14 h 0.01 v 0.13 0 0.14 0 0.14 h 0.01 v 0.13 h 0.01 v 0.14 0 0.14 h 0.01 v 0.13 0 0.14 0 0.13 0 0.14 h 0.01 v 0.14 0 0.13 h 0.03 v 0.14 0 0.14 h 0.02 v 0.13 0 0.14 h 0.03 v 0.14 h 0.02 v 0.13 0 0.14 h 0.03 v 0.14 h 0.01 v 0.13 h 0.01 v 0.14 0 0.13 h 0.02 v 0.14 h 0.03 v 0.14 h 0.02 v 0.13 h 0.03 v 0.14 h 0.01 v 0.14 h 0.01 v 0.13 h 0.01 v 0.14 h 0.01 v 0.14 h 0.02 v 0.13 h 0.02 v 0.14 h 0.02 v 0.14 h 0.02 v 0.13 h 0.09 v 0.14 h 0.04 v 0.13 h 0.02 v 0.14 h 0.02 v 0.14 0 0.13 0 0.14 h 0.01 v 0.14 0 0.13 h 0.05 v 0.14 0 0.14 h 0.11 v 0.13 h 0.07 v 0.14 0 0.14 h 0.03 v 0.13 h 0.03 v 0.14 h 0.01 v 0.13 h 0.02 v 0.14 h 0.02 v 0.14 h 0.01 v 0.13 h 0.01 v 0.14 h 0.01 v 0.14 h 0.04 v 0.13 0 0.14 h 0.01 v 0.14 h 0.03 v 0.13 h 0.01 v 0.14 h 0.03 v 0.14 h 0.06 v 0.13 h 0.02 v 0.14 h 0.05 v 0.13 h 0.03 v 0.14 h 0.06 v 0.14 h 0.02 v 0.13 h 0.04 v 0.14 h 0.02 v 0.14 h 0.04 v 0.13 h 0.01 v 0.14 h 0.03 v 0.14 H 63 v 0.13 h 0.03 v 0.14 h 0.03 v 0.14 h 0.04 v 0.13 h 0.01 v 0.14 h 0.06 v 0.13 h 0.02 v 0.14 h 0.05 v 0.14 0 0.13 h 0.05 v 0.14 0 0.14 h 0.05 v 0.13 h 0.04 v 0.14 h 0.02 v 0.14 h 0.03 v 0.13 h 0.01 v 0.14 h 0.03 v 0.13 h 0.03 v 0.14 h 0.02 v 0.14 0 0.13 h 0.02 v 0.14 h 0.01 v 0.14 h 0.01 v 0.13 h 0.01 v 0.14 h 0.01 v 0.14 h 0.03 v 0.13 h 0.01 v 0.14 h 0.05 v 0.14 h 0.01 v 0.13 h 0.02 v 0.14 h 0.01 v 0.13 h 0.01 v 0.14 h 0.03 v 0.14 h 0.04 v 0.13 h 0.01 v 0.14 0 0.14 h 0.01 v 0.13 h 0.04 v 0.14 h 0.07 v 0.14 h 0.02 v 0.13 h 0.01 v 0.14 h 0.04 v 0.14 h 0.1 v 0.13 h 0.02 v 0.14 0 0.13 h 0.05 v 0.14 h 0.03 v 0.14 h 0.07 v 0.13 h 0.02 v 0.14 h 0.03 v 0.14 h 0.03 v 0.13 h 0.05 v 0.14 h 0.06 v 0.14 h 0.09 v 0.13 h 0.04 v 0.14 h 0.06 v 0.14 h 0.04 v 0.13 h 0.01 v 0.14 h 0.09 v 0.13 h 0.02 v 0.14 h 0.12 v 0.14 h 0.01 v 0.13 h 0.01 v 0.14 H 65 v 0.14 h 0.02 v 0.13 h 0.02 v 0.14 h 0.01 v 0.14 0 0.13 h 0.01 v 0.14 h 0.05 v 0.14 h 0.04 v 0.13 h 0.07 v 0.14 0 0.13 h 0.16 v 0.14 h 0.02 v 0.14 h 0.01 v 0.13 h 0.08 v 0.14 h 0.01 v 0.14 h 0.06 v 0.13 0 0.14 h 0.01 v 0.14 h 0.06 v 0.13 h 0.03 v 0.14 h 0.03 v 0.14 h 0.02 v 0.13 h 0.01 v 0.14 h 0.03 v 0.13 h 0.02 v 0.14 0 0.14 h 0.01 v 0.13 h 0.07 v 0.14 h 0.06 v 0.14 h 0.04 v 0.13 h 0.03 v 0.14 h 0.03 v 0.14 h 0.04 v 0.13 h 0.09 v 0.14 0 0.14 h 0.01 v 0.13 h 0.03 v 0.14 h 0.06 v 0.13 h 0.08 v 0.14 h 0.06 v 0.14 h 0.1 v 0.13 h 0.06 v 0.14 h 0.02 v 0.14 h 0.17 v 0.13 h 0.04 v 0.14 h 0.03 v 0.14 h 0.12 v 0.13 h 0.04 v 0.14 h 0.08 v 0.14 h 0.03 v 0.13 h 0.01 v 0.14 h 0.02 v 0.13 h 0.06 v 0.14 h 0.01 v 0.14 h 0.02 v 0.13 h 0.03 v 0.14 h 0.01 v 0.14 h 0.01 v 0.13 h 0.02 v 0.14 h 0.05 v 0.14 0 0.13 h 0.04 v 0.14 h 0.03 v 0.14 h 0.08 v 0.13 h 0.04 v 0.14 h 0.02 v 0.13 h 0.07 v 0.14 h 0.01 v 0.14 h 0.23 v 0.13 h 0.01 v 0.14 0 0.14 h 0.06 v 0.13 h 0.02 v 0.14 h 0.05 v 0.14 h 0.01 v 0.13 0 0.14 h 0.03 v 0.14 h 0.01 v 0.13 h 0.02 v 0.14 0 0.13 h 0.03 v 0.14 h 0.05 v 0.14 h 0.06 v 0.13 h 0.14 v 0.14 0 0.14 0 0.13 h 0.03 v 0.14 h 0.05 v 0.14 h 0.02 v 0.13 h 0.11 v 0.14 h 0.09 v 0.13 h 0.02 v 0.14 h 0.01 v 0.14 h 0.04 v 0.13 h 0.07 v 0.14 h 0.04 v 0.14 h 0.06 v 0.13 h 0.12 v 0.14 h 0.22 v 0.14 h 0.08 v 0.13 h 0.12 v 0.14 h 0.01 v 0.14 h 0.01 v 0.13 h 0.03 v 0.14 h 0.01 v 0.13 h 0.01 v 0.14 h 0.01 v 0.14 h 0.01 v 0.13 h 0.01 v 0.14 h 0.06 v 0.14 h 0.06 v 0.13 h 0.07 v 0.14 h 0.16 v 0.14 h 0.06 v 0.13 h 0.02 v 0.14 h 0.01 v 0.14 0 0.13 h 0.11 v 0.14 h 0.02 v 0.13 h 0.04 v 0.14 h 0.04 v 0.14 h 0.03 v 0.13 h 0.01 v 0.14 h 0.03 v 0.14 0 0.13 h 0.1 v 0.14 h 0.16 v 0.14 h 0.01 v 0.13 h 0.03 v 0.14 0 0.14 h 0.01 v 0.13 h 0.01 v 0.14 h 0.05 v 0.13 h 0.05 v 0.14 h 0.1 v 0.14 h 0.01 v 0.13 h 0.37 v 0.14 h 0.07 v 0.14 h 0.07 v 0.13 h 0.09 v 0.14 h 0.09 v 0.14 h 0.02 v 0.13 h 0.11 v 0.14 h 0.08 v 0.14 h 0.08 v 0.13 h 0.03 v 0.14 h 0.15 v 0.13 h 0.03 v 0.14 h 0.19 v 0.14 h 0.17 v 0.13 h 0.02 v 0.14 h 0.01 v 0.14 h 0.09 v 0.13 h 0.01 v 0.14 h 0.03 v 0.14 h 0.02 v 0.13 h 0.02 v 0.14 h 0.01 v 0.14 0 0.13 h 0.03 v 0.14 h 0.04 v 0.13 0 0.14 h 0.11 v 0.14 h 0.01 v 0.13 h 0.06 v 0.14 h 0.26 v 0.14 h 0.29 v 0.13 0 0.14 h 0.05 v 0.14 h 0.04 v 0.13 h 0.17 v 0.14 h 0.01 v 0.14 h 0.05 v 0.13 h 0.03 v 0.14 h 0.04 v 0.13 h 0.06 v 0.14 h 0.01 v 0.14 h 0.06 v 0.13 h 0.01 v 0.14 h 0.05 v 0.14 h 0.05 v 0.13 h 0.02 v 0.14 0 0.14 h 0.15 v 0.13 h 0.06 v 0.14 h 0.01 v 0.14 0 0.13 h 0.11 v 0.14 h 0.01 v 0.13 h 0.06 v 0.14 h 0.02 v 0.14 h 0.12 v 0.13 h 0.06 v 0.14 0 0.14 h 0.05 v 0.13 0 0.14 h 0.03 v 0.14 h 0.08 v 0.13 0 0.14 0 0.14 h 0.01 v 0.13 h 0.01 v 0.14 h 0.03 v 0.13 h 0.02 v 0.14 h 0.04 v 0.14 h 0.08 v 0.13 h 0.01 v 0.14 h 0.05 v 0.14 h 0.07 v 0.13 0 0.14 h 0.01 v 0.14 h 0.13 v 0.13 h 0.03 v 0.14 h 0.01 v 0.14 h 0.03 v 0.13 h 0.09 v 0.14 h 0.06 v 0.13 h 0.04 v 0.14 h 0.09 v 0.14 h 0.08 v 0.13 h 0.27 v 0.14 h 0.01 v 0.14 h 0.06 v 0.13 h 0.08 v 0.14 h 0.07 v 0.14 h 0.03 v 0.13 h 0.19 v 0.14 h 0.11 v 0.13 h 0.01 v 0.14 h 0.05 v 0.14 h 0.04 v 0.13 h 0.03 v 0.14 h 0.02 v 0.14 h 0.05 v 0.13 h 0.01 v 0.14 h 0.05 v 0.14 h 0.06 v 0.13 h 0.01 v 0.14 0 0.14 h 0.05 v 0.13 h 0.02 v 0.14 h 0.19 v 0.13 h 0.11 v 0.14 h 0.07 v 0.14 h 0.09 v 0.13 h 0.01 v 0.14 0 0.14 h 0.09 v 0.13 h 0.04 v 0.14 h 0.01 v 0.14 h 0.06 v 0.13 h 0.15 v 0.14 h 0.05 v 0.14 h 0.06 v 0.13 h 0.05 v 0.14 h 0.29 v 0.13 h 0.09 v 0.14 h 0.1 v 0.14 h 0.08 v 0.13 h 0.1 v 0.14 h 0.01 v 0.14 h 0.04 v 0.13 h 0.02 v 0.14 h 0.03 v 0.14 h 0.03 v 0.13 h 0.11 v 0.14 h 0.07 v 0.14 h 0.08 v 0.13 h 0.11 v 0.14 h 0.09 v 0.13 h 0.02 v 0.14 h 0.16 v 0.14 h 0.01 v 0.13 h 0.02 v 0.14 h 0.11 v 0.14 h 0.02 v 0.13 h 0.01 v 0.14 h 0.03 v 0.14 h 0.08 v 0.13 h 0.04 v 0.14 h 0.01 v 0.14 h 0.01 v 0.13 h 0.51 v 0.14 h 0.21 v 0.13 h 0.05 v 0.14 h 0.11 v 0.14 h 0.21 v 0.13 h 0.12 v 0.14 h 0.01 v 0.14 h 0.07 v 0.13 h 0.01 v 0.14 h 0.15 v 0.14 h 0.05 v 0.13 h 0.01 v 0.14 h 0.14 v 0.14 h 0.1 v 0.13 0 0.14 h 0.04 v 0.13 h 0.02 v 0.14 h 0.22 v 0.14 h 0.02 v 0.13 h 0.02 v 0.14 h 0.03 v 0.14 h 0.13 v 0.13 h 0.11 v 0.14 h 0.01 v 0.14 h 0.24 v 0.13 h 0.04 v 0.14 h 0.09 v 0.14 h 0.15 v 0.13 h 0.27 v 0.14 h 0.01 v 0.13 h 0.08 v 0.14 h 0.07 v 0.14 h 0.08 v 0.13 h 0.11 v 0.14 h 0.05 v 0.14 h 0.08 v 0.13 h 0.01 v 0.14 h 0.05 v 0.14 h 0.04 v 0.13 h 0.13 v 0.14 h 0.06 v 0.14 h 0.01 v 0.13 h 0.34 v 0.14 h 0.01 v 0.13 h 0.02 v 0.14 h 0.02 v 0.14 h 0.26 v 0.13 h 0.27 v 0.14 h 0.02 v 0.14 h 0.17 v 0.13 h 0.05 v 0.14 h 0.19 v 0.14 h 0.2 v 0.13 h 0.14 v 0.14 h 0.02 v 0.14 h 0.1 v 0.13 h 0.12 v 0.14 h 0.12 v 0.13 h 0.03 v 0.14 h 0.11 v 0.14 h 0.02 v 0.13 h 0.1 v 0.14 h 0.02 v 0.14 h 0.06 v 0.13 0 0.14 h 0.03 v 0.14 h 0.04 v 0.13 h 0.01 v 0.14 h 0.02 v 0.14 h 0.11 v 0.13 h 0.3 v 0.14 h 0.35 v 0.13 h 0.06 v 0.14 h 0.08 v 0.14 h 0.09 v 0.13 h 0.01 v 0.14 h 0.25 v 0.14 h 0.07 v 0.13 h 0.14 v 0.14 H 87.6 V 174 h 0.05 v 0.13 h 0.05 v 0.14 h 0.04 v 0.13 h 0.04 v 0.14 h 0.02 v 0.14 h 0.01 v 0.13 h 0.02 v 0.14 h 0.23 v 0.14 0 0.13 h 0.04 v 0.14 h 0.13 v 0.14 0 0.13 h 0.01 v 0.14 h 0.05 v 0.14 0 0.13 h 0.01 v 0.14 h 0.02 v 0.13 h 0.09 v 0.14 h 0.06 v 0.14 h 0.01 v 0.13 h 0.06 v 0.14 h 0.02 V 177 h 0.34 v 0.13 h 0.05 v 0.14 h 0.19 v 0.14 h 0.11 v 0.13 h 0.02 v 0.14 h 0.18 v 0.14 h 0.02 v 0.13 h 0.3 v 0.14 h 0.07 v 0.13 h 0.04 v 0.14 h 0.14 v 0.14 h 0.11 v 0.13 h 0.06 v 0.14 h 0.01 v 0.14 h 0.06 v 0.13 h 0.01 v 0.14 h 0.09 v 0.14 h 0.01 v 0.13 h 0.1 v 0.14 h 0.07 v 0.14 h 0.08 v 0.13 h 0.12 V 180 h 0.47 v 0.13 h 0.12 v 0.14 h 0.04 v 0.14 h 0.03 v 0.13 h 0.06 v 0.14 h 0.33 v 0.14 h 0.03 v 0.13 h 0.04 v 0.14 h 0.02 v 0.14 h 0.17 v 0.13 h 0.07 v 0.14 h 0.3 v 0.14 h 0.01 v 0.13 h 0.03 v 0.14 0 0.13 h 0.03 v 0.14 h 0.05 v 0.14 h 0.15 v 0.13 H 93 v 0.14 h 0.1 v 0.14 h 0.16 v 0.13 h 0.03 V 183 h 0.2 v 0.14 h 1 v 0.13 h 0.08 v 0.14 h 0.11 v 0.14 h 0.08 v 0.13 h 0.17 v 0.14 h 0.26 v 0.13 h 0.02 v 0.14 h 0.03 v 0.14 h 0.05 v 0.13 h 0.11 v 0.14 h 0.04 v 0.14 h 0.02 v 0.13 h 0.04 v 0.14 h 0.96 v 0.14 h 0.12 v 0.13 h 0.11 v 0.14 h 0.01 v 0.14 h 0.03 v 0.13 h 0.09 v 0.14 h 0.35 v 0.13 h 0.15 V 186 h 0.12 v 0.14 h 0.24 v 0.13 h 0.98 v 0.14 h 0.12 v 0.14 h 0.05 v 0.13 0 0.14 h 0.02 v 0.14 h 0.11 v 0.13 h 0.06 v 0.14 h 0.04 v 0.14 h 0.01 v 0.13 h 0.2 v 0.14 h 0.18 v 0.13 h 0.2 v 0.14 h 0.45 v 0.14 h 0.07 v 0.13 h 0.3 v 0.14 h 0.1 v 0.14 h 0.01 v 0.13 h 0.02 v 0.14 h 0.21 v 0.14 h 0.04 V 189 h 0.08 v 0.14 h 0.04 v 0.14 H 101 v 0.13 h 0.06 v 0.14 h 0.12 v 0.13 0 0.14 h 0.14 v 0.14 0 0.13 h 0.11 v 0.14 h 0.12 v 0.14 h 0.09 v 0.13 h 0.3 v 0.14 h 0.09 v 0.14 h 0.05 v 0.13 h 0.06 v 0.14 h 0.19 v 0.14 h 0.2 v 0.13 h 0.01 v 0.14 h 0.1 v 0.13 h 0.42 v 0.14 h 0.41 v 0.14 h 0.01 V 192 h 0.03 v 0.14 h 0.13 v 0.14 h 0.04 v 0.13 H 104 v 0.14 h 0.24 v 0.14 h 0.39 v 0.13 h 0.3 v 0.14 h 0.18 v 0.13 h 0.03 v 0.14 h 0.07 v 0.14 h 0.32 v 0.13 h 0.03 v 0.14 h 0.08 v 0.14 h 0.02 v 0.13 h 0.26 v 0.14 h 0.32 v 0.14 h 0.18 v 0.13 h 0.13 v 0.14 h 0.65 v 0.14 h 0.19 v 0.13 h 0.06 v 0.14 h 0.27 V 195 h 0.3 v 0.14 h 0.04 v 0.14 h 0.04 v 0.13 h 0.74 v 0.14 h 0.13 v 0.14 0 0.13 h 0.34 v 0.14 h 0.26 v 0.14 h 0.16 v 0.13 h 0.35 v 0.14 h 0.06 v 0.14 h 0.08 v 0.13 h 0.37 v 0.14 h 0.05 v 0.13 h 0.24 v 0.14 h 0.11 v 0.14 h 0.24 v 0.13 h 0.25 v 0.14 h 0.74 v 0.14 h 0.21 v 0.13 h 0.45 v 0.14 h 0.11 v 0.14 h 0.14 v 0.13 h 0.09 v 0.14 h 0.06 v 0.14 h 0.09 v 0.13 h 0.01 v 0.14 h 0.07 v 0.13 h 0.12 v 0.14 h 0.09 v 0.14 h 0.2 v 0.13 h 0.28 v 0.14 h 0.03 v 0.14 h 0.06 v 0.13 h 0.02 v 0.14 h 0.31 v 0.14 h 0.02 v 0.13 h 0.01 v 0.14 h 0.03 v 0.14 h 0.2 v 0.13 h 0.32 v 0.14 h 0.06 v 0.13 h 0.35 v 0.14 h 0.05 v 0.14 h 0.01 v 0.13 h 0.45 v 0.14 h 0.23 v 0.14 h 0.29 v 0.13 h 0.05 v 0.14 h 0.15 v 0.14 h 0.1 v 0.13 h 0.14 v 0.14 h 0.03 v 0.14 h 0.84 v 0.13 h 0.02 v 0.14 h 0.04 v 0.13 h 0.15 v 0.14 h 0.45 v 0.14 h 0.4 v 0.13 h 0.16 v 0.14 h 0.12 v 0.14 h 0.14 v 0.13 h 0.13 v 0.14 h 0.06 v 0.14 h 0.34 v 0.13 h 0.07 v 0.14 h 0.05 v 0.14 h 0.01 v 0.13 h 0.19 v 0.14 h 0.38 v 0.13 h 0.13 v 0.14 h 0.05 v 0.14 h 0.1 v 0.13 h 0.05 v 0.14 h 0.01 v 0.14 h 0.14 v 0.13 h 0.02 v 0.14 h 0.09 v 0.14 h 0.11 v 0.13 h 0.1 v 0.14 h 0.1 v 0.14 h 0.07 v 0.13 h 0.1 v 0.14 h 0.19 v 0.13 h 0.24 v 0.14 h 0.31 v 0.14 h 0.36 v 0.13 h 0.08 v 0.14 h 0.28 v 0.14 h 0.07 v 0.13 h 0.2 v 0.14 h 0.02 v 0.14 H 124 v 0.13 h 0.13 v 0.14 h 0.18 v 0.14 h 0.22 v 0.13 h 0.12 v 0.14 h 0.63 v 0.13 h 0.7 v 0.14 h 0.04 v 0.14 h 0.63 v 0.13 h 0.13 v 0.14 h 0.05 v 0.14 h 0.09 v 0.13 h 0.42 v 0.14 h 0.34 v 0.14 h 0.15 v 0.13 h 0.22 v 0.14 h 0.08 v 0.14 h 0.15 v 0.13 h 0.22 v 0.14 h 0.36 v 0.13 h 0.65 v 0.14 h 0.02 v 0.14 h 0.37 v 0.13 h 0.23 v 0.14 h 0.01 v 0.14 h 0.08 v 0.13 h 0.61 v 0.14 0 0.14 h 0.38 v 0.13 h 0.3 v 0.14 0 0.13 h 0.36 v 0.14 h 0.32 v 0.14 h 0.24 v 0.13 h 1.09 v 0.14 h 0.62 v 0.14 h 0.06 v 0.13 h 0.13 v 0.14 h 0.32 v 0.14 h 0.23 v 0.13 h 0.16 v 0.14 h 0.25 v 0.14 h 0.08 v 0.13 h 0.16 v 0.14 h 0.29 v 0.13 h 0.51 v 0.14 h 0.13 v 0.14 h 0.12 v 0.13 h 0.13 v 0.14 h 0.11 v 0.14 h 0.11 v 0.13 h 0.17 v 0.14 h 0.04 v 0.14 h 0.29 v 0.13 h 0.49 v 0.14 h 0.15 v 0.14 h 0.44 v 0.13 h 0.22 v 0.14 h 0.35 v 0.13 h 0.91 v 0.14 h 0.53 v 0.14 h 0.31 v 0.13 h 0.12 v 0.14 h 0.02 v 0.14 h 0.11 v 0.13 h 0.23 v 0.14 h 0.33 v 0.14 h 0.04 v 0.13 h 0.1 v 0.14 h 0.25 v 0.14 h 0.45 v 0.13 h 0.02 v 0.14 h 0.19 v 0.13 h 0.42 v 0.14 h 0.17 v 0.14 h 0.16 v 0.13 h 0.34 v 0.14 h 0.65 v 0.14 h 0.43 v 0.13 h 0.42 v 0.14 h 0.31 v 0.14 h 0.12 v 0.13 h 0.18 v 0.14 h 0.21 v 0.14 h 0.14 v 0.13 h 0.16 v 0.14 h 0.31 v 0.13 h 0.09 v 0.14 h 0.09 v 0.14 h 0.22 v 0.13 h 0.03 v 0.14 h 0.4 v 0.14 h 0.27 v 0.13 h 0.38 v 0.14 h 0.35 v 0.14 h 0.61 v 0.13 h 0.09 v 0.14 h 0.6 v 0.14 h 0.13 v 0.13 h 0.08 v 0.14 h 0.06 v 0.13 h 0.33 v 0.14 h 0.41 v 0.14 h 0.32 v 0.13 h 0.2 v 0.14 h 0.11 v 0.14 h 0.63 v 0.13 h 0.04 v 0.14 h 0.64 v 0.14 h 0.01 v 0.13 h 0.95 v 0.14 h 0.13 v 0.14 h 0.11 v 0.13 h 0.99 v 0.14 h 1 v 0.13 h 0.25 v 0.14 h 0.03 v 0.14 h 0.15 v 0.13 h 0.21 v 0.14 h 0.96 v 0.14 H 158 v 0.13 h 0.38 v 0.14 h 0.29 v 0.14 h 1.43 v 0.13 h 0.32 v 0.14 h 0.32 v 0.14 h 0.22 v 0.13 h 0.05 v 0.14 h 0.23 v 0.13 h 1.2 v 0.14 h 0.34 v 0.14 h 0.14 v 0.13 h 0.23 v 0.14 h 0.07 v 0.14 h 0.17 v 0.13 h 0.06 v 0.14 h 0.13 v 0.14 h 0.9 v 0.13 h 0.67 v 0.14 h 0.19 v 0.14 h 0.06 v 0.13 h 0.42 v 0.14 h 0.16 v 0.13 h 0.14 v 0.14 h 0.47 v 0.14 h 0.3 v 0.13 h 0.43 v 0.14 h 0.28 v 0.14 h 0.03 v 0.13 h 0.17 v 0.14 h 0.03 v 0.14 h 0.92 v 0.13 h 0.97 v 0.14 h 0.42 v 0.14 h 0.05 v 0.13 h 0.05 v 0.14 h 0.18 v 0.13 h 1.38 v 0.14 h 0.58 v 0.14 h 1.76 v 0.13 h 0.08 v 0.14 h 0.1 v 0.14 h 0.23 v 0.13 h 0.41 v 0.14 h 1.17 v 0.14 h 0.6 v 0.13 h 0.3 v 0.14 h 0.37 v 0.14 h 0.09 v 0.13 h 0.65 v 0.14 h 0.43 v 0.13 h 0.01 v 0.14 h 0.1 v 0.14 h 0.45 v 0.13 h 1.25 v 0.14 h 0.06 v 0.14 h 0.61 v 0.13 h 0.17 v 0.14 h 0.63 v 0.14 h 0.87 v 0.13 h 0.08 v 0.14 h 0.14 v 0.13 h 0.01 v 0.14 h 0.86 v 0.14 h 0.06 v 0.13 H 184 v 0.14 h 0.19 v 0.14 h 0.38 v 0.13 h 0.22 v 0.14 h 0.25 v 0.14 h 0.49 v 0.13 h 0.4 v 0.14 h 0.76 v 0.14 h 0.39 v 0.13 h 0.07 v 0.14 h 0.04 v 0.13 h 0.08 v 0.14 h 0.2 v 0.14 h 0.06 v 0.13 h 0.11 v 0.14 h 0.27 v 0.14 h 0.99 v 0.13 h 0.01 v 0.14 h 0.05 v 0.14 h 0.29 v 0.13 h 0.03 v 0.14 h 0.22 v 0.14 h 0.03 v 0.13 h 0.17 v 0.14 h 0.18 v 0.13 h 0.37 v 0.14 h 0.06 v 0.14 h 0.25 v 0.13 h 0.39 v 0.14 h 0.19 v 0.14 h 0.21 v 0.13 h 0.2 v 0.14 h 0.23 v 0.14 h 0.34 v 0.13 h 1.6 v 0.14 h 0.58 v 0.14 h 0.06 v 0.13 h 0.72 v 0.14 h 0.5 v 0.13 h 0.28 v 0.14 h 0.09 v 0.14 h 0.1 v 0.13 h 0.3 v 0.14 h 0.78 v 0.14 h 0.41 v 0.13 h 0.23 v 0.14 h 0.89 v 0.14 h 0.04 v 0.13 h 0.75 v 0.14 h 0.41 v 0.14 h 0.37 v 0.13 h 0.7 v 0.14 h 0.41 v 0.13 h 0.42 v 0.14 h 0.69 v 0.14 h 0.14 v 0.13 h 0.39 v 0.14 h 0.17 v 0.14 h 2.18 v 0.13 h 0.1 v 0.14 h 3.26 v 0.14 h 3.19 v 0.13 h 0.63 v 0.14 h 2.35 v 0.14 h 1.79 v 0.13 h 0.38 v 0.14 h 1.46 v 0.13 h 1.22 v 0.14 h 0.49 v 0.14 h 0.37 v 0.13 h 0.12 v 0.14 h 0.9 v 0.14 h 2.1 v 0.13 h 0.56 v 0.14 h 1 v 0.14 h 2.71 v 0.13 h 0.25 v 0.14 h 1.44 v 0.14 h 1.14 v 0.13 h 0.28 v 0.14 h 0.41 v 0.13 h 0.57 v 0.14 h 0.99 v 0.14 h 0.37 v 0.13 h 3.22 v 0.14 h 0.51 v 0.14 h 0.97 v 0.13 h 0.7 v 0.14 h 0.46 v 0.14 h 3.07 v 0.13 h 1.75 v 0.14 h 0.19 v 0.14 h 2.51 v 0.13 h 0.13 v 0.14 h 0.16 v 0.13 h 1.06 v 0.14 h 0.13 v 0.14 h 0.78 v 0.13 h 0.13 v 0.14 h 0.02 v 0.14 h 3.82 v 0.13 h 1.9 v 0.14 h 0.05 v 0.14 h 0.96 v 0.13 h 0.15 v 0.14 h 1.66 v 0.14 h 0.93 v 0.13 h 3.59 v 0.14 H 265 v 0.13 h 1.53 v 0.14 0 0.14 h 0.49 v 0.13 h 1.5 v 0.14 h 5.06 v 0.14 h 0.05 v 0.13 h 0.38 v 0.14 h 0.41 v 0.14 h 0.9 v 0.13 h 0.5 v 0.14 h 2.37 v 0.14 h 1.85 v 0.13 h 2.79 v 0.14 h 1.54 v 0.13 h 0.6 v 0.14 h 2.32 v 0.14 h 0.94 v 0.13 h 2.94 v 0.14 0 0.14 h 3.37 v 0.13 h 1.56 v 0.14 h 0.3 v 0.14 h 1.27 v 0.13 h 0.49 v 0.14 h 1.26 v 0.13 h 4.62 v 0.14 h 1.9 v 0.14 h 1.67 v 0.13 h 0.85 v 0.14 h 1 v 0.14 h 0.62 v 0.13 h 1.56 v 0.14 h 0.03 v 0.14 h 2.55 v 0.13 h 0.24 v 0.14 h 1.14 v 0.14 h 5.68 v 0.13 h 1.81 v 0.14 h 1.26 v 0.13 h 2.27 v 0.14 h 0.05 v 0.14 h 0.54 v 0.13 h 1.52 v 0.14 h 0.38 v 0.14 h 2.3 v 0.13 0 0.14 h 2.65 v 0.14 h 1.22 v 0.13 h 1.5 v 0.14 h 2.17 v 0.14 h 4.65 v 0.13 h 1.74 v 0.14 h 5.17 v 0.13 h 2.64 v 0.14 h 0.11 v 0.14 h 5.25 v 0.13 h 3.47 v 0.14 h 1.34 v 0.14 h 4.29 v 0.13 h 2.82 v 0.14 h 2.91 v 0.14 h 3.15 v 0.13 h 1.98 v 0.14 h 2.17 v 0.14 h 2.31 v 0.13 h 0.99 v 0.14 h 4.2 v 0.13 h 0.91 v 0.14 h 5.64 v 0.14 h 0.21 v 0.13 h 0.22 v 0.14 h 0.14 v 0.14 h 1.88 v 0.13 h 6.6 v 0.14 h 5.72 v 0.14 h 0.34 v 0.13 h 2.92 v 0.14 h 2.57 v 0.14 h 3.55 v 0.13 h 3.31 v 0.14 h 2.09 v 0.13 h 2.37 v 0.14 h 1.45 v 0.14 h 0.41 v 0.13 h 1.22 v 0.14 h 0.85 v 0.14 h 0.13 v 0.13 h 1.2 v 0.14 h 2.73 v 0.14 h 1.94 v 0.13 h 4.16 v 0.14 h 8.8 v 0.14 h 1.51 v 0.13 h 0.67 v 0.14 h 0.89 v 0.13 h 9.34 v 0.14 h 3.87 v 0.14 h 8.75 v 0.13 h 4.9 v 0.14 h 1.03 v 0.14 h 9.51 v 0.13 h 0.38 v 0.14 h 20.35 v 0.14 h 5.5 v 0.13 h 11.85 v 0.14 h 0.18 v 0.14 h 7.11 v 0.13 h 0.62 v 0.14 h 2.66 v 0.13 h 1.22 v 0.14 h 0.36 v 0.14 h 5.05 v 0.13 h 0.62 v 0.14 h 5.31 v 0.14 h 14.77 v 0.13 h 1.61 v 0.14 h 1.69 v 0.14 h 6.1 v 0.13 h 1.24 v 0.14 h 5.39 v 0.14 h 26.33 v 0.13 h 3.53 v 0.14 h 0.64 v 0.13 h 11.79 v 0.14 h 4.95 v 0.14 h 1.03 v 0.13 h 5.96 v 0.14 h 4.65 v 0.14 h 6.99 v 0.13 h 4.96 v 0.14 h 3.41 v 0.14 h 3.72 v 0.13 h 0.79 v 0.14 h 3 v 0.14 h 0.15 v 0.13 h 2.66 v 0.14 h 4.63 v 0.13 h 11.64 v 0.14 h 3.8 v 0.14 h 46.01 v 0.13 h 19 v 0.14 h 14.59 v 0.14 h 13.04 v 0.13 h 19.22 v 0.14 h 8.8 v 0.14 h 9.96 v 0.13 h 6.57 v 0.14 h 14.64 v 0.14 h 13.61 v 0.13 h 6.56 v 0.14 h 4.87 v 0.13 h 20.29 v 0.14 h 4 v 0.14 h 20.84 v 0.13 h 32.97 v 0.14 h 10.46 v 0.14 h 24.17 v 0.13 h 14.87 v 0.14 h 7.08 v 0.14 h 147.79 v 0.13 h 1.16 v 0.14 h 46.9 v 0.13 h 25.5 v 0.14 h 62.61 v 0.14 h 29.42 v 0.13 h 99.72 v 0.14 h 0.14 v 0.14 h 107.17 v 0.13 h 5.61 v 0.14 h 80.16 v 0.14 h 95.54 v 0.13 h 352.27 v 0.14 H 930.52 v 0"
           style="fill:none;stroke:#cea32d;stroke-width:1.07;stroke-linecap:butt;stroke-linejoin:round;stroke-miterlimit:10;stroke-dasharray:none;stroke-opacity:1"
           id="path128" /><path
           d="m 40.98,43.3 h 18.34 v 18.99 0 18.98 h 0.01 v 18.99 h 0.01 v 18.98 h 0.06 v 18.99 h 0.9 v 18.99 h 1.2 v 18.98 h 0.73 v 18.99 h 0.66 v 18.98 h 2.12 v 18.99 h 103.75 v 18.98 h 28.93 v 18.99 h 732.83 v 0"
           style="fill:none;stroke:#b47229;stroke-width:1.07;stroke-linecap:butt;stroke-linejoin:round;stroke-miterlimit:10;stroke-dasharray:none;stroke-opacity:1"
           id="path130" /><path
           d="m 40.98,43.3 h 18.34 v 13.1 0 2.61 0 2.62 0 2.62 0 2.62 0 2.62 0 2.62 0 2.62 0 2.62 0 2.61 0 2.62 0 2.62 0 2.62 0 2.62 h 0.01 v 2.62 0 2.62 0 2.61 0 2.62 h 0.02 v 2.62 h 0.01 v 2.62 0 2.62 h 0.03 v 2.62 h 0.06 v 2.62 0 2.62 h 0.04 v 2.61 h 0.01 v 2.62 h 0.01 v 2.62 h 0.02 v 2.62 h 0.01 v 2.62 h 0.01 v 2.62 0 2.62 h 0.05 v 2.62 0 2.61 0 2.62 h 0.02 v 2.62 h 0.01 v 2.62 h 0.81 v 2.62 h 0.11 v 2.62 h 0.71 v 2.62 h 0.01 v 2.61 h 0.05 v 2.62 h 0.03 v 2.62 h 0.16 v 2.62 h 0.04 V 169 h 0.35 v 2.62 h 0.31 v 2.62 h 0.74 v 2.62 h 0.39 v 2.61 h 0.22 v 2.62 h 0.53 v 2.62 h 0.86 v 2.62 h 0.85 v 2.62 h 0.27 v 2.62 h 0.36 v 2.62 h 0.3 v 2.62 h 1.16 v 2.61 h 0.02 v 2.62 h 0.02 v 2.62 h 2.06 v 2.62 h 0.34 v 2.62 h 0.7 v 2.62 h 1.71 v 2.62 h 1.97 v 2.62 h 0.18 v 2.61 h 0.22 v 2.62 h 4.59 v 2.62 h 1.64 v 2.62 h 0.52 v 2.62 h 3.06 v 2.62 h 2.62 v 2.62 h 38.57 v 2.61 h 6.65 v 2.62 h 1.53 v 2.62 h 4.38 v 2.62 h 7.03 v 2.62 h 31.6 v 2.62 h 47.54 v 2.62 h 10.02 v 2.62 h 73.66 v 2.61 h 90.23 v 2.62 h 13.33 v 2.62 h 77.71 v 2.62 h 184.24 v 2.62 h 256.49 v 0"
           style="fill:none;stroke:#b05b3a;stroke-width:1.07;stroke-linecap:butt;stroke-linejoin:round;stroke-miterlimit:10;stroke-dasharray:none;stroke-opacity:1"
           id="path132" /><path
           d="m 40.98,43.3 h 18.34 v 11.06 0 4.43 0 2.21 0 2.21 0 6.64 0 6.63 0 4.42 0 2.22 0 2.21 0 2.21 0 2.21 0 2.21 0 2.22 0 2.21 0 2.21 0 2.21 0 2.21 0 2.22 0 2.21 0 2.21 0 2.21 0 2.21 0 2.22 0 2.21 0 2.21 0 2.21 0 4.42 0 2.22 0 2.21 0 2.21 0 2.21 0 2.21 0 2.22 0 4.42 0 2.21 0 4.43 0 2.21 0 2.21 h 0.01 v 2.21 0 2.21 0 2.22 0 2.21 0 2.21 0 2.21 0 2.21 0 2.21 0 2.22 0 2.21 0 2.21 0 2.21 0 2.21 0 2.22 0 2.21 h 0.01 v 2.21 0 2.21 0 2.21 0 2.22 0 2.21 h 0.02 v 2.21 0 2.21 h 0.01 v 2.21 0 2.22 h 0.03 v 2.21 h 0.02 v 2.21 h 0.01 v 2.21 h 0.01 v 2.21 0 2.22 h 0.01 v 2.21 h 0.1 v 2.21 h 0.25 v 2.21 h 0.06 v 2.21 h 0.12 v 2.21 h 0.15 v 2.22 h 0.17 v 2.21 h 0.16 v 2.21 h 0.75 v 2.21 h 0.42 v 2.21 h 0.12 v 2.22 h 2.24 v 2.21 h 1.57 v 2.21 h 0.47 v 2.21 h 4.18 v 2.21 h 2.87 v 2.22 h 11.11 v 2.21 h 5.74 v 2.21 h 20.04 v 2.21 h 10.84 v 2.21 h 3.97 v 2.22 h 133.86 v 2.21 h 383.62 v 2.21 h 288.26 v 0"
           style="fill:none;stroke:#c76766;stroke-width:1.07;stroke-linecap:butt;stroke-linejoin:round;stroke-miterlimit:10;stroke-dasharray:none;stroke-opacity:1"
           id="path134" /><path
           d="m 40.98,43.3 h 18.38 v 9.91 h 0.01 v 9.9 h 0.06 v 9.91 h 0.75 v 9.9 h 0.1 v 9.91 h 0.9 v 9.91 h 0.07 v 9.9 h 0.19 v 9.91 h 2.02 v 9.9 h 0.59 v 9.91 h 0.28 v 9.9 h 0.71 v 9.91 h 0.07 v 9.9 h 3.8 v 9.91 h 1.87 v 9.9 h 1.65 v 9.91 h 1.89 v 9.91 h 5.93 v 9.9 h 16.63 v 9.91 h 30.84 v 9.9 h 33.16 v 9.91 h 65.88 v 9.9 h 6.31 v 9.91 h 697.45 v 0"
           style="fill:none;stroke:#df7492;stroke-width:1.07;stroke-linecap:butt;stroke-linejoin:round;stroke-miterlimit:10;stroke-dasharray:none;stroke-opacity:1"
           id="path136" /><path
           d="m 40.98,43.3 h 18.34 v 16.28 0 16.27 h 0.01 v 16.27 0 16.28 0 16.27 h 0.07 v 16.27 h 0.37 v 16.28 h 0.71 v 16.27 h 1.86 v 16.27 h 2.39 v 16.28 h 5.37 v 16.27 h 20.24 v 16.27 h 26.17 v 16.28 h 132.05 v 16.27 h 681.96 v 0"
           style="fill:none;stroke:#f781bf;stroke-width:1.07;stroke-linecap:butt;stroke-linejoin:round;stroke-miterlimit:10;stroke-dasharray:none;stroke-opacity:1"
           id="path138" /><path
           d="M 261.07,31.91 V 282.52"
           style="fill:none;stroke:#000000;stroke-width:1.07;stroke-linecap:butt;stroke-linejoin:round;stroke-miterlimit:10;stroke-dasharray:1.07, 3.2;stroke-dashoffset:0;stroke-opacity:1"
           id="path140" /><path
           d="M 462.83,31.91 V 282.52"
           style="fill:none;stroke:#000000;stroke-width:1.07;stroke-linecap:butt;stroke-linejoin:round;stroke-miterlimit:10;stroke-dasharray:1.07, 3.2;stroke-dashoffset:0;stroke-opacity:1"
           id="path142" /><path
           d="M 664.58,31.91 V 282.52"
           style="fill:none;stroke:#000000;stroke-width:1.07;stroke-linecap:butt;stroke-linejoin:round;stroke-miterlimit:10;stroke-dasharray:1.07, 3.2;stroke-dashoffset:0;stroke-opacity:1"
           id="path144" /><path
           d="M 866.34,31.91 V 282.52"
           style="fill:none;stroke:#000000;stroke-width:1.07;stroke-linecap:butt;stroke-linejoin:round;stroke-miterlimit:10;stroke-dasharray:1.07, 3.2;stroke-dashoffset:0;stroke-opacity:1"
           id="path146" /></g></g><g
       id="g148" /><g
       id="g150" /><g
       id="g152" /><g
       id="g154" /><g
       id="g156" /><g
       id="g158" /><g
       id="g160" /><g
       id="g162" /><g
       id="g164" /><g
       id="g166" /><g
       id="g168" /><g
       id="g170" /><g
       id="g172" /><g
       id="g174" /><g
       id="g176" /><g
       id="g178"><text
         transform="matrix(1,0,0,-1,18.54,40.07)"
         style="font-variant:normal;font-weight:normal;font-size:9px;font-family:Helvetica;-inkscape-font-specification:Helvetica;writing-mode:lr-tb;fill:#4d4d4d;fill-opacity:1;fill-rule:nonzero;stroke:none"
         id="text182"><tspan
           x="0 5.0040002 7.506 12.51"
           y="0"
           id="tspan180">0.00</tspan></text><text
         transform="matrix(1,0,0,-1,18.54,97.03)"
         style="font-variant:normal;font-weight:normal;font-size:9px;font-family:Helvetica;-inkscape-font-specification:Helvetica;writing-mode:lr-tb;fill:#4d4d4d;fill-opacity:1;fill-rule:nonzero;stroke:none"
         id="text186"><tspan
           x="0 5.0040002 7.506 12.51"
           y="0"
           id="tspan184">0.25</tspan></text><text
         transform="matrix(1,0,0,-1,18.54,153.98)"
         style="font-variant:normal;font-weight:normal;font-size:9px;font-family:Helvetica;-inkscape-font-specification:Helvetica;writing-mode:lr-tb;fill:#4d4d4d;fill-opacity:1;fill-rule:nonzero;stroke:none"
         id="text190"><tspan
           x="0 5.0040002 7.506 12.51"
           y="0"
           id="tspan188">0.50</tspan></text><text
         transform="matrix(1,0,0,-1,18.54,210.94)"
         style="font-variant:normal;font-weight:normal;font-size:9px;font-family:Helvetica;-inkscape-font-specification:Helvetica;writing-mode:lr-tb;fill:#4d4d4d;fill-opacity:1;fill-rule:nonzero;stroke:none"
         id="text194"><tspan
           x="0 5.0040002 7.506 12.51"
           y="0"
           id="tspan192">0.75</tspan></text><text
         transform="matrix(1,0,0,-1,18.54,267.9)"
         style="font-variant:normal;font-weight:normal;font-size:9px;font-family:Helvetica;-inkscape-font-specification:Helvetica;writing-mode:lr-tb;fill:#4d4d4d;fill-opacity:1;fill-rule:nonzero;stroke:none"
         id="text198"><tspan
           x="0 5.0040002 7.506 12.51"
           y="0"
           id="tspan196">1.00</tspan></text></g><g
       id="g200" /><g
       id="g202"><path
         d="m 38.24,43.3 h 2.74"
         style="fill:none;stroke:#333333;stroke-width:1.07;stroke-linecap:butt;stroke-linejoin:round;stroke-miterlimit:10;stroke-dasharray:none;stroke-opacity:1"
         id="path204" /><path
         d="m 38.24,100.26 h 2.74"
         style="fill:none;stroke:#333333;stroke-width:1.07;stroke-linecap:butt;stroke-linejoin:round;stroke-miterlimit:10;stroke-dasharray:none;stroke-opacity:1"
         id="path206" /><path
         d="m 38.24,157.22 h 2.74"
         style="fill:none;stroke:#333333;stroke-width:1.07;stroke-linecap:butt;stroke-linejoin:round;stroke-miterlimit:10;stroke-dasharray:none;stroke-opacity:1"
         id="path208" /><path
         d="m 38.24,214.17 h 2.74"
         style="fill:none;stroke:#333333;stroke-width:1.07;stroke-linecap:butt;stroke-linejoin:round;stroke-miterlimit:10;stroke-dasharray:none;stroke-opacity:1"
         id="path210" /><path
         d="m 38.24,271.13 h 2.74"
         style="fill:none;stroke:#333333;stroke-width:1.07;stroke-linecap:butt;stroke-linejoin:round;stroke-miterlimit:10;stroke-dasharray:none;stroke-opacity:1"
         id="path212" /></g><g
       id="g214" /><g
       id="g216" /><g
       id="g218" /><g
       id="g220" /><g
       id="g222" /><g
       id="g224" /><g
       id="g226" /><g
       id="g228" /><g
       id="g230" /><g
       id="g232"><path
         d="m 59.32,29.17 v 2.74"
         style="fill:none;stroke:#333333;stroke-width:1.07;stroke-linecap:butt;stroke-linejoin:round;stroke-miterlimit:10;stroke-dasharray:none;stroke-opacity:1"
         id="path234" /><path
         d="m 280.27,29.17 v 2.74"
         style="fill:none;stroke:#333333;stroke-width:1.07;stroke-linecap:butt;stroke-linejoin:round;stroke-miterlimit:10;stroke-dasharray:none;stroke-opacity:1"
         id="path236" /><path
         d="m 501.22,29.17 v 2.74"
         style="fill:none;stroke:#333333;stroke-width:1.07;stroke-linecap:butt;stroke-linejoin:round;stroke-miterlimit:10;stroke-dasharray:none;stroke-opacity:1"
         id="path238" /><path
         d="m 722.17,29.17 v 2.74"
         style="fill:none;stroke:#333333;stroke-width:1.07;stroke-linecap:butt;stroke-linejoin:round;stroke-miterlimit:10;stroke-dasharray:none;stroke-opacity:1"
         id="path240" /></g><g
       id="g242" /><g
       id="g244"><text
         transform="matrix(1,0,0,-1,56.82,20.52)"
         style="font-variant:normal;font-weight:normal;font-size:9px;font-family:Helvetica;-inkscape-font-specification:Helvetica;writing-mode:lr-tb;fill:#4d4d4d;fill-opacity:1;fill-rule:nonzero;stroke:none"
         id="text248"><tspan
           x="0"
           y="0"
           id="tspan246">0</tspan></text><text
         transform="matrix(1,0,0,-1,272.76,20.52)"
         style="font-variant:normal;font-weight:normal;font-size:9px;font-family:Helvetica;-inkscape-font-specification:Helvetica;writing-mode:lr-tb;fill:#4d4d4d;fill-opacity:1;fill-rule:nonzero;stroke:none"
         id="text252"><tspan
           x="0 5.0040002 10.008"
           y="0"
           id="tspan250">100</tspan></text><text
         transform="matrix(1,0,0,-1,493.71,20.52)"
         style="font-variant:normal;font-weight:normal;font-size:9px;font-family:Helvetica;-inkscape-font-specification:Helvetica;writing-mode:lr-tb;fill:#4d4d4d;fill-opacity:1;fill-rule:nonzero;stroke:none"
         id="text256"><tspan
           x="0 5.0040002 10.008"
           y="0"
           id="tspan254">200</tspan></text><text
         transform="matrix(1,0,0,-1,714.66,20.52)"
         style="font-variant:normal;font-weight:normal;font-size:9px;font-family:Helvetica;-inkscape-font-specification:Helvetica;writing-mode:lr-tb;fill:#4d4d4d;fill-opacity:1;fill-rule:nonzero;stroke:none"
         id="text260"><tspan
           x="0 5.0040002 10.008"
           y="0"
           id="tspan258">300</tspan></text></g><g
       id="g262" /><g
       id="g264" /><g
       id="g266" /><g
       id="g268" /><g
       id="g270" /><g
       id="g272"><text
         transform="matrix(1,0,0,-1,270.38,7.9)"
         style="font-variant:normal;font-weight:normal;font-size:11px;font-family:Helvetica;-inkscape-font-specification:Helvetica;writing-mode:lr-tb;fill:#000000;fill-opacity:1;fill-rule:nonzero;stroke:none"
         id="text276"><tspan
           x="0 9.1630001 15.279 21.395 23.837 29.952999 36.069 39.126999 45.848 48.290001 57.452999 63.569 66.626999 74.569 77.011002 80.069 82.796997 88.913002 92.575996 98.692001 104.808 110.308 116.424 119.482 125.598 131.714 134.772 142.604 148.72 154.836 160.952 164.00999 171.347 175.175 177.617 183.117 185.55901 188.00101 194.117 200.233 206.349 212.465 218.58099 221.63901 227.755 233.871 239.987 243.045 250.382 255.882 258.94 265.056 271.172 277.28799 283.40399 289.51999 292.578 299.91501 305.14001 311.25601 317.37201 320.42999 325.92999 328.98801 335.104 341.22 344.883 347.94101 355.883 361.66901 366.89401 373.01001 375.452 381.56799 387.68399 393.79999 397.46301 400.521 404.18399 410.29999 416.086 421.586 427.086"
           y="0"
           id="tspan274">Median Time Difference between Priviledged and Extended Events per Developer (days)</tspan></text></g><g
       id="g278" /><g
       id="g280"><text
         transform="matrix(0,1,1,0,13.38,100.9)"
         style="font-variant:normal;font-weight:normal;font-size:11px;font-family:Helvetica;-inkscape-font-specification:Helvetica;writing-mode:lr-tb;fill:#000000;fill-opacity:1;fill-rule:nonzero;stroke:none"
         id="text284"><tspan
           x="0 7.9419999 14.058 23.111 29.226999 31.669001 37.785 40.842999 43.285 48.509998 54.625999 57.683998 65.625999 68.068001 73.568001 76.625999 80.454002 82.896004 88.792 94.907997 97.966003 100.408 106.524"
           y="0"
           id="tspan282">Cumulative Distribution</tspan></text></g><g
       id="g286" /><g
       id="g288" /><g
       id="g290" /><g
       id="g292" /><g
       id="g294" /><g
       id="g296" /><g
       id="g298" /><g
       id="g300" /><g
       id="g302" /><g
       id="g304" /><g
       id="g306" /><g
       id="g308" /></g></svg>
